<svg xmlns="http://www.w3.org/2000/svg" width="134" height="134" viewBox="0 0 134 134">
    <path fill="#E10078"
          d="M66.997164,0 C29.9989841,0 0,29.9989841 0,66.997164 C0,103.995344 29.9989841,134 66.997164,134 C103.995344,134 134,103.995344 134,66.997164 C134,29.9989841 103.995344,0 66.997164,0 Z M80.9445079,103.836529 C77.4959577,105.197799 74.7507302,106.230095 72.6918095,106.944762 C70.6385608,107.659429 68.2506667,108.016762 65.5337989,108.016762 C61.3592381,108.016762 58.1092063,106.99581 55.7950476,104.959577 C53.4808889,102.923344 52.3294815,100.342603 52.3294815,97.2060106 C52.3294815,95.9865397 52.4145608,94.738709 52.5847196,93.4681905 C52.7605503,92.197672 53.0384762,90.7683386 53.4184974,89.1631746 L57.7348571,73.9169524 C58.1148783,72.4535873 58.4438519,71.0639577 58.7047619,69.7707513 C58.965672,68.4662011 59.090455,67.269418 59.090455,66.1804021 C59.090455,64.2405926 58.687746,62.8793228 57.888,62.1136085 C57.0769101,61.3478942 55.5511534,60.973545 53.2766984,60.973545 C52.1649947,60.973545 51.0192593,61.1380317 49.845164,61.4840212 C48.6824127,61.8413545 47.6728042,62.1646561 46.8446984,62.4822857 L47.9847619,57.7859048 C50.8093968,56.6344974 53.5149206,55.6475767 56.0956614,54.8308148 C58.6764021,54.002709 61.1153439,53.594328 63.4124868,53.594328 C67.5586878,53.594328 70.757672,54.6039365 73.0094392,56.6004656 C75.2498624,58.6026667 76.378582,61.2060952 76.378582,64.4050794 C76.378582,65.0686984 76.2991746,66.2371217 76.1460317,67.9046772 C75.9928889,69.5779048 75.703619,71.1036614 75.2838942,72.5046349 L70.9902222,87.7054815 C70.6385608,88.9249524 70.3266032,90.320254 70.0430053,91.8800423 C69.7650794,93.4398307 69.6289524,94.6309418 69.6289524,95.4306878 C69.6289524,97.4499048 70.077037,98.8281905 70.9845503,99.559873 C71.8807196,100.291556 73.4518519,100.660233 75.6752593,100.660233 C76.7245714,100.660233 77.8986667,100.473058 79.2259048,100.110053 C80.5417989,99.7470476 81.4946878,99.423746 82.0959153,99.1458201 L80.9445079,103.836529 Z M80.1844656,42.1369735 C78.1822646,43.9973757 75.7716825,44.9275767 72.9527196,44.9275767 C70.1394286,44.9275767 67.7118307,43.9973757 65.6926138,42.1369735 C63.6847407,40.2765714 62.6694603,38.0134603 62.6694603,35.370328 C62.6694603,32.7328677 63.6904127,30.4640847 65.6926138,28.5866667 C67.7118307,26.7035767 70.1394286,25.7677037 72.9527196,25.7677037 C75.7716825,25.7677037 78.1879365,26.7035767 80.1844656,28.5866667 C82.1866667,30.4640847 83.1906032,32.7328677 83.1906032,35.370328 C83.1906032,38.0191323 82.1866667,40.2765714 80.1844656,42.1369735 Z"/>
</svg>
