<?xml version="1.0" encoding="UTF-8" standalone="no"?>
<!-- Generator: Adobe Illustrator 17.0.0, SVG Export Plug-In . SVG Version: 6.00 Build 0)  -->

<svg
   xmlns:dc="http://purl.org/dc/elements/1.1/"
   xmlns:cc="http://creativecommons.org/ns#"
   xmlns:rdf="http://www.w3.org/1999/02/22-rdf-syntax-ns#"
   xmlns:svg="http://www.w3.org/2000/svg"
   xmlns="http://www.w3.org/2000/svg"
   xmlns:sodipodi="http://sodipodi.sourceforge.net/DTD/sodipodi-0.dtd"
   xmlns:inkscape="http://www.inkscape.org/namespaces/inkscape"
   version="1.1"
   id="Ebene_1"
   x="0px"
   y="0px"
   width="1003.3267"
   height="498.40158"
   viewBox="1286.364 1052.124 1003.3266 498.40157"
   enable-background="new 1286.364 1052.124 896.59 498.403"
   xml:space="preserve"
   sodipodi:docname="gruene-vert.e.s.svg"
   inkscape:version="0.92.5 (2060ec1f9f, 2020-04-08)"><metadata
   id="metadata449"><rdf:RDF><cc:Work
       rdf:about=""><dc:format>image/svg+xml</dc:format><dc:type
         rdf:resource="http://purl.org/dc/dcmitype/StillImage" /><dc:title></dc:title></cc:Work></rdf:RDF></metadata><defs
   id="defs447" /><sodipodi:namedview
   pagecolor="#ffffff"
   bordercolor="#666666"
   borderopacity="1"
   objecttolerance="10"
   gridtolerance="10"
   guidetolerance="10"
   inkscape:pageopacity="0"
   inkscape:pageshadow="2"
   inkscape:window-width="3840"
   inkscape:window-height="2032"
   id="namedview445"
   showgrid="false"
   inkscape:lockguides="false"
   showguides="true"
   inkscape:guide-bbox="true"
   inkscape:zoom="1.8101934"
   inkscape:cx="-120.63641"
   inkscape:cy="370.95665"
   inkscape:window-x="2560"
   inkscape:window-y="54"
   inkscape:window-maximized="1"
   inkscape:current-layer="Ebene_1" />

<g
   id="g442">
	<path
   d="m 1972.234,1267.303 -266.412,-0.019 c 3.619,-3.498 6.757,-7.239 7.989,-12.15 -3.362,1.713 1.175,-3.109 -1.874,-2.674 l 0.503,-1.161 c -1.403,-0.022 -2.442,-1.92 -1.731,-3.163 l -0.741,0.437 c -0.745,-0.667 0.447,-1.667 0.01,-2.408 -0.905,0.021 -2.109,0.016 -2.104,-1.188 -0.442,0.463 -0.685,0.944 -1.209,1.199 -2.923,-2.163 -0.699,-5.783 -2.88,-8.383 l -0.248,1.685 c -1.91,0.034 -2.36,-1.712 -4.045,-1.96 -0.427,-3.149 -2.652,-5.251 -4.102,-8.189 l -0.498,-0.044 -0.204,1.187 c 2.117,2.193 3.857,5.256 4.102,8.189 l -0.706,0.039 c 0.254,2.833 -1.965,5.249 -3.66,7.409 -0.498,-0.044 -0.463,-0.442 -0.745,-0.667 -2.37,0.696 -1.034,-3.102 -2.42,-3.324 -0.508,2.365 -0.436,4.981 -1.433,7.202 -3.127,-0.976 -2.415,-4.528 -5.243,-5.478 0.017,-0.199 0.017,-0.199 0.243,-0.481 -0.741,0.437 -2.17,0.714 -2.59,-0.227 -1.209,1.199 -3.331,0.21 -5.003,0.968 l 0.026,-0.299 c -2.17,0.714 -4.318,0.024 -6.528,0.031 l 1.01,-1.217 c -0.956,-1.69 1.171,-1.905 1.717,-3.564 l -1.161,-0.503 c -0.276,-1.43 3.154,-1.631 1.232,-2.603 l 0.706,-0.039 -0.913,-2.188 c -0.983,-1.391 1.435,-1.481 1.894,-2.143 l -0.42,-0.94 c 1.928,-0.233 -0.01,-2.209 0.751,-2.845 -0.255,-0.524 -0.719,-0.966 -1.143,-0.702 -0.238,-0.723 -1.238,-1.915 -0.016,-2.109 -0.432,-1.945 -2.188,0.913 -2.629,-0.933 l 0.243,-0.481 0.281,0.225 0.971,-1.923 c -0.918,-0.984 -1.189,-3.617 -2.58,-2.635 l 0.281,0.225 -0.723,0.238 c -1.169,-0.403 -3.114,0.029 -2.923,-2.163 l -0.498,-0.044 c -1.178,-0.304 -1.183,0.9 -1.95,1.636 -2.391,-0.209 -5.982,0.681 -6.717,-2.395 l 1.43,-0.276 -0.281,-0.225 c -0.966,0.719 -3.127,-0.976 -3.093,0.934 -1.702,-0.049 -1.959,1.736 -3.38,1.913 l 0.463,0.442 -1.491,0.974 -0.437,-0.741 -0.442,0.463 -0.255,-0.524 c -0.928,1.425 -2.894,0.951 -4.059,1.652 -0.264,-0.425 -0.961,-0.486 -1.204,-0.01 -4.137,0.24 -8.395,1.875 -10.52,5.504 -0.961,-0.486 -2.401,2.199 -3.114,0.029 10.319,-11.243 26.355,-21.284 41.95,-14.8 -0.762,-0.468 -1.182,-1.408 -2.143,-1.894 2.915,-0.046 5.513,2.39 7.937,4.509 l 0.468,-0.762 5.252,3.069 -1.645,-1.85 0.451,-0.563 c -3.117,-3.385 -5.922,-5.738 -9.581,-8.668 l 0.724,-0.238 -2.43,-0.915 0.455,0.542 c -2.165,-0.491 -5.523,0.019 -6.921,-1.208 1.634,-1.463 1.462,-4.088 1.147,-6.224 2.103,-4.534 0.698,-10.278 2.585,-14.63 0.481,0.243 1.182,1.408 1.641,0.746 0.951,2.894 -0.273,7.706 3.803,8.163 0.685,-0.944 -0.215,-2.127 -0.653,-2.868 l 1.675,-13.405 0.741,-0.437 c 1.686,-10.091 7.915,-18.179 12.428,-27.321 l -0.458,-1.646 c 1.886,-4.352 4.063,-8.579 5.768,-13.147 1.915,-1.238 1.224,-4.812 3.351,-5.027 l -0.454,-0.542 1.209,-1.199 c 0.243,-0.481 -0.039,-0.706 -0.502,-1.148 l 0.442,-0.463 c 5.005,4.754 11.949,10.281 14.571,17.035 -3.818,-4.55 -7.675,-9.806 -12.944,-12.676 l -0.529,1.459 c 1.918,2.175 4.767,4.031 5.498,6.002 -2.421,-1.015 -3.099,-3.584 -5.52,-4.599 l 3.082,3.783 -3.867,-2.848 -0.486,0.961 c 2.857,4.064 8.165,7.641 9.848,12.506 -3.33,-2.098 -4.519,-5.716 -7.901,-7.216 -1,-1.192 -3.138,-4.29 -4.807,-2.428 0.281,0.225 0.481,0.243 0.762,0.468 l -0.425,0.264 3.862,4.052 -0.225,0.281 7.623,8.095 -0.979,-0.286 c 4.797,4.836 7.912,10.53 10.079,16.742 4.312,11.52 -1.892,23.926 -4.099,35.377 1.723,0.954 -0.197,3.396 0.929,4.297 1.248,-0.493 0.945,-1.624 1.413,-2.386 7.43,-11.496 12.171,-23.228 13.672,-36.949 -0.74,-1.872 0.916,-4.738 -0.295,-6.952 0.281,0.225 0.217,-0.182 0.724,-0.238 -0.704,-4.579 -0.749,-9.803 -1.933,-14.624 -4.067,-8.587 -10.504,-16.478 -16.551,-24.235 l 18.18,-2.425 c -5.778,-0.506 -12.454,1.219 -19.185,2.437 -0.961,-0.486 -0.276,-1.43 -0.502,-1.148 l -0.498,-0.044 c -0.437,-0.741 -1.481,-1.435 -1.918,-2.175 0.516,-0.156 1.966,0.473 1.872,-0.74 -0.481,-0.243 -0.923,0.22 -1.43,0.276 -0.723,0.238 -1.91,0.034 -1.641,-0.746 l 10.08,-1.628 -3.357,0.509 c -2.634,0.271 -5.97,1.686 -7.948,0.208 -1.26,-0.512 -3.078,-2.678 -4.556,-0.7 0.973,3.799 -4.827,2.388 -6.958,3.808 2.127,-0.215 4.822,-1.184 6.489,-0.737 l -12.151,2.35 c 4.275,0.474 8.153,-1.395 11.748,-1.181 l -1.894,2.143 -0.238,-0.723 -2.202,2.217 -38.996,7.43 -2.857,-4.064 c 13.217,-3.06 26.321,-4.824 39.576,-7.178 -12.67,1.401 -26.632,3.793 -39.559,6.979 -4.112,-5.78 -8.891,-10.816 -14.095,-15.588 l 0.524,-0.255 c -1.486,-0.23 -2.122,-0.989 -1.883,-2.574 -1.214,2.403 -2.91,-1.158 -4.132,-0.964 l 2.624,2.137 c -1.183,0.9 -2.391,-0.209 -3.595,-0.214 -9.105,-7.221 -18.419,-14.36 -29.896,-16.268 0.473,-1.966 1.219,-3.607 0.722,-5.96 -4.292,-0.275 -5.98,4.094 -7.454,7.178 -1.204,-0.01 -3.37,-0.496 -3.799,0.973 0.519,0.949 0.272,2.634 1.675,2.656 -3.102,9.064 -5.506,18.189 -5.221,27.55 -1.969,4.144 3.065,12.013 0.577,15.208 l 0.407,-0.065 0.437,0.741 -6.992,1.898 -0.039,-0.706 -0.26,0.68 -6.186,1.868 c -1.69,0.956 -4.544,0.305 -5.328,1.24 l -0.736,-0.767 10.311,-3.113 -11.008,3.052 c -1.905,-1.171 -5.292,-1.467 -6.474,-2.875 -3.85,-0.738 -7.661,-3.079 -11.793,-4.043 l -0.437,-0.741 -0.524,0.255 c -1.68,-1.452 -3.85,-0.738 -5.231,-2.164 -4.777,-1.622 -10.069,-3.089 -15.106,-4.032 -12.278,-3.082 -26.082,-4.791 -38.085,-4.135 -1.402,-2.331 3.108,-4.546 -1.006,-5.709 -2.192,-0.192 -3.804,2.177 -4.732,3.601 -0.935,15.277 2.817,29.759 7.626,43.631 l -2.413,1.194 1.746,-0.45 c -0.26,0.68 -1.69,0.956 -2.431,1.393 -1.905,-1.171 -4.804,0.985 -6.65,1.426 0.979,0.286 2.197,-1.012 3.132,-0.228 -1.23,0.294 -2.894,0.951 -3.838,0.267 -0.94,0.42 -3.319,1.215 -3.18,1.93 -5.467,0.526 -10.029,3.339 -15.076,4.804 l 1.204,0.01 -0.442,0.463 c -0.711,1.243 -2.132,1.42 -2.85,0.453 l -10.995,4.057 -0.044,0.498 c -0.468,0.762 -1.702,-0.049 -1.386,-0.222 l -9.873,3.854 0.486,-0.961 c -0.442,0.463 -1.473,0.775 -1.227,1.398 l -29.737,11.753 -2.651,0.471 0.281,0.225 -0.949,0.519 c -4.081,0.747 -6.516,3.345 -9.791,4.062 l 0.273,0.325 -3.591,0.89 c -35.674,15.349 -71.607,31.378 -105.434,52.009 -0.447,1.667 1.42,2.132 2.355,2.916 l -4.004,4.468 c 2.188,-0.913 4.106,1.263 6.259,0.748 l 13.92,-6.512 c 35.474,-15.367 70.667,-30.959 107.11,-43.631 2.642,7.659 6.975,14.363 13.92,19.889 1.675,2.656 4.966,4.048 7.464,6.475 5.255,6.483 11.944,11.485 19.181,14.828 l -0.442,0.463 c 1.879,1.469 3.569,0.513 4.971,2.844 4.275,0.474 7.392,3.859 11.506,5.022 1.204,0.01 2.335,-0.298 2.854,0.651 l -0.199,-0.017 2.421,1.015 -0.767,0.736 c 1.183,-0.9 2.447,0.716 3.876,0.44 l 0.486,-0.961 c 0.299,0.026 0.281,0.225 0.463,0.442 l -0.199,-0.017 1.966,0.473 -2.153,0.514 c 0.806,-0.03 1.187,0.204 1.723,0.954 -0.984,0.918 -1.879,-1.469 -3.578,-0.413 3.789,1.436 7.678,2.88 11.698,2.83 -0.243,0.481 -0.905,0.021 -0.75,0.537 0.463,0.442 1.005,-0.012 1.248,-0.493 l 0.22,0.923 0.468,-0.762 c 0.741,-0.437 1.884,0.265 1.923,0.971 l -1.928,0.233 c 0.979,0.286 2.408,0.01 3.612,0.015 0.463,0.442 1.225,0.91 1.182,1.408 -44.354,7.864 -86.507,21.542 -125.557,42.218 l -0.481,-0.243 c -0.017,0.199 -0.044,0.498 -0.243,0.481 -7.384,-1.65 -8.165,8.42 -14.372,9.383 l 1.928,-0.233 c -0.746,1.641 -2.843,2.662 -2.584,4.291 -1.928,0.233 1.25,2.92 -1.483,3.183 0.987,0.187 0.983,1.391 1.402,2.331 -2.114,1.22 1.233,3.119 1.635,4.259 l -1.91,0.034 c 9.829,6.983 21.041,10.775 33.099,12.934 14.873,2.104 30.881,5.01 46.037,5.031 27.5,1.201 53.381,0.253 78.576,-5.472 l 1.391,-0.983 c 0.308,-0.073 0.706,-0.039 1.014,-0.112 l -0.027,50.791 459.245,0.026 z m -257.965,-125.26 2.657,4.047 c -1.243,-0.711 -2.406,-2.319 -2.657,-4.047 z m -15.055,-18.382 4.996,4.854 c -0.524,0.255 -1.217,-1.01 -1.659,-0.547 -1.199,-1.209 -3.338,-1.998 -3.337,-4.307 z m -208.297,229.519 c 5.51,-1.024 11.553,-2.402 17.02,-2.928 1.62,-0.159 3.348,-0.41 5.077,-0.66 l -0.052,0.598 c -2.551,0.479 -5.103,0.959 -7.654,1.438 l -0.463,-0.442 c -3.843,1.471 -8.876,1.633 -13.455,2.336 z m -65.537,3.301 0.243,-0.481 12.942,1.233 c -4.119,0.041 -9.148,-1.001 -13.185,-0.752 z m 85.727,-78.026 1.949,0.672 0.034,58.124 c -2.642,0.371 -5.376,0.634 -8.001,0.806 -5.921,-0.016 -12.64,2.207 -17.751,0.957 l -0.26,0.68 c -2.646,-0.733 -5.224,0.045 -7.948,0.208 -2.403,-1.214 -5.722,10e-4 -7.87,-0.689 -2.401,2.199 -4.296,-1.38 -6.671,0.521 l -19.625,-1.717 c -1.187,-0.204 -2.431,1.393 -3.114,0.029 -22.972,-3.616 -48.107,-4.309 -68.233,-17.514 l 0.442,-0.463 0.281,0.225 -0.039,-0.706 c 2.651,-0.471 5.744,-1.405 8.102,-3.106 8.145,-3.604 17.252,-6.722 25.657,-11.006 27.37,-7.644 54.102,-19.459 82.925,-23.06 l -0.463,-0.442 2.642,-0.371 c -0.398,-0.035 -0.78,-0.269 -0.654,-0.559 z m -29.216,-7.976 c 0.217,-0.182 1.629,-0.259 2.365,0.508 -0.966,0.718 -1.685,-0.248 -2.365,-0.508 z m -32.567,-85.564 c -0.044,0.498 -0.767,0.736 -1.022,0.212 0.298,0.026 0.542,-0.455 1.022,-0.212 z m 50.775,-2.083 c 2.209,-0.01 3.16,2.886 4.546,3.108 -0.243,0.481 0.519,0.949 0.983,1.391 l 0.26,-0.68 c 7.684,7.398 14.67,17.043 22.763,22.068 l 0.039,0.706 c 1.403,0.022 1.212,2.214 3.365,1.7 -0.746,1.641 1.879,1.469 2.905,2.362 -29.712,-4.607 -61.801,-8.418 -93.844,-3.593 -1.915,1.238 -4.579,0.704 -6.732,1.218 l -14.148,3.38 -0.255,-0.524 c 18.2,-7.241 37.098,-14.422 55.571,-21.338 l -0.463,-0.442 1.91,-0.034 c 7.504,-3.158 15.142,-6.706 23.1,-9.322 z m 17.498,-46.251 -0.199,-0.017 0.026,-0.299 0.199,0.017 z m 34.886,16.604 c -1.72,0.151 -3.423,2.411 -5.48,1.829 l -1.166,0.701 0.459,-0.662 -1.984,-0.274 c 0.706,-0.039 1.192,-1 0.529,-1.459 -3.612,-0.015 -7.399,1.963 -11.289,2.827 -2.608,-0.027 -5.982,0.681 -8.603,1.958 -3.357,0.509 -7.23,1.174 -10.029,3.339 4.822,-1.184 9.812,-3.157 14.889,-3.817 0,0 0.276,1.43 1.442,0.728 l -1.915,1.238 1.161,0.503 -0.498,-0.044 0.463,0.442 -0.199,-0.017 c -0.026,0.299 -0.035,0.398 -0.044,0.498 v 0 0 0 c -1.204,0 -3.513,-0.01 -4.042,1.453 l -0.78,-0.269 0.785,-0.935 c -2.651,0.471 -4.54,1.41 -7.399,1.963 3.605,-2.194 6.208,-0.963 9.306,-3.101 -1.398,-1.227 -4.254,0.431 -5.965,0.482 0.741,-0.437 1.91,-0.034 1.889,-0.939 -4.076,-0.457 -7.859,2.625 -11.497,2.909 0.017,-0.199 -0.281,-0.225 -0.255,-0.524 -0.33,1.477 -2.041,1.528 -3.579,1.895 l 1.863,-0.64 -0.463,-0.442 -6.23,2.366 c -0.017,0.199 0.281,0.225 0.481,0.243 -0.723,0.238 -1.928,0.233 -1.915,1.238 l -0.481,-0.243 c -0.281,-0.225 1.646,-0.458 1.227,-1.398 l -1.672,0.757 c -5.997,-11.767 -9.569,-23.724 -10.021,-36.914 1.255,1.716 3.59,1.418 5.287,2.671 l 0.519,0.949 c 4.777,1.622 9.511,1.434 14.864,2.204 -0.286,0.979 0.701,1.166 1.199,1.209 0.923,-0.22 1.161,0.503 1.723,0.954 5.492,1.484 10.268,3.107 16.029,3.812 6.249,3.157 13.378,4.282 19.184,7.902 l -0.225,0.281 0.961,0.486 c -0.685,0.944 -2.639,1.476 -3.137,1.432 -0.248,1.685 1.928,-0.233 3.088,0.27 l -0.442,0.463 0.281,0.225 c -1.403,-0.022 -3.319,1.215 -5.246,1.448 l 0.034,1.91 c 1.192,-1 2.695,-0.969 3.843,-1.471 -0.767,0.736 -2.396,0.995 -2.132,1.42 1.486,0.23 2.911,-1.151 4.267,-1.735 z m -33.203,12.353 c -0.741,0.437 -2.127,0.215 -2.613,1.177 0,0 -0.706,0.039 -1.412,0.077 -0.94,0.42 -1.924,1.337 -2.885,0.852 -1.23,0.294 -0.182,-0.217 1.456,-0.575 -0.507,0.056 -1.005,0.012 -1.421,0.177 0.01,-0.1 1.122,-0.203 2.235,-0.306 0.308,-0.073 0.507,-0.056 0.814,-0.13 0.1,0.01 0.208,-0.082 0.308,-0.073 0.308,-0.073 0.524,-0.255 0.841,-0.428 l -2.608,-0.027 c 1.464,-0.675 4.297,-0.929 5.489,-1.929 l 0.039,0.706 c 1.204,0.01 1.723,0.954 3.114,-0.029 -0.529,1.459 -2.214,1.212 -3.098,2.138 l 0.987,0.187 c -1.646,0.458 -3.336,1.415 -5.264,1.648 0.971,-1.923 2.899,-2.156 4.264,-2.839 0.026,-0.299 -0.281,-0.225 -0.481,-0.243 z m 2.402,1.214 c 0.253,-2.889 5.064,-1.665 7.404,-3.167 3.635,-1.388 7.46,-2.66 11.233,-3.334 -4.528,2.415 -10.111,3.131 -14.92,5.32 -1.16,-0.503 -2.286,0.905 -3.717,1.181 z m 1.188,0.204 1.005,-0.012 -1.43,0.276 z m 3.374,-0.708 3.319,-1.215 0.199,0.017 z m 3.064,3.982 c 1.265,-0.692 2.184,-2.017 3.579,-1.895 -0.775,0.835 -2.439,1.493 -3.579,1.895 -0.208,0.082 -0.425,0.264 -0.732,0.337 0.209,-0.082 0.417,-0.164 0.732,-0.337 z m 4.313,-6.85 c 0.719,0.966 1.646,-0.458 2.408,0.01 -0.199,-0.017 -0.217,0.182 -0.217,0.182 0.455,0.542 1.685,0.248 2.408,0.01 l -2.413,1.194 -0.519,-0.949 -1.672,0.757 c 0.262,-0.68 0.262,-0.68 0.01,-1.204 z m 16.492,-1.469 -16.086,6.021 c 5.125,-2.362 10.64,-4.59 16.086,-6.021 z m -4.963,-0.635 0.723,-0.238 0.281,0.225 z m -8.879,-4.089 c 0.026,-0.299 -0.182,-0.217 -0.481,-0.243 1.204,0.01 2.188,-0.913 3.6,-0.99 -1.69,0.956 -3.124,2.437 -5.506,2.128 z m 5.281,0.462 c -1.209,1.199 -4.341,1.427 -5.987,1.885 2.153,-0.514 3.778,-1.877 5.987,-1.885 z m -3.333,4.828 c 0.992,-1.017 2.59,0.227 3.817,-1.172 -0.46,0.663 -2.653,2.78 -3.817,1.172 z m -5.058,-4.157 -0.182,-0.217 0.741,-0.437 0.199,0.017 z m -9.137,4.622 -0.481,-0.243 1.166,-0.701 z m -1.863,0.64 -0.199,-0.017 0.767,-0.736 z m -2.197,1.012 c -0.78,-0.269 1.192,-1 1.672,-0.757 0.239,0.723 -1.909,0.034 -1.672,0.757 z m -1.875,-2.673 0.68,0.26 c -0.224,0.281 -1.645,0.458 -0.68,-0.26 z m 25.896,-4.561 0.199,0.017 -0.442,0.463 -0.182,-0.217 z m 2.557,-1.683 0.255,0.524 c -0.182,-0.217 -0.904,0.021 -0.255,-0.524 z m 4.099,-0.947 -0.017,0.199 -0.706,0.039 0.017,-0.199 z m 0.979,0.287 0.706,-0.039 -1.447,0.476 z m 0.943,0.684 -1.945,0.432 1.872,-0.74 z m 2.318,-2.407 c -0.117,0.191 -0.234,0.381 -0.442,0.463 l 0.706,-0.039 c -0.425,0.264 -0.425,0.264 -0.905,0.021 l 0.641,-0.445 c 0.108,-0.091 0.225,-0.281 0.325,-0.273 z m 4.592,0.302 -4.804,0.985 c 1.253,-1.698 3.146,-1.532 4.804,-0.985 z m 3.59,1.418 c -5.528,1.223 -11.039,4.555 -17.004,5.037 3.787,-1.977 6.225,-1.162 9.631,-3.373 0.243,-0.481 -0.537,-0.75 -0.463,-0.442 -2.183,-0.291 -3.324,2.42 -5.246,1.448 l -5.762,1.604 c 0.1,0.01 0.199,0.017 0.199,0.017 0,0 0,0 -0.01,0.1 0.199,0.017 0.407,-0.065 0.507,-0.056 -0.225,0.281 -0.524,0.255 -0.923,0.22 0.199,0.017 0.199,0.017 0.416,-0.164 -0.1,-0.01 -0.1,-0.01 -0.199,-0.017 -0.697,-0.061 -1.664,0.658 -1.91,0.034 5.97,-1.686 11.77,-2.584 17.727,-5.275 l 3.036,0.867 z m 1.442,0.728 c -5.008,2.172 -9.812,3.157 -14.651,4.54 4.865,-1.682 9.847,-3.555 14.651,-4.54 z m 12.013,-11.095 -0.905,0.021 c 0.199,0.018 0.416,-0.164 0.905,-0.021 z m 13.169,-1.357 -1.464,0.675 0.455,0.542 -1.62,0.159 c -0.017,0.199 -0.026,0.299 0.073,0.308 -0.598,-0.052 -1.213,0.095 -2.443,0.389 0.238,0.723 1.403,0.022 2.391,0.209 -3.093,0.934 -7.854,1.421 -11.073,2.645 -0.442,0.463 -0.905,0.021 -1.187,-0.204 l 1.239,-0.394 c 0.243,-0.481 0.832,-0.329 1.239,-0.394 l -1.239,0.394 c -0.01,0.1 -0.108,0.091 -0.117,0.191 2.833,-0.254 6.026,-1.179 7.876,-2.824 -1.468,-0.43 -4.042,1.453 -5.042,0.262 -1.434,1.481 -3.998,0.955 -4.727,2.397 -0.22,-0.923 -1.204,0 -1.667,-0.447 4.766,-1.691 9.592,-4.08 14.634,-4.341 l -3.111,1.133 c 1.187,0.204 3.855,-0.466 5.246,-1.448 z m -8.881,2.836 c -0.524,0.255 -0.923,0.22 -1.629,0.259 0.706,-0.038 0.948,-0.519 1.629,-0.259 z m -1.141,2.711 -0.984,0.918 -0.281,-0.225 -0.923,0.22 c 0.026,-0.299 1.373,-0.783 2.188,-0.913 z m 1.871,-0.739 -0.425,0.264 -0.706,0.039 z m 0.948,-0.52 0.199,0.017 -0.524,0.255 z m 6.047,-0.274 c 0.238,0.723 -0.966,0.719 -1.391,0.983 l -0.281,-0.225 c 0.426,-0.265 0.885,-0.927 1.672,-0.758 z m 2.344,-0.397 -0.524,0.255 0.269,-0.78 z m 0.061,1.611 c -3.873,0.665 -7.478,2.859 -11.228,2.129 2.197,-1.012 4.285,-1.934 6.737,-2.422 l -0.442,0.463 c 1.294,0.114 3.465,-0.599 4.933,-0.17 z m 0.155,0.516 -2.17,0.714 1.872,-0.74 z m 3.415,11.441 -0.463,-0.442 -0.503,1.161 c -3.37,-0.496 -4.767,-4.031 -7.668,-5.288 l 0.017,-0.199 -1.944,-1.877 7.399,-1.963 c 1.277,2.621 2.709,5.758 3.162,8.608 z m 86.935,-34.454 -20.113,3.862 19.706,-3.797 z m 5.527,-1.223 c -1.672,0.757 -3.158,0.527 -5.003,0.968 1.165,-0.702 3.357,-0.51 5.003,-0.968 z m -30.38,6.477 35.903,-6.496 c -0.503,1.161 -1.882,3.148 -3.346,3.823 l 0.762,0.468 c -0.225,0.281 -0.243,0.481 -0.26,0.68 -1.161,-0.503 -1.69,0.956 -2.175,1.918 0,1.204 -2.336,2.606 -3.126,4.746 -5.498,10.059 -11.039,20.616 -11.487,32.623 l -0.667,0.745 c -2.709,-13.789 -7.978,-26.999 -15.604,-38.507 z m -49.656,121.233 c -0.02,4.817 1.004,10.327 2.639,14.585 0.1,0.01 0.191,0.117 0.191,0.117 l -92.148,-0.031 c -36.021,-7.066 -70.385,-19.308 -95.111,-48.775 4.761,-0.487 10.5,-0.688 15.559,-1.148 3.153,0.677 6.467,0.666 9.053,-0.212 l -0.017,0.199 c 0.017,-0.199 0.984,-0.918 1.403,0.022 5.778,0.506 12.653,-1.202 18.413,-0.497 3.551,0.712 7.13,-1.183 9.291,0.512 -0.498,-0.044 -0.987,-0.187 -1.685,-0.248 1.225,0.91 3.37,0.496 4.6,0.202 l -2.165,-0.491 2.37,-0.696 c 8.195,0.416 19.669,1.219 27.5,1.201 0.255,0.524 0.762,0.468 0.719,0.966 5.323,-0.036 10.754,2.145 16.039,1.403 l -0.01,1.204 c 6.484,0.467 12.743,1.215 18.437,3.821 l -1.199,-1.209 c 3.153,0.677 6.955,3.118 9.793,1.66 l 14.649,8.108 0.442,-0.463 c 0.762,0.468 0.502,1.148 0.476,1.447 1.491,-0.974 2.91,1.158 4.093,0.258 -1.923,-0.971 -2.662,-2.843 -4.81,-3.533 0.529,-1.459 1.403,0.022 2.17,-0.714 -3.833,-0.938 -6.452,-4.279 -10.358,-5.524 l 0.243,-0.481 c -1.667,-0.447 -3.347,-1.899 -4.564,-2.909 l 0.243,-0.481 -2.667,-1.639 -0.741,0.437 c -0.281,-0.225 -0.437,-0.741 -0.944,-0.685 0.044,-0.498 0.442,-0.463 0.486,-0.961 -1.442,-0.728 -3.083,-1.474 -4.048,-3.064 l 0.723,-0.238 c -2.442,-1.92 -4.784,-3.832 -7.214,-4.747 l 0.944,0.685 c -2.408,-0.01 -1.697,-1.253 -3.828,-2.142 l 0.542,-0.455 c -2.143,-1.894 -3.619,-4.533 -6.447,-5.483 l 1.862,1.669 c -2.132,1.42 -1.636,-1.95 -2.823,-2.154 l 0.498,0.044 c -1.402,-2.331 -2.575,-3.839 -5.277,-5.079 -3.614,-5.737 -10.966,-11.198 -14.41,-17.723 l 8.427,-3.378 -0.463,-0.442 c 0.199,0.017 0.524,-0.255 0.723,-0.238 0.481,0.243 0.039,0.706 0.22,0.923 l 4.285,-1.934 2.37,-0.696 c 0.192,-2.192 3.86,-1.67 5.775,-2.908 l 0.437,0.741 c 1.915,-1.238 4.124,-1.245 5.758,-2.708 l -0.481,-0.243 c 4.29,-3.138 11.944,-4.576 17.958,-6.761 l -2.639,1.476 0.78,0.269 c 5.225,-2.354 10.333,-4.517 16.06,-5.722 0.082,0.208 -0.026,0.299 -0.126,0.29 0.208,-0.082 0.407,-0.065 0.615,-0.147 2.823,2.154 7.205,4.846 10.093,7.408 2.165,0.491 2.667,1.639 4.083,2.666 2.844,3.06 7.231,4.548 9.126,8.126 4.104,3.571 7.442,7.879 11.251,12.528 0.973,3.799 4.371,7.409 6.483,10.806 1.187,0.204 2.192,0.192 2.876,-0.752 1.166,-0.701 1.199,1.209 1.718,2.158 0.044,-0.498 0.724,-0.238 1.005,-0.012 -0.199,-0.017 -0.225,0.281 -0.723,0.238 0.463,0.442 0.961,0.486 1.442,0.728 -0.667,0.745 1.481,1.434 0.034,1.91 3.373,1.6 3.111,6.897 7.178,7.454 l -1.939,-3.081 0.888,0.178 c -0.381,-0.234 -0.745,-0.667 -1.096,-0.096 0.529,-1.459 -1.631,-3.154 -0.99,-3.6 l -0.75,0.537 -1,-1.192 1.148,-0.502 -0.745,-0.667 -0.26,0.68 c -0.432,-1.945 -2.177,-3.804 -2.626,-5.55 0.199,0.017 0.524,-0.255 0.498,0.044 l -0.294,-1.23 0.706,-0.039 c -0.463,-0.442 -0.918,-0.984 -1.156,-1.707 l -0.524,0.255 c -0.719,-0.966 -1.463,-1.634 -1.259,-2.82 0.746,-1.641 -2.9,-3.566 -0.968,-5.003 l -1.199,-1.209 c 0.225,-0.281 0.442,-0.463 0.75,-0.537 -2.172,-5.008 -4.798,-10.558 -6.97,-15.567 l 0.459,-0.662 c -3.09,-5.992 -4.771,-13.166 -6.431,-19.434 l 0.481,0.243 -0.463,-0.442 17.086,-4.829 c -0.255,-0.524 -2.165,-0.491 -2.933,0.245 l 0.264,0.425 c -1.91,0.034 -3.076,0.735 -4.761,0.487 -0.425,0.264 -1.43,0.276 -0.992,1.017 l -8.123,2.2 -0.255,-0.524 1.646,-0.458 c -0.961,-0.486 -1.69,0.956 -2.408,-0.01 5.45,-2.635 10.735,-3.377 16.986,-4.838 l -0.463,-0.442 0.442,-0.463 c -5.003,0.968 -10.033,2.234 -14.59,3.843 -0.923,0.22 -2.894,0.951 -2.872,-0.452 2.894,-0.951 6.676,-1.725 9.587,-2.875 l 1.239,-0.394 0.01,-0.1 c 2.396,-0.995 4.082,-3.056 6.716,-3.327 -0.044,0.498 -0.442,0.463 -0.468,0.762 1.192,-1 3.076,-0.735 3.86,-1.67 -1.161,-0.503 -2.59,-0.227 -3.586,-0.314 l 4.566,-1.709 c -3.53,0.193 -5.948,2.591 -9.085,4.023 l -0.463,-0.442 c -1.166,0.701 -2.608,-0.027 -4.081,0.747 -0.299,-0.026 -0.589,-0.152 -0.87,-0.377 -1.538,0.367 -4.7,-0.21 -5.463,1.63 -0.918,-0.984 -1.68,-1.452 -2.91,-1.158 1.915,-1.238 6.559,-1.534 8.456,-2.573 l -0.04,1.603 1.603,0.04 c 1.408,-1.182 2.209,-0.01 3.6,-0.99 -0.77,-2.677 3.119,-1.233 4.021,-2.359 l -0.463,-0.442 1.148,-0.502 c -2.612,1.177 -5.688,1.912 -8.664,2.655 l -0.238,-0.723 c 1.248,-0.493 3.149,-0.427 3.86,-1.67 -1.222,0.194 -4.804,0.985 -7.217,2.179 l 0.213,-1.286 c -2.17,0.714 -4.358,1.626 -7.369,2.768 l -0.476,-1.447 3.292,-0.917 c -1.187,-0.204 -2.127,0.215 -3.076,0.735 -0.714,-2.17 -0.946,-4.098 -1.669,-6.169 0.698,-10.278 -0.024,-20.38 3.347,-30.223 1.872,-0.74 3.139,1.981 4.993,1.441 l -0.169,0.788 0.68,0.26 c 0.044,-0.498 -0.264,-0.425 -0.537,-0.75 0.542,-0.455 0.966,-0.719 1.746,-0.45 0.514,2.153 3.37,0.496 4.534,2.103 0.476,1.447 -1.695,2.161 -2.137,2.624 0.039,0.706 0.719,0.966 1.243,0.711 0.665,3.873 4.316,4.594 7.183,6.25 2.624,2.137 4.767,4.031 7.651,5.488 2.831,4.363 7.966,7.623 10.814,11.787 l -0.225,0.281 c 2.17,-0.714 2.182,2.6 3.568,2.822 -4.042,1.453 -10.323,2.108 -14.391,3.86 -2.153,0.514 -0.442,0.463 -1.95,1.636 l 12.901,-2.887 c 0.049,-1.702 2.613,-1.177 4.059,-1.652 1.415,3.336 4.503,3.606 5.238,6.682 l -0.225,0.281 c 6.483,10.806 13.672,21.574 15.814,33.807 l -0.984,0.918 0.905,-0.021 c -0.044,0.498 -0.269,0.78 -0.187,0.987 1.453,4.042 0.208,7.948 1.644,12.19 -1.474,3.083 0.477,7.169 0.263,10.764 -1.435,1.481 0.956,1.69 0.427,3.149 -24.994,4.542 -48.666,21.544 -54.706,48.118 z m -2.646,-115.47 c 0.255,0.524 -0.524,0.255 -0.442,0.463 -0.081,-0.207 0.244,-0.48 0.442,-0.463 z m -4.819,6.907 0.498,0.044 -0.949,0.519 z m 0.93,-0.32 c 0.169,-0.788 3.371,-1.813 5.29,-1.946 l 1.019,-1.316 c 0.524,-0.255 0.025,2.01 0.086,1.312 -0.299,-0.026 -0.697,-0.061 -1.105,0 l -0.342,0.472 -4.948,1.474 z m 4.588,-0.804 c -0.928,1.425 -3.093,0.934 -4.584,1.908 1.492,-0.974 3.219,-1.224 4.584,-1.908 z m 2.44,-1.493 0.442,-0.463 0.199,0.017 c -0.922,0.221 0.038,0.706 -0.641,0.446 z m 3.114,-0.028 0.199,0.017 -1.23,0.294 z m -5.268,-5.179 -0.017,0.199 c 0.516,-0.156 1.031,-0.311 1.555,-0.567 z m 8.404,-1.975 c -2.85,0.453 -4.904,0.976 -6.858,1.508 z m -1.901,7.964 -1.239,0.394 -0.035,0.398 z m -44.381,16.194 c 0.516,-0.156 1.512,-0.069 1.837,-0.341 -0.516,0.155 -1.122,0.203 -1.837,0.341 z m -51.831,8.414 c -0.1,-0.01 -0.108,0.091 -0.208,0.082 0.407,-0.065 0.806,-0.03 1.204,0.01 -0.282,-0.225 -0.688,-0.16 -0.996,-0.087 z m -0.109,0.091 -0.1,-0.01 -0.1,-0.01 c 0,10e-4 0.101,0.01 0.2,0.018 z m -0.406,0.065 c -0.199,-0.017 -0.407,0.065 -0.507,0.056 -0.308,0.073 -0.507,0.056 -0.814,0.13 0.407,-0.065 0.914,-0.121 1.321,-0.186 z m 73.242,-27.12 -5.536,1.323 c 3.08,0.37 4.735,-0.188 5.536,-1.323 z"
   id="path8"
   inkscape:connector-curvature="0"
   style="fill:#84b414;fill-opacity:1" />
	<polygon
   points="1620.341,1052.215 1620.422,1052.423 1619.635,1052.253 "
   id="polygon10"
   style="fill:#84b414;fill-opacity:1" />
	<path
   d="m 1621.844,1052.246 c 0.255,0.524 -0.724,0.238 -1.23,0.294 0.208,-0.082 0.65,-0.546 1.23,-0.294 z"
   id="path12"
   inkscape:connector-curvature="0"
   style="fill:#84b414;fill-opacity:1" />
	<path
   d="m 1624.698,1052.897 c 1.204,0.01 2.889,0.253 4.037,-0.249 0.044,-0.498 -0.706,0.039 -0.979,-0.286 1.187,0.204 3.556,-0.492 4.357,0.682 0.481,0.243 0.979,0.286 1.204,0 0.468,-0.762 1.442,0.728 1.646,-0.458 -0.264,-0.425 -0.489,-0.143 -0.689,-0.161 2.352,-0.497 4.988,2.645 7.671,0.671 l 0.044,-0.498 c 1.685,0.248 3.314,-0.011 4.773,0.518 l -3.639,0.284 c 0.42,0.94 1.43,-0.276 2.347,0.707 1.166,-0.701 2.672,0.435 3.617,-1.189 l -0.503,1.161 c 1.928,-0.233 4.357,0.682 5.566,-0.517 l -0.199,-0.017 c 0.701,1.166 3.132,-0.228 4.574,0.501 l 5.479,0.479 c -0.217,0.182 -0.286,0.979 0.519,0.949 l 0.923,-0.22 c -0.281,-0.225 -0.463,-0.442 -0.762,-0.468 0.966,-0.719 2.872,0.452 4.275,0.474 0.182,0.217 -1.447,0.476 -0.204,1.187 l 1.408,-1.182 0.493,1.248 c 0.706,-0.039 2.426,-0.189 2.612,-1.177 0.706,-0.039 -0.26,0.68 0.012,1.005 0.22,0.923 1.473,-0.775 1.243,0.711 0.706,-0.039 1.889,-0.939 2.608,0.027 1.872,-0.74 3.551,0.712 5.523,-0.019 2.104,1.188 4.799,0.219 7.146,0.926 -0.044,0.498 -0.741,0.437 -0.685,0.944 l 0.281,0.225 c 1.677,-1.961 6.246,-0.257 8.394,0.433 0.217,-0.182 -0.039,-0.706 0.459,-0.662 0.463,0.442 0.956,1.69 2.16,1.695 l 0.243,-0.481 c 0.044,-0.498 -0.454,-0.542 -0.961,-0.486 l -0.199,-0.017 -0.199,-0.017 c 0.486,-0.961 1.204,0.01 1.91,-0.034 -0.325,0.273 0.138,0.715 0.61,1.057 0.044,-0.498 0.468,-0.762 0.204,-1.187 2.429,0.915 5.462,0.679 7.159,1.931 0.68,0.26 1.442,0.728 2.365,0.508 l -0.46,-0.442 c 1.503,0.031 2.889,0.253 3.607,1.219 0.723,-0.238 1.646,-0.458 1.641,0.746 0.222,-1.386 3.132,-0.228 4.553,-0.405 0.757,1.672 2.403,1.214 4.071,1.661 0.225,-0.281 0.044,-0.498 -0.039,-0.706 l 1.199,1.209 c 0.723,-0.238 0.243,-0.481 -0.012,-1.005 1.222,-0.194 1.94,0.772 3.17,0.478 -0.949,0.519 -1.949,-0.672 -2.634,0.271 -0.442,0.463 0.481,0.243 0.537,0.75 1.209,-1.199 2.429,0.915 2.876,-0.752 0.22,0.923 0.979,0.286 1.486,0.23 5.049,1.948 11.278,1.89 16.328,3.838 l -0.442,0.463 c 1.442,0.728 3.612,0.015 3.564,1.717 1.23,-0.294 1.396,-2.187 3.076,-0.735 l 1.222,-0.194 -0.443,0.465 c 0.68,0.26 1.187,0.204 1.447,-0.476 l -0.217,0.182 1.161,0.503 -0.524,0.255 1.91,-0.034 -1.166,0.701 c 0.509,3.357 4.551,1.904 5.976,2.832 l -0.017,0.199 c 0.979,0.286 1.702,0.049 2.872,0.452 -0.22,-0.923 -1.905,-1.171 -2.867,-1.656 l 0.199,0.017 -0.437,-0.741 -0.667,0.745 -4.05,-0.756 c 0.724,-0.238 1.685,0.248 2.153,-0.514 l -2.165,-0.491 c 0.905,-0.021 2.431,-1.393 3.114,-0.029 1.408,-1.182 2.585,1.431 3.868,0.539 0.675,1.464 1.884,0.265 3.17,0.478 -0.711,1.243 0.658,1.664 1.662,1.651 l -3.331,0.21 c 0.238,0.723 2.109,-0.016 2.403,1.214 l 1.005,-0.012 c -1.646,0.458 0.016,2.109 -0.751,2.845 0.757,1.672 1.486,0.23 2.629,0.933 1.723,0.954 3.607,1.219 5.474,1.684 l -0.437,-0.741 c 2.408,0.01 4.573,2.809 6.423,1.164 1.945,-0.432 2.398,2.418 4.556,0.7 4.309,2.385 10.516,1.422 14.617,3.889 l 1.166,-0.701 c 0.281,0.225 0.238,0.723 0.736,0.767 -0.425,0.264 -1.248,0.493 -1.707,1.156 l 0.944,0.685 c -0.217,0.182 -0.68,-0.26 -0.949,0.519 6.397,1.463 12.638,2.411 18.905,3.059 l 0.039,0.706 c -12.699,-1.713 -25.419,-4.332 -37.845,-5.72 -0.685,0.944 -1.641,-0.746 -2.17,0.714 1.442,0.728 3.838,-0.267 5.462,0.679 l 0.762,0.468 c 0.248,-1.685 2.136,-0.315 3.088,0.27 2.906,0.054 7.19,0.428 10.317,1.405 0.281,0.225 0.039,0.706 0.437,0.741 l 0.243,-0.481 c 1.641,0.746 3.083,1.474 4.812,1.224 l 0.26,-0.68 c 3.578,0.413 6.435,2.169 10.048,2.184 -1.672,0.757 -4.556,-0.7 -6.666,-0.684 -10.841,-1.149 -21.287,-3.368 -32.302,-4.834 -1.199,-1.209 -3.396,-0.197 -5.037,-0.943 -5.037,-0.943 -10.798,-1.647 -15.31,-2.845 -2.37,0.696 -5.219,-1.159 -8.099,-1.512 -1.243,-0.711 -2.881,1.956 -3.097,-0.171 -0.68,-0.26 -2.122,-0.989 -2.915,0.046 l -68.515,-12.015 c -37.603,-6.201 -81.429,-5.518 -119.52,1.89 -42.12,9.867 -79.075,31.829 -114.01,59.389 -5.036,4.779 -10.795,9.796 -16.757,13.692 -1.85,1.645 -3.091,4.347 -5.521,5.741 l -0.498,-0.044 c 9.317,-15.848 27.053,-29.254 40.491,-41.73 4.333,-3.636 9.857,-5.964 13.13,-10.094 l -0.199,-0.017 c 4.341,-1.427 8.116,-6.718 12.7,-8.626 0.281,0.225 0.264,0.425 0.463,0.442 0.217,-0.182 0.524,-0.255 0.442,-0.463 l -0.281,-0.225 c 2.583,-1.982 6.417,-3.354 9.298,-5.31 4.108,-3.355 8.851,-3.642 12.652,-6.924 3.093,-0.934 5.494,-3.133 9.124,-3.317 0.512,-1.26 1.959,-1.736 3.18,-1.93 l -0.017,0.199 c 7.422,-3.366 15.822,-6.446 23.681,-9.071 l 0.762,0.468 c 1.721,-2.459 4.778,-0.686 6.98,-2.903 1.407,1.127 4.037,-0.249 5.783,-0.699 -0.944,-0.685 -1.928,0.233 -2.651,0.471 0.468,-0.762 2.938,-1.449 3.881,-0.765 1.153,-1.706 3.899,-0.964 5.29,-1.946 0.243,-0.481 -0.044,0.498 0.238,0.723 1.677,-1.961 6.043,-1.379 8.179,-1.694 l 4.098,-0.946 c -0.437,-0.741 -2.651,0.471 -4.055,0.448 l 10.505,-1.892 0.463,0.442 c 0.486,-0.961 3.119,-1.233 4.323,-1.228 l -0.568,0.753 c 0.463,0.442 1.187,0.204 1.884,0.265 l -1.243,-0.711 c 1.685,0.248 3.574,-0.691 4.998,0.237 l 0.442,-0.463 -0.961,-0.486 1.91,-0.034 -0.044,0.498 1.403,0.022 -0.039,-0.706 c 2.396,-0.995 2.429,0.915 5.059,-0.461 l -0.442,0.463 c 0.706,-0.039 1.966,0.473 2.434,-0.289 l -1.685,-0.248 c 0.442,-0.463 1.43,-0.276 2.127,-0.215 -0.161,0.689 0.519,0.949 1.017,0.992 0.724,-0.238 1.148,-0.502 1.872,-0.74 -0.32,-0.931 -0.706,0.039 -1.187,-0.204 1.469,-1.879 1.212,2.214 2.352,-0.497 0.255,0.524 0.294,1.23 1,1.192 l 0.243,-0.481 -0.073,-0.308 1.204,0.01 c 0,0 -0.225,0.281 -0.017,0.199 -0.017,0.199 -0.017,0.199 0.281,0.225 l 0.442,-0.463 -0.281,-0.225 3.881,-0.765 0.012,1.005 3.838,-0.267 -1.442,-0.728 2.906,0.054 -0.468,0.762 c 1.641,0.746 3.05,-0.436 5.016,0.037 l -0.229,-0.823 1.403,0.022 0.041,0.711 z"
   id="path14"
   inkscape:connector-curvature="0"
   style="fill:#84b414;fill-opacity:1" />
	<path
   d="m 1633.495,1052.161 c 0.255,0.524 -1.447,0.476 -1.403,-0.022 l 1.403,0.022 z"
   id="path16"
   inkscape:connector-curvature="0"
   style="fill:#84b414;fill-opacity:1" />
	<polygon
   points="1641.483,1052.659 1641.457,1052.958 1640.015,1052.23 "
   id="polygon18"
   style="fill:#84b414;fill-opacity:1" />
	<path
   d="m 1652.177,1053.193 -0.017,0.199 -0.862,-0.477 c 0.198,0.018 0.697,0.062 0.879,0.278 z"
   id="path20"
   inkscape:connector-curvature="0"
   style="fill:#84b414;fill-opacity:1" />
	<polygon
   points="1596.863,1054.377 1596.88,1054.178 1597.604,1053.94 "
   id="polygon22"
   style="fill:#84b414;fill-opacity:1" />
	<polygon
   points="1693.959,1058.656 1693.734,1058.937 1692.954,1058.668 1692.972,1058.469 "
   id="polygon24"
   style="fill:#84b414;fill-opacity:1" />
	<path
   d="m 1736.348,1066.379 c -0.017,0.199 -0.442,0.463 -0.75,0.537 0.225,-0.281 0.45,-0.563 0.75,-0.537 z"
   id="path26"
   inkscape:connector-curvature="0"
   style="fill:#84b414;fill-opacity:1" />
	<polygon
   points="1757.182,1072.619 1757.166,1072.818 1756.161,1072.831 1756.178,1072.631 "
   id="polygon28"
   style="fill:#84b414;fill-opacity:1" />
	<path
   d="m 1770.796,1074.212 -0.243,0.481 0.204,-1.187 c 0.1,0.01 0.555,0.55 0.039,0.706 z"
   id="path30"
   inkscape:connector-curvature="0"
   style="fill:#84b414;fill-opacity:1" />
	<polygon
   points="1773.464,1073.542 1773.448,1073.741 1772.759,1073.58 1772.785,1073.281 "
   id="polygon32"
   style="fill:#84b414;fill-opacity:1" />
	<path
   d="m 1774.651,1073.746 c -0.017,0.199 -0.498,-0.044 -0.905,0.021 0.2,0.017 0.642,-0.446 0.905,-0.021 z"
   id="path34"
   inkscape:connector-curvature="0"
   style="fill:#84b414;fill-opacity:1" />
	<path
   d="m 1775.613,1074.231 c -0.741,0.437 0.012,1.005 0.276,1.43 -0.68,-0.26 -0.949,0.519 -0.685,0.944 -0.463,-0.442 -1.667,-0.447 -1.403,-0.022 0.217,-0.182 0.187,-0.987 0.01,-1.204 -0.463,-0.442 -1.187,-0.204 -1.685,-0.248 0.667,-0.745 -0.68,-0.26 -0.42,-0.94 1.316,1.018 2.481,0.317 3.912,0.04 v 0 z"
   id="path36"
   inkscape:connector-curvature="0"
   style="fill:#84b414;fill-opacity:1" />
	<polygon
   points="1777.978,1074.739 1778.06,1074.947 1777.514,1074.297 "
   id="polygon38"
   style="fill:#84b414;fill-opacity:1" />
	<path
   d="m 1780.463,1076.161 c -0.468,0.762 -2.872,-0.452 -2.132,1.42 1.143,0.702 1.728,-0.25 2.651,-0.471 l -0.255,-0.524 c 1.486,0.23 1.227,-1.398 2.408,0.01 l -0.667,0.745 c 0.199,0.017 -0.017,0.199 -0.044,0.498 -0.238,-0.723 -1.486,-0.23 -1.928,0.233 1.662,1.651 2.413,-1.194 4.072,-0.648 0.447,-1.667 1.667,0.447 2.153,-0.514 l -0.225,0.281 c 0.519,0.949 1.43,-0.276 2.127,-0.215 -0.949,0.519 -0.022,1.403 0.034,1.91 -2.625,0.172 -4.083,-2.666 -5.496,-0.28 1.68,1.452 0.685,-0.944 2.452,-0.488 l -1.166,0.701 6.28,1.654 0.243,-0.481 12.196,2.874 1.408,-1.182 c -1.651,1.662 0.9,1.183 1.437,1.933 3.855,-0.466 8.181,1.72 11.776,1.934 2.573,0.426 6.241,0.948 9.13,1.2 6.678,1.688 13.196,4.066 20.845,3.831 -1.667,-0.447 -4.523,1.21 -6.021,-0.025 -2.209,0.01 -5.977,-0.523 -7.887,-0.489 -0.956,-1.69 -3.331,0.21 -5.037,-0.943 0.199,0.017 -0.039,-0.706 0.269,-0.78 1.005,-0.012 1.966,0.473 2.59,0.227 -1.243,-0.711 -3.347,-1.899 -4.474,-0.492 -2.132,1.42 -4.287,-1.479 -6.302,-0.25 l -0.745,-0.667 c -0.217,0.182 -0.26,0.68 -0.767,0.736 -0.752,-2.876 -3.889,-1.444 -5.518,-1.185 l 0.225,-0.281 c -1.005,0.012 -2.122,-0.989 -2.634,0.271 l -0.498,-0.044 c -0.255,-0.524 0.442,-0.463 0.486,-0.961 -0.463,-0.442 -1.005,0.012 -1.685,-0.248 l 0.519,0.949 c -0.762,-0.468 -0.719,-0.966 -1.884,-0.265 l -0.498,-0.044 c 0.243,-0.481 0.667,-0.745 0.529,-1.459 -0.225,0.281 -1.386,-0.222 -1.473,0.775 l -0.017,0.199 -0.719,-0.966 c -0.286,0.979 -0.706,0.039 -1.503,-0.031 -1.667,-0.447 -3.574,0.691 -5.054,-0.743 0.923,-0.22 1.641,0.746 2.664,0.534 -0.22,-0.923 -2.603,-1.232 -3.634,-0.92 -1.01,1.217 -2.122,-0.989 -3.833,-0.938 l -0.685,0.944 -0.736,-0.767 0.442,-0.463 0.264,0.425 c 1.408,-1.182 3.569,0.513 5.016,0.037 -3.347,-1.899 -7.87,-0.689 -10.802,-0.443 l -0.212,-1.022 -0.524,0.255 c -0.42,-0.94 -2.447,-0.716 -3.612,-0.015 0.26,-0.68 -2.148,-0.69 -2.884,-1.457 l -1.23,0.294 c 0.928,-1.425 2.915,-0.046 4.362,-0.522 l -0.044,0.498 3.868,0.539 c -4.607,-2.411 -11.252,-2.189 -16.726,-3.873 1.464,-0.675 4.088,1.462 5.947,-0.283 l -1.667,-0.447 1.928,-0.233 -0.493,-1.248 c 0.176,1.42 2.328,0.906 3.39,1.4 z"
   id="path40"
   inkscape:connector-curvature="0"
   style="fill:#84b414;fill-opacity:1" />
	<path
   d="m 1773.454,1075.95 c -0.498,-0.044 -1.464,0.675 -1.486,-0.23 l 1.486,0.23 z"
   id="path42"
   inkscape:connector-curvature="0"
   style="fill:#84b414;fill-opacity:1" />
	<path
   d="m 1790.229,1078.12 c 1.641,0.746 3.595,0.214 4.513,1.198 2.418,-2.398 2.36,1.712 5.054,0.743 0.984,-0.918 1.403,0.022 2.669,-0.67 0.463,0.442 0.021,0.905 -0.286,0.979 0.437,0.741 2.188,-0.913 1.923,0.971 -0.979,-0.286 -1.966,-0.473 -3.17,-0.478 l 0.944,0.685 -1.91,0.034 0.724,-0.238 c -0.255,-0.524 -0.519,-0.949 -1.143,-0.702 -0.498,-0.044 -1.707,1.156 -2.651,0.471 l 0.949,-0.519 c -0.493,-1.248 -2.165,-0.491 -3.109,-1.175 l -0.044,0.498 1.243,0.711 c -1.667,-0.447 -5.722,10e-4 -7.215,-2.438 l 1.391,-0.983 0.118,0.913 z"
   id="path44"
   inkscape:connector-curvature="0"
   style="fill:#84b414;fill-opacity:1" />
	<polygon
   points="1792.4,1077.407 1792.365,1077.805 1791.901,1077.363 "
   id="polygon46"
   style="fill:#84b414;fill-opacity:1" />
	<path
   d="m 1773.682,1079.082 c 0.425,-0.264 1.187,0.204 1.447,-0.476 l 4.838,0.925 c -0.524,0.255 -1.166,0.701 -1.889,0.939 l 0.01,-1.204 c -2.153,0.514 -1.949,-0.672 -3.357,0.509 -1.425,-0.928 -4.799,-0.219 -4.525,-2.203 1.377,0.322 3.487,0.305 3.481,1.51 v 0 z"
   id="path48"
   inkscape:connector-curvature="0"
   style="fill:#84b414;fill-opacity:1" />
	<polygon
   points="1799.629,1078.541 1799.603,1078.84 1798.425,1078.536 "
   id="polygon50"
   style="fill:#84b414;fill-opacity:1" />
	<path
   d="m 1813.223,1082.641 -0.017,0.199 c -0.984,0.918 -2.148,-0.69 -3.612,-0.015 -0.9,-1.183 -3.153,-0.677 -4.794,-1.423 l 1.421,-0.177 -0.039,-0.706 c 2.546,0.725 4.65,1.913 7.041,2.122 z"
   id="path52"
   inkscape:connector-curvature="0"
   style="fill:#84b414;fill-opacity:1" />
	<path
   d="m 1810.62,1081.41 -1.005,0.012 c 0.199,0.017 0.46,-0.662 0.94,-0.42 z"
   id="path54"
   inkscape:connector-curvature="0"
   style="fill:#84b414;fill-opacity:1" />
	<path
   d="m 1781.105,1081.438 -0.044,0.498 -0.437,-0.741 c 0.299,0.026 0.282,0.225 0.481,0.243 z"
   id="path56"
   inkscape:connector-curvature="0"
   style="fill:#84b414;fill-opacity:1" />
	<path
   d="m 1814.614,1081.659 c -0.702,1.143 -2.373,-0.408 -2.872,-0.452 l 2.872,0.452 z"
   id="path58"
   inkscape:connector-curvature="0"
   style="fill:#84b414;fill-opacity:1" />
	<path
   d="m 1786.828,1081.436 c -0.044,0.498 -0.468,0.762 -0.75,0.537 -0.173,-0.316 0.55,-0.554 0.75,-0.537 z"
   id="path60"
   inkscape:connector-curvature="0"
   style="fill:#84b414;fill-opacity:1" />
	<path
   d="m 1816.366,1083.418 -2.391,-0.209 0.044,-0.498 c 0.933,-0.32 1.569,0.438 2.347,0.707 z"
   id="path62"
   inkscape:connector-curvature="0"
   style="fill:#84b414;fill-opacity:1" />
	<polygon
   points="1796.477,1083.585 1796.459,1083.785 1795.771,1083.624 "
   id="polygon64"
   style="fill:#84b414;fill-opacity:1" />
	<path
   d="m 1813.998,1084.114 -1.005,0.012 c 0.243,-0.481 0.442,-0.463 0.94,-0.42 z"
   id="path66"
   inkscape:connector-curvature="0"
   style="fill:#84b414;fill-opacity:1" />
	<path
   d="m 1818.26,1083.584 c -0.217,0.182 -1.447,0.476 -1.005,0.012 l 1.005,-0.012 z"
   id="path68"
   inkscape:connector-curvature="0"
   style="fill:#84b414;fill-opacity:1" />
	<polygon
   points="1826.927,1084.342 1825.168,1083.787 1825.484,1083.614 "
   id="polygon70"
   style="fill:#84b414;fill-opacity:1" />
	<path
   d="m 1832.384,1086.225 c -0.468,0.762 -1.442,-0.728 -1.945,0.432 l 0.762,0.468 c -0.724,0.238 -2.156,-2.899 -2.872,-0.452 l -0.779,-0.269 0.199,0.017 c -2.161,-1.695 -6.236,-2.152 -9.286,-1.716 1.677,-1.961 4.353,-0.422 6.428,-0.04 2.698,0.137 5.145,0.853 7.493,1.56 z"
   id="path72"
   inkscape:connector-curvature="0"
   style="fill:#84b414;fill-opacity:1" />
	<polygon
   points="1821.823,1085.301 1821.906,1085.509 1821.126,1085.24 "
   id="polygon74"
   style="fill:#84b414;fill-opacity:1" />
	<path
   d="m 1832.869,1085.264 c -0.225,0.281 -0.017,0.199 -0.017,0.199 l -0.481,-0.243 0.498,0.044 z"
   id="path76"
   inkscape:connector-curvature="0"
   style="fill:#84b414;fill-opacity:1" />
	<path
   d="m 1835.052,1085.555 c -0.225,0.281 -0.442,0.463 -0.286,0.979 0.238,0.723 0.741,-0.437 0.68,0.26 -0.75,0.537 -2.365,-0.508 -3.158,0.527 0.096,-1.096 2.04,-1.528 2.764,-1.766 z"
   id="path78"
   inkscape:connector-curvature="0"
   style="fill:#84b414;fill-opacity:1" />
	<path
   d="m 1837.244,1085.747 c -0.243,0.481 -1.248,0.493 -1.43,0.276 0.17,-0.788 0.849,-0.528 1.43,-0.276 z"
   id="path80"
   inkscape:connector-curvature="0"
   style="fill:#84b414;fill-opacity:1" />
	<path
   d="m 1837.636,1086.986 c -0.26,0.68 -1.005,0.012 -1.629,0.259 l 0.243,-0.481 c 0.482,0.243 0.932,-0.32 1.386,0.222 z"
   id="path82"
   inkscape:connector-curvature="0"
   style="fill:#84b414;fill-opacity:1" />
	<path
   d="m 1840.046,1086.996 c -0.741,0.437 -0.905,0.021 -1.629,0.259 l 0.044,-0.498 c 0.381,0.234 1.103,0 1.585,0.239 z"
   id="path84"
   inkscape:connector-curvature="0"
   style="fill:#84b414;fill-opacity:1" />
	<path
   d="m 1826.603,1090.337 -19.608,-1.916 0.905,-0.021 -2.585,-1.431 0.225,-0.281 c 6.977,1.714 14.44,2.467 21.063,3.649 z"
   id="path86"
   inkscape:connector-curvature="0"
   style="fill:#84b414;fill-opacity:1" />
	<path
   d="m 1841.938,1087.161 -1.187,-0.204 c 0.226,-0.281 0.95,-0.519 1.187,0.204 z"
   id="path88"
   inkscape:connector-curvature="0"
   style="fill:#84b414;fill-opacity:1" />
	<polygon
   points="1817.538,1087.235 1815.918,1087.394 1816.36,1086.931 "
   id="polygon90"
   style="fill:#84b414;fill-opacity:1" />
	<polygon
   points="1841.469,1087.923 1840.266,1087.918 1841.016,1087.382 "
   id="polygon92"
   style="fill:#84b414;fill-opacity:1" />
	<path
   d="m 1846.793,1087.887 c -0.989,2.122 -3.088,-0.27 -4.518,0.01 1.366,-0.683 3.266,1.691 4.518,-0.01 z"
   id="path94"
   inkscape:connector-curvature="0"
   style="fill:#84b414;fill-opacity:1" />
	<path
   d="m 1837.952,1089.121 c -0.524,0.255 -0.238,-0.723 -0.294,-1.23 0.78,0.269 0.221,0.923 0.294,1.23 z"
   id="path96"
   inkscape:connector-curvature="0"
   style="fill:#84b414;fill-opacity:1" />
	<polygon
   points="1840.305,1088.624 1839.083,1088.819 1839.118,1088.42 "
   id="polygon98"
   style="fill:#84b414;fill-opacity:1" />
	<path
   d="m 1849.197,1089.101 -1.884,-0.265 c 0.359,-0.671 1.364,-0.684 1.884,0.265 z"
   id="path100"
   inkscape:connector-curvature="0"
   style="fill:#84b414;fill-opacity:1" />
	<polygon
   points="1843.392,1088.895 1841.464,1089.127 1842.188,1088.89 "
   id="polygon102"
   style="fill:#84b414;fill-opacity:1" />
	<polygon
   points="1808.944,1089.093 1807.697,1089.586 1807.74,1089.088 "
   id="polygon104"
   style="fill:#84b414;fill-opacity:1" />
	<polygon
   points="1813.917,1089.628 1812.795,1089.831 1812.739,1089.325 "
   id="polygon106"
   style="fill:#84b414;fill-opacity:1" />
	<path
   d="m 1846.827,1089.797 c -0.243,0.481 -1.222,0.194 -1.486,-0.23 0.498,0.044 1.221,-0.194 1.486,0.23 z"
   id="path108"
   inkscape:connector-curvature="0"
   style="fill:#84b414;fill-opacity:1" />
	<polygon
   points="1848.43,1089.837 1848.485,1090.344 1847.724,1089.876 "
   id="polygon110"
   style="fill:#84b414;fill-opacity:1" />
	<path
   d="m 1818.312,1091.017 -2.365,-0.508 c 0.621,-1.351 1.36,0.52 2.365,0.508 z"
   id="path112"
   inkscape:connector-curvature="0"
   style="fill:#84b414;fill-opacity:1" />
	<path
   d="m 1829.491,1090.59 c -0.299,-0.026 -1.209,1.199 -1.403,-0.022 0.443,-0.464 1.006,-0.013 1.403,0.022 z"
   id="path114"
   inkscape:connector-curvature="0"
   style="fill:#84b414;fill-opacity:1" />
	<path
   d="m 1823.765,1091.795 -0.905,0.021 0.26,-0.68 c -0.117,0.191 0.688,0.161 0.645,0.659 z"
   id="path116"
   inkscape:connector-curvature="0"
   style="fill:#84b414;fill-opacity:1" />
	<path
   d="m 1806.543,1091.292 c -0.741,0.437 -1.447,0.476 -2.127,0.215 0.641,-0.445 1.422,-0.176 2.127,-0.215 z"
   id="path118"
   inkscape:connector-curvature="0"
   style="fill:#84b414;fill-opacity:1" />
	<path
   d="m 1849.451,1091.934 -5.778,-0.506 c 1.435,-1.481 3.833,0.938 5.722,0 l 0.056,0.507 z"
   id="path120"
   inkscape:connector-curvature="0"
   style="fill:#84b414;fill-opacity:1" />
	<path
   d="m 1826.936,1092.273 -1.005,0.012 0.225,-0.281 -0.944,-0.685 c 0.706,-0.038 1.694,0.148 1.724,0.954 z"
   id="path122"
   inkscape:connector-curvature="0"
   style="fill:#84b414;fill-opacity:1" />
	<path
   d="m 1825.47,1092.948 c -0.199,-0.017 -0.961,-0.486 -1.222,0.194 l 5.773,1.71 c -2.408,-0.01 -5.743,-0.904 -7.44,-2.157 l 2.889,0.253 z"
   id="path124"
   inkscape:connector-curvature="0"
   style="fill:#84b414;fill-opacity:1" />
	<path
   d="m 1832.587,1095.377 -1.91,0.034 0.044,-0.498 c 0.488,0.143 1.41,-0.077 1.866,0.464 z"
   id="path126"
   inkscape:connector-curvature="0"
   style="fill:#84b414;fill-opacity:1" />
	<path
   d="m 1843.642,1098.654 -5.28,-0.462 0.044,-0.498 c 2.382,0.308 3.145,0.777 5.236,0.96 z"
   id="path128"
   inkscape:connector-curvature="0"
   style="fill:#84b414;fill-opacity:1" />
	<path
   d="m 1863.55,1100.596 c -0.677,3.153 3.116,5.693 -0.433,8.394 -2.911,1.151 -3.87,4.078 -6.764,5.03 -0.049,1.702 -1.396,2.187 -2.817,2.363 l -5.799,-1.411 c -2.843,2.662 -5.958,5 -8.883,7.454 l 0.255,0.524 -1.43,0.276 c 1,1.192 -1.469,1.879 -1.955,2.84 -1.685,-0.248 -0.473,1.966 -2.175,1.918 0.182,0.217 0.481,0.243 0.987,0.187 -0.723,0.238 -1.434,1.481 -1.954,0.532 -1.166,0.701 -0.534,2.664 -2.656,1.675 l -0.044,0.498 c -0.463,-0.442 -1.403,-0.022 -1.166,0.701 -0.243,0.481 0.463,0.442 0.437,0.741 0.243,-0.481 1.248,-0.493 1.646,-0.458 l -2.904,3.36 -0.22,-0.923 c -0.762,-0.468 -1.672,0.757 -1.408,1.182 0.481,0.243 0.905,-0.021 1.403,0.022 l -1.651,1.662 c -0.238,-0.723 -0.979,-0.286 -1.204,-0.01 l 0.537,0.75 -2.434,0.289 c 1.498,1.235 -0.733,2.646 -1.656,2.867 -0.524,0.255 -0.767,0.736 -0.984,0.918 l 0.463,0.442 -0.299,-0.026 -0.044,0.498 c -1.204,0 -2.634,0.271 -3.561,1.696 l 1.187,0.204 -1.447,0.476 0.762,0.468 c -0.498,-0.044 -0.741,0.437 -0.685,0.944 -0.498,-0.044 -1.928,0.233 -2.669,0.67 -0.017,0.199 0.264,0.425 0.238,0.723 l -0.442,0.463 c -0.238,-0.723 -0.961,-0.486 -1.468,-0.43 l 1,1.192 c -0.933,2.629 -3.352,-0.695 -4.54,1.41 0.519,0.949 2.153,-0.514 1.905,1.171 -0.923,0.22 -1.171,1.905 -2.413,1.194 -0.701,-1.166 -2.881,1.956 -4.076,-0.457 -0.706,0.039 -2.214,1.212 -0.928,1.425 -0.42,-0.94 -1.646,0.458 -2.37,0.696 l 0.519,0.949 -2.132,1.42 c 1.459,0.529 1.889,-0.939 2.838,-1.458 l 0.01,-1.204 c 0.476,1.447 1.43,-0.276 1.954,-0.532 1.966,0.473 4.081,-0.747 5.965,-0.482 l -0.724,0.238 0.463,0.442 c -1.01,1.217 -3.071,-0.469 -4.081,0.747 0.281,0.225 0.463,0.442 0.437,0.741 -0.498,-0.044 -1.36,-0.52 -1.706,-1.153 l -1.634,1.463 0.879,0.278 -1.148,0.502 c 0.238,0.723 1.403,0.022 2.209,-0.01 l -0.017,0.199 1.685,0.248 c -2.188,0.913 -3.323,2.42 -5.775,2.908 l 0.248,-1.685 c -1.187,-0.204 -1.469,1.879 -2.639,1.476 -0.966,0.719 -2.916,2.355 -4.341,1.427 0.524,-0.255 1.403,0.022 1.174,-0.801 -0.745,-0.667 -1.43,0.276 -2.352,0.497 l -0.044,0.498 c -1.264,-1.616 -2.197,1.012 -3.137,1.432 0.961,0.486 1.872,-0.74 3.149,-0.427 l -2.375,1.9 c 0.442,-0.463 -0.502,-1.148 -1.199,-1.209 -1.005,0.012 -1.746,0.45 -2.183,-0.291 l -2.639,1.476 c 1,1.192 1.646,-0.458 2.915,-0.046 l -0.641,0.446 0.238,0.723 -0.425,0.264 -0.255,-0.524 c -0.949,0.519 -2.088,0.922 -3.154,1.631 l 1.017,0.992 c -2.148,-0.69 -4.259,1.635 -6.256,2.665 l -0.19,-0.117 c -0.933,2.629 -3.761,1.679 -4.975,4.082 -1.459,-0.529 -2.149,1.619 -4.059,1.652 -3.129,3.641 -8.366,2.681 -11.304,6.439 0.199,0.017 0.255,0.524 -0.044,0.498 -2.664,-0.534 -4.788,3.094 -7.92,3.322 0.772,-1.94 3.336,-1.415 4.264,-2.839 2.114,-1.22 5.295,-3.151 7.643,-4.752 0.498,0.044 0.949,-0.519 1.491,-0.974 -0.22,-0.923 -1.486,-0.23 -1.928,0.233 l 0.486,-0.961 c 8.393,-5.289 16.034,-13.454 24.227,-18.76 l 1.227,-1.398 c -3.899,0.964 -6.465,5.056 -10.264,6.028 2.392,-2.1 5.312,-3.35 6.163,-6.186 l 0.481,0.243 22.262,-21.542 0.238,0.723 1.37,-1.888 0.463,0.442 c -0.259,-1.629 1.391,-0.983 2.119,-2.425 4.3,-5.546 10.033,-10.265 14.116,-15.629 l 0.498,0.044 c -0.026,0.299 -0.225,0.281 -0.442,0.463 2.408,0.01 3.589,-4.304 6.261,-3.869 2.617,-2.381 5.235,-4.762 8.172,-6.211 l -0.944,-0.685 c 0.204,-1.187 1.43,-0.276 1.872,-0.74 l -0.32,-0.931 c 6.943,-0.196 11.967,-5.98 19.395,-4.828 1.877,-1.945 3.778,0.43 5.463,0.678 v 0 z"
   id="path130"
   inkscape:connector-curvature="0"
   style="fill:#84b414;fill-opacity:1" />
	<path
   d="m 1802.423,1157.886 c -0.199,-0.017 -0.966,0.719 -1.005,0.012 l 1.005,-0.012 z"
   id="path132"
   inkscape:connector-curvature="0"
   style="fill:#84b414;fill-opacity:1" />
	<path
   d="m 1795.953,1164.146 0.281,0.225 -2.838,1.458 -0.437,-0.741 c -1.192,1 -2.677,0.77 -3.86,1.67 0.264,0.425 0.788,0.169 0.987,0.187 -2.17,0.714 -3.38,1.913 -5.55,2.626 l 1.685,0.248 -3.158,0.527 c 0.012,1.005 -2.109,0.016 -1.127,1.407 1.187,0.204 2.669,-0.67 3.773,-0.674 -3.799,0.973 -7.659,2.642 -11.264,4.837 l 0.736,0.767 c -0.966,0.719 -1.386,-0.222 -2.625,0.172 0.493,1.248 -1.447,0.476 -1.933,1.437 -0.949,0.519 -1.95,1.636 -3.401,1.007 3.881,-0.765 6.041,-4.792 10.022,-5.548 l 6.963,-5.012 -0.243,0.481 c 1.928,-0.233 3.622,-2.393 5.031,-3.575 l 0.264,0.425 4.325,-3.537 c 1.624,0.945 2.651,-0.471 4.081,-0.747 0.022,-1.403 1.403,0.022 1.889,-0.939 0.949,1.79 -2.348,1.602 -3.601,3.299 z"
   id="path134"
   inkscape:connector-curvature="0"
   style="fill:#84b414;fill-opacity:1" />
	<polygon
   points="1796.465,1162.886 1793.328,1164.318 1795.958,1162.942 "
   id="polygon136"
   style="fill:#84b414;fill-opacity:1" />
	<path
   d="m 1789.053,1163.844 c 0.476,1.447 -0.949,0.519 -1.426,1.381 l -0.264,-0.425 c 0.98,0.287 0.659,-0.645 1.69,-0.956 z"
   id="path138"
   inkscape:connector-curvature="0"
   style="fill:#84b414;fill-opacity:1" />
	<polygon
   points="1795.255,1164.085 1795.229,1164.384 1794.832,1164.349 1794.75,1164.141 "
   id="polygon140"
   style="fill:#84b414;fill-opacity:1" />
	<polygon
   points="1787.784,1165.74 1787.839,1166.247 1787.177,1165.788 "
   id="polygon142"
   style="fill:#84b414;fill-opacity:1" />
	<path
   d="m 1790.948,1167.423 c -0.044,0.498 -1.127,1.407 -2.158,1.718 0.01,-1.204 1.253,-1.697 2.158,-1.718 z"
   id="path144"
   inkscape:connector-curvature="0"
   style="fill:#84b414;fill-opacity:1" />
	<polygon
   points="1781.159,1169.176 1781.141,1169.375 1780.661,1169.132 "
   id="polygon146"
   style="fill:#84b414;fill-opacity:1" />
	<path
   d="m 1788.592,1169.124 c -0.459,0.662 -1.209,1.199 -1.915,1.238 -0.039,-0.707 1.192,-1 1.915,-1.238 z"
   id="path148"
   inkscape:connector-curvature="0"
   style="fill:#84b414;fill-opacity:1" />
	<path
   d="m 1782.793,1173.435 -0.199,-0.017 c -0.463,-0.442 0.741,-0.437 0.91,-1.225 0.256,0.523 -0.186,0.987 -0.711,1.242 z"
   id="path150"
   inkscape:connector-curvature="0"
   style="fill:#84b414;fill-opacity:1" />
	<path
   d="m 1782.144,1173.98 c -3.336,1.415 -5.78,4.112 -9.597,5.284 3.526,-1.298 5.724,-4.619 9.597,-5.284 z"
   id="path152"
   inkscape:connector-curvature="0"
   style="fill:#84b414;fill-opacity:1" />
	<polygon
   points="1771.607,1179.684 1771.589,1179.883 1771.307,1179.657 "
   id="polygon154"
   style="fill:#84b414;fill-opacity:1" />
	<path
   d="m 1766.078,1180.906 0.463,0.442 c -0.667,0.745 -2.408,-0.01 -2.92,1.25 -0.215,-2.127 2.158,-1.718 3.566,-2.9 z"
   id="path156"
   inkscape:connector-curvature="0"
   style="fill:#84b414;fill-opacity:1" />
	<path
   d="m 1766.312,1182.834 3.822,-2.376 c -0.04,1.603 -2.675,1.874 -3.822,2.376 z"
   id="path158"
   inkscape:connector-curvature="0"
   style="fill:#84b414;fill-opacity:1" />
	<polygon
   points="1760.564,1180.826 1759.589,1181.644 1760.058,1180.882 "
   id="polygon160"
   style="fill:#84b414;fill-opacity:1" />
	<path
   d="m 1760.324,1184.719 c -2.127,0.215 -3.601,3.299 -5.533,2.427 l -0.039,-0.706 0.498,0.044 -0.225,0.281 c 0.481,0.243 1.702,0.049 1.473,-0.775 0.762,0.468 1.889,-0.939 2.413,-1.194 l -0.498,-0.044 c 0.26,-0.68 1.447,-0.476 1.872,-0.74 l 2.674,-1.874 c 0.442,1.847 -2.651,0.472 -2.635,2.581 z"
   id="path162"
   inkscape:connector-curvature="0"
   style="fill:#84b414;fill-opacity:1" />
	<path
   d="m 1765.853,1183.497 v 0 l -0.463,-0.442 c 0.199,0.017 0.381,0.234 0.463,0.442 z"
   id="path164"
   inkscape:connector-curvature="0"
   style="fill:#84b414;fill-opacity:1" />
	<path
   d="m 1765.103,1184.033 c 0.264,0.425 -0.425,0.264 -0.923,0.22 l 0.667,-0.745 0.256,0.525 z"
   id="path166"
   inkscape:connector-curvature="0"
   style="fill:#84b414;fill-opacity:1" />
	<path
   d="m 1763.639,1184.708 c -0.017,0.199 -0.243,0.481 -0.243,0.481 l 0.044,-0.498 0.199,0.017 z"
   id="path168"
   inkscape:connector-curvature="0"
   style="fill:#84b414;fill-opacity:1" />
	<path
   d="m 1762.689,1185.227 -0.243,0.481 -0.255,-0.524 c 10e-4,0 0.524,-0.255 0.498,0.043 z"
   id="path170"
   inkscape:connector-curvature="0"
   style="fill:#84b414;fill-opacity:1" />
	<polygon
   points="1749.214,1186.658 1748.329,1187.585 1748.516,1186.597 "
   id="polygon172"
   style="fill:#84b414;fill-opacity:1" />
	<path
   d="m 1754.831,1187.853 -0.044,0.498 c -1.442,-0.728 -3.137,1.432 -4.358,1.626 l 1.227,-1.398 c 0.026,-0.299 -0.498,-0.044 -0.281,-0.225 l 1.403,0.022 -0.762,-0.468 0.199,0.017 c 0.384,1.338 1.798,-1.047 2.616,-0.072 z"
   id="path174"
   inkscape:connector-curvature="0"
   style="fill:#84b414;fill-opacity:1" />
	<polygon
   points="1750.958,1188.518 1750.508,1189.08 1750.651,1188.591 "
   id="polygon176"
   style="fill:#84b414;fill-opacity:1" />
	<polygon
   points="1747.873,1191.661 1747.817,1191.154 1750.005,1190.241 "
   id="polygon178"
   style="fill:#84b414;fill-opacity:1" />
	<path
   d="m 1747.105,1192.396 c -0.498,-0.044 -0.923,0.22 -1.43,0.276 l 1.209,-1.199 c 0.183,0.217 0.239,0.724 0.221,0.923 z"
   id="path180"
   inkscape:connector-curvature="0"
   style="fill:#84b414;fill-opacity:1" />
	<path
   d="m 1745.203,1192.331 -0.498,-0.044 0.243,-0.481 c 0.516,-0.155 0.274,0.325 0.255,0.525 z"
   id="path182"
   inkscape:connector-curvature="0"
   style="fill:#84b414;fill-opacity:1" />
	<path
   d="m 1743.514,1193.287 -0.498,-0.044 0.26,-0.68 c 0.199,0.018 0.255,0.525 0.238,0.724 z"
   id="path184"
   inkscape:connector-curvature="0"
   style="fill:#84b414;fill-opacity:1" />
	<polygon
   points="1626.604,1102.251 1625.599,1102.263 1625.915,1102.09 "
   id="polygon186"
   style="fill:#84b414;fill-opacity:1" />
	<path
   d="m 1608.878,1105.217 c -0.442,0.463 -2.365,-0.508 -3.309,-1.193 l -0.238,-0.723 c 1.114,-0.103 2.555,0.625 3.547,1.916 z"
   id="path188"
   inkscape:connector-curvature="0"
   style="fill:#84b414;fill-opacity:1" />
	<polygon
   points="1631.865,1105.221 1631.647,1105.403 1628.964,1103.963 1629.289,1103.691 "
   id="polygon190"
   style="fill:#84b414;fill-opacity:1" />
	<path
   d="m 1771.829,1109.436 c -0.044,0.498 -0.923,0.22 -1.222,0.194 -0.461,-0.442 0.759,-0.636 1.222,-0.194 z"
   id="path192"
   inkscape:connector-curvature="0"
   style="fill:#84b414;fill-opacity:1" />
	<path
   d="m 1762.708,1110.444 c -0.017,0.199 -0.225,0.281 -0.442,0.463 l -0.281,-0.225 0.26,-0.68 1.667,0.447 -1.204,-0.01 v 0 z"
   id="path194"
   inkscape:connector-curvature="0"
   style="fill:#84b414;fill-opacity:1" />
	<path
   d="m 1760.499,1110.452 -0.225,0.281 -0.463,-0.442 c 0.432,-0.363 0.506,-0.056 0.688,0.161 z"
   id="path196"
   inkscape:connector-curvature="0"
   style="fill:#84b414;fill-opacity:1" />
	<polygon
   points="1764.834,1110.229 1765.115,1110.454 1764.136,1110.168 "
   id="polygon198"
   style="fill:#84b414;fill-opacity:1" />
	<polygon
   points="1759.094,1110.43 1759.078,1110.629 1757.891,1110.425 1757.909,1110.225 "
   id="polygon200"
   style="fill:#84b414;fill-opacity:1" />
	<path
   d="m 1755.457,1110.713 c 0.039,0.706 -1.166,0.701 -1.971,0.731 0.566,-0.753 1.29,-0.991 1.971,-0.731 z"
   id="path202"
   inkscape:connector-curvature="0"
   style="fill:#84b414;fill-opacity:1" />
	<path
   d="m 1753.113,1111.111 c -0.26,0.68 -0.905,0.021 -1.187,-0.204 0.499,0.043 0.906,-0.022 1.187,0.204 z"
   id="path204"
   inkscape:connector-curvature="0"
   style="fill:#84b414;fill-opacity:1" />
	<path
   d="m 1740.703,1111.832 -0.706,0.039 c -0.264,-0.425 0.243,-0.481 0.741,-0.437 z"
   id="path206"
   inkscape:connector-curvature="0"
   style="fill:#84b414;fill-opacity:1" />
	<path
   d="m 1748.552,1111.615 -0.017,0.199 -0.961,-0.486 c 0.497,0.044 0.752,0.569 0.978,0.287 z"
   id="path208"
   inkscape:connector-curvature="0"
   style="fill:#84b414;fill-opacity:1" />
	<path
   d="m 1739.391,1111.918 -2.669,0.67 c 0.542,-0.455 1.833,-1.446 2.669,-0.67 z"
   id="path210"
   inkscape:connector-curvature="0"
   style="fill:#84b414;fill-opacity:1" />
	<path
   d="m 1745.22,1111.826 c 0,0 -0.026,0.299 -0.225,0.281 l -0.199,-0.017 0.044,-0.498 c 0.098,0.01 0.398,0.034 0.38,0.234 z"
   id="path212"
   inkscape:connector-curvature="0"
   style="fill:#84b414;fill-opacity:1" />
	<polygon
   points="1747.147,1111.593 1747.322,1111.909 1746.144,1111.605 "
   id="polygon214"
   style="fill:#84b414;fill-opacity:1" />
	<path
   d="m 1734.894,1112.829 -0.706,0.039 c 0.017,-0.199 0.26,-0.68 0.741,-0.437 z"
   id="path216"
   inkscape:connector-curvature="0"
   style="fill:#84b414;fill-opacity:1" />
	<path
   d="m 1734.407,1113.791 c -0.276,-1.43 -1.884,-0.265 -3.153,-0.677 0.325,-0.273 3.402,-1.008 3.153,0.677 z"
   id="path218"
   inkscape:connector-curvature="0"
   style="fill:#84b414;fill-opacity:1" />
	<path
   d="m 1741.339,1112.59 c -1.227,1.398 -3.855,0.466 -5.501,0.924 0.928,-1.424 3.829,-0.167 5.501,-0.924 z"
   id="path220"
   inkscape:connector-curvature="0"
   style="fill:#84b414;fill-opacity:1" />
	<polygon
   points="1730.557,1113.052 1723.146,1114.01 1728.647,1113.086 "
   id="polygon222"
   style="fill:#84b414;fill-opacity:1" />
	<polygon
   points="1722.666,1113.767 1721.998,1114.512 1721.959,1113.806 "
   id="polygon224"
   style="fill:#84b414;fill-opacity:1" />
	<path
   d="m 1731.077,1114.001 c -0.225,0.281 -1.69,0.956 -2.426,0.189 -3.081,1.939 -7.169,0.477 -10.505,1.892 3.852,-1.57 8.37,-1.576 12.931,-2.081 z"
   id="path226"
   inkscape:connector-curvature="0"
   style="fill:#84b414;fill-opacity:1" />
	<polygon
   points="1720.296,1114.463 1716.432,1115.029 1718.784,1114.532 "
   id="polygon228"
   style="fill:#84b414;fill-opacity:1" />
	<path
   d="m 1707.578,1115.258 c -0.044,0.498 -1.447,0.476 -1.204,-0.01 l 1.204,0.01 z"
   id="path230"
   inkscape:connector-curvature="0"
   style="fill:#84b414;fill-opacity:1" />
	<path
   d="m 1717.177,1115.696 c -0.442,0.463 -1.447,0.476 -1.872,0.74 l -0.039,-0.706 c 0.506,-0.056 1.404,0.022 1.911,-0.034 z"
   id="path232"
   inkscape:connector-curvature="0"
   style="fill:#84b414;fill-opacity:1" />
	<path
   d="m 1714.3,1116.448 -4.098,0.946 c 0.724,-0.237 2.457,-1.692 4.098,-0.946 z"
   id="path234"
   inkscape:connector-curvature="0"
   style="fill:#84b414;fill-opacity:1" />
	<path
   d="m 1731.984,1117.393 c -0.035,0.398 -0.243,0.481 -0.468,0.762 l -0.238,-0.723 0.706,-0.039 z"
   id="path236"
   inkscape:connector-curvature="0"
   style="fill:#84b414;fill-opacity:1" />
	<path
   d="m 1725.024,1117.788 c -0.498,-0.044 -0.949,0.519 -1.629,0.259 0.261,-0.68 1.24,-0.393 1.629,-0.259 z"
   id="path238"
   inkscape:connector-curvature="0"
   style="fill:#84b414;fill-opacity:1" />
	<path
   d="m 1727.905,1118.14 c -0.017,0.199 -1.248,0.493 -1.945,0.432 0.54,-0.454 1.264,-0.692 1.945,-0.432 z"
   id="path240"
   inkscape:connector-curvature="0"
   style="fill:#84b414;fill-opacity:1" />
	<path
   d="m 1729.416,1118.072 c -0.017,0.199 -0.425,0.264 -0.923,0.22 -0.047,-0.606 0.616,-0.147 0.923,-0.22 z"
   id="path242"
   inkscape:connector-curvature="0"
   style="fill:#84b414;fill-opacity:1" />
	<path
   d="m 1731.979,1118.597 c -0.905,0.021 -1.945,0.432 -2.833,0.254 0.75,-0.536 1.928,-0.232 2.833,-0.254 z"
   id="path244"
   inkscape:connector-curvature="0"
   style="fill:#84b414;fill-opacity:1" />
	<path
   d="m 1715.251,1119.342 c -0.442,0.463 -1.646,0.458 -2.37,0.696 0.187,-0.987 1.646,-0.458 2.37,-0.696 z"
   id="path246"
   inkscape:connector-curvature="0"
   style="fill:#84b414;fill-opacity:1" />
	<path
   d="m 1685.541,1120.457 c -4.528,2.415 -10.306,1.909 -15.353,3.375 4.321,-2.333 10.28,-1.61 15.353,-3.375 z"
   id="path248"
   inkscape:connector-curvature="0"
   style="fill:#84b414;fill-opacity:1" />
	<polygon
   points="1694.688,1121.458 1694.888,1121.476 1693.728,1120.972 "
   id="polygon250"
   style="fill:#84b414;fill-opacity:1" />
	<path
   d="m 1667.339,1124.285 c -0.468,0.762 -1.248,0.493 -1.646,0.458 l 1.209,-1.199 0.437,0.741 z"
   id="path252"
   inkscape:connector-curvature="0"
   style="fill:#84b414;fill-opacity:1" />
	<path
   d="m 1658.254,1126 c 1.408,-1.182 4.523,-1.21 6.45,-1.443 l -6.45,1.443 z"
   id="path254"
   inkscape:connector-curvature="0"
   style="fill:#84b414;fill-opacity:1" />
	<path
   d="m 1656.344,1126.034 c 0.039,0.706 -0.949,0.519 -1.447,0.476 0.243,-0.481 0.948,-0.52 1.447,-0.476 z"
   id="path256"
   inkscape:connector-curvature="0"
   style="fill:#84b414;fill-opacity:1" />
	<polygon
   points="1632.38,1129.157 1631.159,1129.351 1631.401,1128.871 "
   id="polygon258"
   style="fill:#84b414;fill-opacity:1" />
	<polygon
   points="1633.823,1129.885 1632.782,1130.296 1632.818,1129.898 "
   id="polygon260"
   style="fill:#84b414;fill-opacity:1" />
	<polygon
   points="1627.785,1130.06 1626.853,1130.38 1626.797,1129.873 "
   id="polygon262"
   style="fill:#84b414;fill-opacity:1" />
	<path
   d="m 1632.375,1130.361 -0.723,0.238 -0.255,-0.524 c 0.498,0.043 0.723,-0.238 0.978,0.286 z"
   id="path264"
   inkscape:connector-curvature="0"
   style="fill:#84b414;fill-opacity:1" />
	<path
   d="m 1630.854,1130.529 -1.954,0.532 c 0.608,-0.047 1.094,-1.009 1.954,-0.532 z"
   id="path266"
   inkscape:connector-curvature="0"
   style="fill:#84b414;fill-opacity:1" />
	<path
   d="m 1627.03,1131.801 0.706,-0.039 c -0.442,0.463 -1.192,1 -2.17,0.714 l 1.464,-0.675 c -0.281,-0.225 -0.498,-0.044 -0.498,-0.044 0.26,-0.68 1.43,-0.276 1.889,-0.939 z"
   id="path268"
   inkscape:connector-curvature="0"
   style="fill:#84b414;fill-opacity:1" />
	<path
   d="m 1624.167,1131.249 c 0.281,0.225 0.255,0.524 0.22,0.923 l 0.979,0.286 c -1.452,1.68 -2.421,-1.015 -3.401,1.007 -0.039,-0.706 -0.25,-1.728 0.772,-1.94 l -3.656,0.483 c 1.192,-1 2.894,-0.951 4.137,-0.24 0.061,-0.697 0.724,-0.238 0.949,-0.519 z"
   id="path270"
   inkscape:connector-curvature="0"
   style="fill:#84b414;fill-opacity:1" />
	<path
   d="m 1634.026,1131.007 c 0.238,0.723 -0.442,0.463 -0.767,0.736 l -0.039,-0.706 0.806,-0.03 z"
   id="path272"
   inkscape:connector-curvature="0"
   style="fill:#84b414;fill-opacity:1" />
	<path
   d="m 1496.739,1131.745 -1.91,0.034 0.044,-0.498 c 0.622,-0.247 1.185,0.204 1.866,0.464 z"
   id="path274"
   inkscape:connector-curvature="0"
   style="fill:#84b414;fill-opacity:1" />
	<path
   d="m 1628.238,1132.91 c 0.767,-0.736 2.838,-1.458 4.523,-1.21 l -4.523,1.21 z"
   id="path276"
   inkscape:connector-curvature="0"
   style="fill:#84b414;fill-opacity:1" />
	<polygon
   points="1618.176,1132.03 1616.755,1132.207 1617.479,1131.969 "
   id="polygon278"
   style="fill:#84b414;fill-opacity:1" />
	<path
   d="m 1619.881,1133.183 -0.01,1.204 4.605,-1.002 c -1.872,0.74 -4.341,1.427 -6.511,2.141 l 1.707,-1.156 c -0.182,-0.217 -0.498,-0.044 -0.68,-0.26 0,0 0.741,-0.437 0.667,-0.745 l -4.822,1.184 c 1.64,-0.359 3.603,-3.299 5.039,-1.366 v 0 z"
   id="path280"
   inkscape:connector-curvature="0"
   style="fill:#84b414;fill-opacity:1" />
	<path
   d="m 1616.786,1133.012 c -0.26,0.68 -2.153,0.514 -3.093,0.934 0.672,-1.948 2.407,0.01 3.093,-0.934 z"
   id="path282"
   inkscape:connector-curvature="0"
   style="fill:#84b414;fill-opacity:1" />
	<polygon
   points="1612.912,1133.677 1612.93,1133.478 1613.172,1132.997 1613.453,1133.223 "
   id="polygon284"
   style="fill:#84b414;fill-opacity:1" />
	<path
   d="m 1622.545,1136.026 c 2.894,-0.951 6.412,-2.149 9.825,-2.152 l -9.825,2.152 z"
   id="path286"
   inkscape:connector-curvature="0"
   style="fill:#84b414;fill-opacity:1" />
	<polygon
   points="1636.164,1134.105 1625.607,1136.595 1635.656,1134.162 "
   id="polygon288"
   style="fill:#84b414;fill-opacity:1" />
	<polygon
   points="1610.119,1134.637 1609.82,1134.611 1610.561,1134.174 1610.742,1134.391 "
   id="polygon290"
   style="fill:#84b414;fill-opacity:1" />
	<path
   d="m 1606.479,1134.921 0.425,-0.264 z"
   id="path292"
   inkscape:connector-curvature="0"
   style="fill:#84b414;fill-opacity:1" />
	<path
   d="m 1602.139,1136.349 -0.199,-0.017 1.183,-0.9 c 0.246,0.623 -0.477,0.86 -0.984,0.917 z"
   id="path294"
   inkscape:connector-curvature="0"
   style="fill:#84b414;fill-opacity:1" />
	<path
   d="m 1512.78,1136.561 -2.122,-0.989 c 0.905,-0.021 1.884,0.266 2.122,0.989 z"
   id="path296"
   inkscape:connector-curvature="0"
   style="fill:#84b414;fill-opacity:1" />
	<polygon
   points="1637.358,1136.519 1635.928,1136.795 1638.297,1136.099 "
   id="polygon298"
   style="fill:#84b414;fill-opacity:1" />
	<polygon
   points="1513.928,1136.059 1513.984,1136.566 1513.222,1136.098 "
   id="polygon300"
   style="fill:#84b414;fill-opacity:1" />
	<polygon
   points="1616.268,1137.785 1616.068,1137.768 1616.818,1137.231 1617.016,1137.249 "
   id="polygon302"
   style="fill:#84b414;fill-opacity:1" />
	<path
   d="m 1640.203,1137.27 c -0.741,0.437 -1.192,1 -2.17,0.714 0.524,-0.256 1.472,-0.775 2.17,-0.714 z"
   id="path304"
   inkscape:connector-curvature="0"
   style="fill:#84b414;fill-opacity:1" />
	<polygon
   points="1621.79,1137.767 1621.266,1138.022 1621.591,1137.749 "
   id="polygon306"
   style="fill:#84b414;fill-opacity:1" />
	<path
   d="m 1637.651,1137.749 c -2.855,1.657 -7.473,1.655 -10.99,2.853 l -0.044,0.498 c -2.85,0.453 -7.156,1.482 -8.885,1.732 6.278,-1.759 13.214,-4.164 19.919,-5.083 z"
   id="path308"
   inkscape:connector-curvature="0"
   style="fill:#84b414;fill-opacity:1" />
	<path
   d="m 1604.784,1139.391 -0.706,0.039 c 0.042,-0.499 0.425,-0.265 0.706,-0.039 z"
   id="path310"
   inkscape:connector-curvature="0"
   style="fill:#84b414;fill-opacity:1" />
	<polygon
   points="1620.884,1140.096 1613.683,1142.077 1620.113,1139.728 "
   id="polygon312"
   style="fill:#84b414;fill-opacity:1" />
	<path
   d="m 1628.285,1141.547 c -1.222,0.194 -0.728,1.442 -2.413,1.194 0.503,-1.16 1.465,-0.675 2.413,-1.194 z"
   id="path314"
   inkscape:connector-curvature="0"
   style="fill:#84b414;fill-opacity:1" />
	<path
   d="m 1619.875,1144.726 0.26,-0.68 -0.979,-0.286 c 1.945,-0.432 3.838,-0.267 5.8,-0.898 z"
   id="path316"
   inkscape:connector-curvature="0"
   style="fill:#84b414;fill-opacity:1" />
	<polygon
   points="1537.211,1143.015 1537.466,1143.539 1536.505,1143.054 "
   id="polygon318"
   style="fill:#84b414;fill-opacity:1" />
	<polygon
   points="1582.699,1143.983 1582.5,1143.966 1582.483,1144.165 1582.781,1144.191 "
   id="polygon320"
   style="fill:#84b414;fill-opacity:1" />
	<path
   d="m 1619.594,1144.501 c -0.217,0.182 -0.923,0.22 -1.447,0.476 0.343,-0.472 0.768,-0.736 1.447,-0.476 z"
   id="path322"
   inkscape:connector-curvature="0"
   style="fill:#84b414;fill-opacity:1" />
	<polygon
   points="1608.891,1146.375 1607.388,1146.344 1607.405,1146.145 "
   id="polygon324"
   style="fill:#84b414;fill-opacity:1" />
	<path
   d="m 1603.12,1148.079 c 0.486,-0.961 1.928,-0.233 2.431,-1.393 l 0.463,0.442 -2.894,0.951 z"
   id="path326"
   inkscape:connector-curvature="0"
   style="fill:#84b414;fill-opacity:1" />
	<path
   d="m 1533.089,1155.704 c 5.489,-1.929 8.869,-3.842 14.396,-5.065 -3.985,1.961 -9.276,3.907 -14.396,5.065 z"
   id="path328"
   inkscape:connector-curvature="0"
   style="fill:#84b414;fill-opacity:1" />
	<path
   d="m 1508.911,1162.422 c -0.442,0.463 -1.447,0.476 -1.872,0.74 0.243,-0.481 1.149,-0.502 1.872,-0.74 z"
   id="path330"
   inkscape:connector-curvature="0"
   style="fill:#84b414;fill-opacity:1" />
	<path
   d="m 1506.333,1163.201 c -0.524,0.255 -0.984,0.918 -1.464,0.675 0.027,-0.299 0.984,-0.918 1.464,-0.675 z"
   id="path332"
   inkscape:connector-curvature="0"
   style="fill:#84b414;fill-opacity:1" />
	<path
   d="m 1548.227,1166.264 c -0.944,-0.685 -0.923,0.22 -1.603,-0.04 -0.984,0.918 -2.656,1.675 -4.766,1.691 -0.498,-0.044 -1.178,-0.304 -0.918,-0.984 2.651,-0.471 4.766,-1.691 7.659,-2.642 0.88,0.277 -0.329,1.476 -0.372,1.975 z"
   id="path334"
   inkscape:connector-curvature="0"
   style="fill:#84b414;fill-opacity:1" />
	<polygon
   points="1519.462,1165.755 1519.28,1165.538 1520.003,1165.3 1519.985,1165.499 "
   id="polygon336"
   style="fill:#84b414;fill-opacity:1" />
	<path
   d="m 1491.206,1168.603 -0.199,-0.017 0.685,-0.944 c -0.027,0.298 0.21,1.022 -0.486,0.961 z"
   id="path338"
   inkscape:connector-curvature="0"
   style="fill:#84b414;fill-opacity:1" />
	<polygon
   points="1489.776,1168.879 1489.035,1169.316 1489.577,1168.862 "
   id="polygon340"
   style="fill:#84b414;fill-opacity:1" />
	<path
   d="m 1488.546,1169.173 c 0.264,0.425 -0.442,0.463 -0.767,0.736 0.052,-0.598 0.268,-0.779 0.767,-0.736 z"
   id="path342"
   inkscape:connector-curvature="0"
   style="fill:#84b414;fill-opacity:1" />
	<path
   d="m 1486.232,1170.376 c -0.017,0.199 -0.923,0.22 -0.68,-0.26 0.199,0.017 0.624,-0.247 0.68,0.26 z"
   id="path344"
   inkscape:connector-curvature="0"
   style="fill:#84b414;fill-opacity:1" />
	<path
   d="m 1484.062,1171.09 c -0.044,0.498 -0.524,0.255 -0.923,0.22 -0.056,-0.507 0.624,-0.247 0.923,-0.22 z"
   id="path346"
   inkscape:connector-curvature="0"
   style="fill:#84b414;fill-opacity:1" />
	<polygon
   points="1478.979,1172.954 1481.891,1171.803 "
   id="polygon348"
   style="fill:#84b414;fill-opacity:1" />
	<path
   d="m 1529.832,1172.283 c -0.199,-0.017 -0.442,0.463 -0.723,0.238 l 0.044,-0.498 c 0.197,0.017 0.424,-0.264 0.679,0.26 z"
   id="path350"
   inkscape:connector-curvature="0"
   style="fill:#84b414;fill-opacity:1" />
	<polygon
   points="1527.886,1172.715 1527.419,1173.477 1527.181,1172.754 "
   id="polygon352"
   style="fill:#84b414;fill-opacity:1" />
	<path
   d="m 1477.125,1173.494 c 0.463,0.442 -0.524,0.255 -0.949,0.519 -0.254,-0.524 0.651,-0.545 0.949,-0.519 z"
   id="path354"
   inkscape:connector-curvature="0"
   style="fill:#84b414;fill-opacity:1" />
	<path
   d="m 1474.938,1174.407 c -0.017,0.199 -0.217,0.182 -0.524,0.255 l 0.468,-0.762 c 0.299,0.026 0.254,0.524 0.056,0.507 z"
   id="path356"
   inkscape:connector-curvature="0"
   style="fill:#84b414;fill-opacity:1" />
	<path
   d="m 1473.716,1174.601 c -0.044,0.498 -1.464,0.675 -1.187,-0.204 l 1.187,0.204 z"
   id="path358"
   inkscape:connector-curvature="0"
   style="fill:#84b414;fill-opacity:1" />
	<polygon
   points="1471.381,1174.899 1471.546,1175.315 1470.576,1174.929 "
   id="polygon360"
   style="fill:#84b414;fill-opacity:1" />
	<polygon
   points="1472.568,1175.103 1472.044,1175.358 1471.763,1175.133 "
   id="polygon362"
   style="fill:#84b414;fill-opacity:1" />
	<path
   d="m 1467.305,1176.751 c -0.044,0.498 -0.767,0.736 -1.447,0.476 0.215,-0.182 0.913,-0.121 1.447,-0.476 z"
   id="path364"
   inkscape:connector-curvature="0"
   style="fill:#84b414;fill-opacity:1" />
	<path
   d="m 1463.235,1178.503 c 0.481,0.243 -0.225,0.281 -0.243,0.481 l -0.255,-0.524 0.498,0.043 z"
   id="path366"
   inkscape:connector-curvature="0"
   style="fill:#84b414;fill-opacity:1" />
	<polygon
   points="1460.841,1179.498 1459.619,1179.692 1459.562,1179.185 "
   id="polygon368"
   style="fill:#84b414;fill-opacity:1" />
	<path
   d="m 1455.277,1181.119 c 0.255,0.524 -0.225,0.281 -0.468,0.762 -0.481,-0.243 0.188,-0.987 0.468,-0.762 z"
   id="path370"
   inkscape:connector-curvature="0"
   style="fill:#84b414;fill-opacity:1" />
	<path
   d="m 1452.622,1182.794 -0.498,-0.044 0.243,-0.481 c 0.272,0.326 0.255,0.525 0.255,0.525 z"
   id="path372"
   inkscape:connector-curvature="0"
   style="fill:#84b414;fill-opacity:1" />
	<polygon
   points="1451.219,1182.772 1450.75,1183.534 1450.712,1182.828 "
   id="polygon374"
   style="fill:#84b414;fill-opacity:1" />
	<polygon
   points="1446.67,1184.281 1447.133,1184.723 1446.188,1184.038 "
   id="polygon376"
   style="fill:#84b414;fill-opacity:1" />
	<path
   d="m 1444.222,1185.874 -0.706,0.039 0.26,-0.68 c 0.208,-0.083 0.264,0.424 0.446,0.641 z"
   id="path378"
   inkscape:connector-curvature="0"
   style="fill:#84b414;fill-opacity:1" />
	<path
   d="m 1660.126,1189.505 -0.034,-1.91 c 0.283,0.225 0.294,1.23 0.034,1.91 z"
   id="path380"
   inkscape:connector-curvature="0"
   style="fill:#84b414;fill-opacity:1" />
	<path
   d="m 1429.665,1191.627 -0.498,-0.044 c 0.026,-0.299 0.243,-0.481 0.524,-0.255 z"
   id="path382"
   inkscape:connector-curvature="0"
   style="fill:#84b414;fill-opacity:1" />
	<path
   d="m 1616.813,1202.68 -0.044,0.498 -0.719,-0.966 c 0.425,-0.264 0.682,0.26 0.763,0.468 z"
   id="path384"
   inkscape:connector-curvature="0"
   style="fill:#84b414;fill-opacity:1" />
	<path
   d="m 1624.443,1207.262 -0.044,0.498 c -0.281,-0.225 -1.204,0 -0.736,-0.767 0.3,0.026 0.508,-0.056 0.78,0.269 z"
   id="path386"
   inkscape:connector-curvature="0"
   style="fill:#84b414;fill-opacity:1" />
	<path
   d="m 1539.129,1209.435 -1.888,-1.37 c 0.671,0.36 1.676,0.348 1.888,1.37 z"
   id="path388"
   inkscape:connector-curvature="0"
   style="fill:#84b414;fill-opacity:1" />
	<polygon
   points="1624.88,1208.003 1625.118,1208.727 1624.681,1207.986 "
   id="polygon390"
   style="fill:#84b414;fill-opacity:1" />
	<path
   d="m 1625.427,1212.066 -0.692,-1.265 c 0.697,0.061 0.437,0.741 0.692,1.265 z"
   id="path392"
   inkscape:connector-curvature="0"
   style="fill:#84b414;fill-opacity:1" />
	<polygon
   points="1552.045,1218.997 1552.027,1219.196 1546.581,1214.905 1546.78,1214.923 "
   id="polygon394"
   style="fill:#84b414;fill-opacity:1" />
	<path
   d="m 1484.76,1217.025 -0.044,0.498 c -0.281,-0.225 -1.178,-0.304 -0.437,-0.741 -0.025,0.299 0.174,0.317 0.481,0.243 z"
   id="path396"
   inkscape:connector-curvature="0"
   style="fill:#84b414;fill-opacity:1" />
	<polygon
   points="1466.066,1217.297 1466.265,1217.314 1465.078,1217.11 "
   id="polygon398"
   style="fill:#84b414;fill-opacity:1" />
	<path
   d="m 1474.196,1217.306 c -0.468,0.762 -1.728,0.25 -2.109,0.016 0.026,-0.299 1.346,-0.485 2.109,-0.016 z"
   id="path400"
   inkscape:connector-curvature="0"
   style="fill:#84b414;fill-opacity:1" />
	<polygon
   points="1467.469,1217.319 1467.552,1217.527 1467.071,1217.285 "
   id="polygon402"
   style="fill:#84b414;fill-opacity:1" />
	<path
   d="m 1470.883,1217.317 -1.43,0.276 0.026,-0.299 c 0.425,-0.263 0.879,0.278 1.404,0.023 z"
   id="path404"
   inkscape:connector-curvature="0"
   style="fill:#84b414;fill-opacity:1" />
	<path
   d="m 1461.547,1217.303 c -0.723,0.238 -1.889,0.939 -2.669,0.67 0.262,-0.68 1.903,0.066 2.669,-0.67 z"
   id="path406"
   inkscape:connector-curvature="0"
   style="fill:#84b414;fill-opacity:1" />
	<path
   d="m 1663.511,1218.51 -0.299,-0.026 -0.463,-0.442 c 0.225,-0.281 0.48,0.243 0.762,0.468 z"
   id="path408"
   inkscape:connector-curvature="0"
   style="fill:#84b414;fill-opacity:1" />
	<polygon
   points="1669.458,1218.227 1669.74,1218.453 1668.753,1218.266 "
   id="polygon410"
   style="fill:#84b414;fill-opacity:1" />
	<polygon
   points="1554.729,1220.437 1554.686,1220.935 1552.526,1219.24 "
   id="polygon412"
   style="fill:#84b414;fill-opacity:1" />
	<path
   d="m 1699.639,1222.072 -0.667,0.745 0.182,0.217 0.524,-0.255 c 2.667,1.639 7.453,3.162 8.625,6.978 0.458,1.646 1.614,3.353 3.112,4.589 -1.192,1 1.723,0.954 0.714,2.17 l -2.148,-0.69 -0.044,0.498 c -0.918,-0.984 -2.347,-0.707 -3.335,-0.894 -1.217,-1.01 -2.437,-3.124 -3.802,-2.441 1.161,0.503 0.276,1.43 0.995,2.396 -0.281,-0.225 -0.498,-0.044 -0.78,-0.269 l -0.225,0.281 c 0.182,0.217 0.745,0.667 0.502,1.148 -0.706,0.039 -1.425,-0.928 -1.884,-0.265 -1.481,-1.435 -1.228,-4.323 -2.652,-5.251 -0.182,-0.217 0.217,-0.182 0.243,-0.481 -0.68,-0.26 -1.243,-0.711 -1.481,-1.435 l 0.442,-0.463 -0.481,-0.243 -0.225,0.281 c -1.905,-1.171 -5.04,-4.356 -2.868,-7.378 l -0.039,-0.706 c 2.679,0.336 2.961,0.562 5.292,1.468 z"
   id="path414"
   inkscape:connector-curvature="0"
   style="fill:#84b414;fill-opacity:1" />
	<path
   d="m 1466.49,1265.216 -1.342,-0.72 c 0.482,0.244 1.422,-0.176 1.342,0.72 z"
   id="path416"
   inkscape:connector-curvature="0"
   style="fill:#84b414;fill-opacity:1" />
	<polygon
   points="1516.117,1265.944 1514.93,1265.74 1514.956,1265.441 "
   id="polygon418"
   style="fill:#84b414;fill-opacity:1" />
	<path
   d="m 1519.005,1266.197 -0.044,0.498 -0.706,0.039 -0.039,-0.706 c 0.309,-0.074 0.573,0.351 0.789,0.169 z"
   id="path420"
   inkscape:connector-curvature="0"
   style="fill:#84b414;fill-opacity:1" />
	<path
   d="m 1473.771,1268.062 c -0.723,0.238 -2.391,-0.209 -3.127,-0.976 1.161,0.503 2.365,0.508 3.127,0.976 z"
   id="path422"
   inkscape:connector-curvature="0"
   style="fill:#84b414;fill-opacity:1" />
	<path
   d="m 1524.042,1267.14 c -0.225,0.281 0.455,0.542 0.039,0.706 l -0.706,0.039 c -0.563,-0.451 0.468,-0.763 0.667,-0.745 z"
   id="path424"
   inkscape:connector-curvature="0"
   style="fill:#84b414;fill-opacity:1" />
	<path
   d="m 1527.35,1268.333 -0.017,0.199 -0.662,-0.459 c 0.298,0.025 0.724,-0.239 0.679,0.26 z"
   id="path426"
   inkscape:connector-curvature="0"
   style="fill:#84b414;fill-opacity:1" />
	<path
   d="m 1529.36,1268.308 c 0.238,0.723 -1.204,0 -1.403,-0.022 l 1.403,0.022 z"
   id="path428"
   inkscape:connector-curvature="0"
   style="fill:#84b414;fill-opacity:1" />
	<polygon
   points="1531.907,1269.032 1532.206,1269.059 1530.015,1268.867 "
   id="polygon430"
   style="fill:#84b414;fill-opacity:1" />
	<path
   d="m 1489.608,1274.065 c -0.225,0.281 -0.442,0.463 -0.741,0.437 l -0.199,-0.017 c -0.065,-0.408 0.659,-0.646 0.94,-0.42 z"
   id="path432"
   inkscape:connector-curvature="0"
   style="fill:#84b414;fill-opacity:1" />
	<polygon
   points="1480.937,1338.755 1480.893,1339.253 1480.43,1338.811 "
   id="polygon434"
   style="fill:#84b414;fill-opacity:1" />
	<path
   d="m 1517.604,1352.202 c -0.017,0.199 -0.243,0.481 -0.442,0.463 l -0.199,-0.017 c -0.083,-0.208 0.142,-0.489 0.641,-0.446 z"
   id="path436"
   inkscape:connector-curvature="0"
   style="fill:#84b414;fill-opacity:1" />
	<path
   d="m 1514.428,1352.928 c -0.741,0.437 -1.672,0.757 -2.651,0.471 0.723,-0.238 1.747,-0.45 2.651,-0.471 z"
   id="path438"
   inkscape:connector-curvature="0"
   style="fill:#84b414;fill-opacity:1" />
	<path
   d="m 1605.547,1375.054 0.013,-49.487 -34.331,0.01 0.031,22.589 h 6.926 l 0.018,7.831 c -1.629,0.259 -4.245,0.331 -5.558,0.417 -7.931,0.01 -9.784,-1.759 -9.769,-21.433 -0.011,-19.375 2.103,-20.595 11.238,-20.599 5.722,-10e-4 13.856,1.112 25.241,5.22 l 5.463,-25.722 c -14.69,-4.196 -23.846,-5.098 -30.573,-5.084 -29.207,-0.046 -42.399,13.054 -42.412,46.48 0.044,31.624 11.285,46.561 39.188,46.593 10.638,0.027 22.716,-2.63 34.525,-6.817 z m 87.671,-19.935 c -0.914,0.121 -1.928,0.233 -2.933,0.245 -2.209,0.01 -2.763,-0.543 -3.711,-2.332 l -5.885,-10.754 c 7.371,-5.077 11.997,-13.205 12.003,-24.748 -0.041,-20.18 -13.149,-27.551 -31.917,-27.587 l -38.949,0.01 v 90.645 l 28.809,0.011 -0.031,-30.619 3.214,-0.02 7.653,16.931 c 4.716,10.35 9.773,14.507 22.022,14.474 2.508,0.019 6.762,-0.412 9.803,-0.749 l -0.078,-25.502 z m -29.978,-34.845 c 0.031,6.528 -1.646,8.489 -5.566,8.547 l -7.125,-0.021 0.026,-16.36 7.532,-0.044 c 3.605,0.115 5.159,1.857 5.133,7.878 z m 79,-43.581 c 0.021,-7.125 -4.733,-10.151 -11.161,-10.111 -6.926,0 -11.233,3.334 -11.228,10.16 0,6.926 4.235,10.108 10.962,10.094 7.631,-0.035 11.458,-3.615 11.427,-10.143 z m 26.301,-0.01 c 0.021,-7.125 -4.534,-10.134 -11.161,-10.111 -6.826,0 -11.233,3.334 -11.228,10.16 0,6.926 4.335,10.116 11.161,10.111 7.333,-0.061 11.259,-3.632 11.228,-10.16 z m 12.04,68.912 0.047,-55.608 -28.51,0.015 0.022,57.119 c -0.021,7.125 -0.875,8.857 -8.209,8.919 -7.532,0.044 -8.181,-1.72 -8.151,-8.944 l -0.022,-57.119 h -29.814 l -0.047,55.608 c -0.038,31.416 16.809,36.203 37.288,36.188 25.695,0.038 37.42,-10.078 37.396,-36.18 z m 90.492,35.02 v -90.645 l -26.799,-0.036 0.012,27.405 c -0.024,3.712 0.208,7.948 0.583,11.695 l -1.503,-0.031 c -1.003,-4.605 -2.33,-8.937 -3.788,-11.775 l -12.46,-27.39 -30.312,-0.042 v 90.645 l 26.699,0.027 -0.017,-34.232 c 0,-3.413 -0.199,-8.048 -0.475,-11.786 l 1.503,0.031 c 0.747,4.081 2.265,8.53 3.689,11.766 l 15.571,34.288 z m 80.405,0.01 -1.252,-24.703 -32.521,-0.035 0.035,-8.429 29.008,0.028 0.043,-24.59 -29.008,-0.028 0.01,-8.13 31.516,0.047 -0.048,-24.698 -61.13,-0.028 v 90.645 l 63.348,-0.079 z"
   id="path440"
   inkscape:connector-curvature="0"
   style="fill:#ffffff" />
</g>
<g
   transform="matrix(0.09911761,0,0,-0.09911761,1140.2526,1653.3848)"
   id="g4839"><path
     inkscape:connector-curvature="0"
     id="path1304"
     style="fill:#84b414;fill-opacity:1;fill-rule:nonzero;stroke:none"
     d="M 3763.1197,2409.6398 V 1037.7492 h 7833.5893 l -0.03,1371.8932 -7833.5592,-3e-4" /><path
     inkscape:connector-curvature="0"
     id="path1306"
     style="fill:#ffffff;fill-opacity:1;fill-rule:nonzero;stroke:none"
     d="m 4559.6869,1264.5169 -18.5384,248.4311 h -254.6187 l -6e-4,657.5522 h -296.6386 v -905.9874 z m 731.6941,0 -12.3623,247.1982 h -325.0668 l 0.01,84.0494 h 290.4548 l 0.01,245.9654 -290.4648,0.01 -6e-4,81.5704 315.1794,3e-4 v 247.2003 h -611.8278 l 0.01,-905.9883 z m 753.9427,296.6384 c 0.01,153.2626 -82.8039,227.4223 -200.2238,262.0378 l -152.031,44.4897 c -29.6682,8.6587 -34.6089,14.8328 -34.613,33.3737 1e-4,27.1935 9.8889,32.1404 37.0824,32.1404 53.152,0 98.8851,-4.9473 264.5103,-45.7377 l 61.7956,249.6742 c -155.7405,37.0849 -232.368,45.7363 -296.6433,45.7282 -205.1706,0 -354.7259,-105.0533 -354.7315,-297.8766 -7e-4,-156.9672 84.0464,-226.1858 200.2394,-264.4985 l 144.6087,-48.2069 c 33.3677,-11.1206 39.5501,-16.0682 39.5561,-40.7827 -0.01,-29.6624 -12.3638,-34.6142 -44.5061,-34.6128 -50.6722,0.01 -74.1567,2.4726 -284.2788,69.22 l -69.2166,-248.4428 c 173.0477,-59.3279 236.0792,-65.505 322.5984,-65.5056 202.7016,0 365.8543,107.5329 365.8532,308.9996 z m 1091.7833,609.3536 -296.6394,-0.01 -91.4623,-480.7981 c -9.8923,-51.9154 -13.5912,-103.8306 -13.5988,-132.2581 h -14.8263 c 0,28.4283 -4.947,80.3368 -14.8395,132.2566 l -91.4635,480.8011 h -305.2918 l 232.3719,-905.9901 363.3827,-10e-4 z m 714.3961,-905.9913 -12.3523,247.1972 H 7514.084 v 84.0502 h 290.4548 l 0.01,245.9653 -290.4648,0.01 -6e-4,81.5704 315.1793,3e-4 0.01,247.2003 h -611.8178 v -905.9874 z m 833.0511,254.6137 c -8.6502,-1.2308 -19.7702,-2.4663 -29.6585,-2.4745 -22.2538,0.01 -27.1922,4.9487 -37.0838,23.4914 l -59.3239,107.5296 c 74.1592,50.6795 119.893,132.254 119.8913,247.2016 0,201.4667 -131.016,275.6275 -318.8914,275.622 H 7970.1466 V 1264.514 l 287.9958,-5e-4 v 306.5269 l 32.1323,-6e-4 76.6332,-169.3333 c 46.9703,-103.8189 97.6478,-144.6109 220.0139,-144.6058 24.7137,0 67.982,3.7091 97.6382,7.4185 z m -299.1096,348.5555 c 5e-4,-65.5093 -16.0642,-85.2844 -55.6249,-85.2865 h -71.6829 l -6e-4,163.1508 75.3977,0.01 c 35.846,0 51.9089,-17.31 51.9107,-77.8706 z m 1030.8102,55.6206 -0.01,247.2011 -666.1957,-0.01 v -247.2003 l 182.9267,0.01 v -658.7871 h 297.8735 v 658.787 z m 967.0022,-658.7967 -12.403,247.2017 h -325.037 l -0.07,84.0563 290.506,8e-4 0.04,245.9527 -290.504,0.01 v 81.5695 h 315.199 l -0.06,247.2053 h -611.7977 l 0.01,-905.9882 z m 986.708,296.6415 c -0.04,153.2669 -82.793,227.4213 -200.223,262.0378 l -152.101,44.4958 c -29.659,8.6578 -34.54,14.8267 -34.623,33.3746 0.07,27.1872 9.938,32.1361 37.141,32.1352 53.104,0 98.847,-4.944 264.521,-45.7385 l 61.796,249.6741 c -155.76,37.0865 -232.398,45.7389 -296.643,45.7281 -205.181,0 -354.706,-105.055 -354.712,-297.8782 -0.08,-156.9604 84.006,-226.1824 200.209,-264.4959 l 144.549,-48.2018 c 33.458,-11.1283 39.551,-16.0682 39.596,-40.7862 0.01,-29.664 -12.363,-34.6142 -44.486,-34.6144 -50.692,0.01 -74.166,2.4734 -284.249,69.2173 l -69.216,-248.4428 c 172.988,-59.3227 235.989,-65.4972 322.519,-65.4987 202.771,0 365.864,107.5321 365.922,308.9936" /><path
     inkscape:connector-curvature="0"
     id="path1308"
     style="fill:#ffffff;fill-opacity:1;fill-rule:nonzero;stroke:none"
     d="m 9583.0805,1638.653 c 46.9584,0 85.0319,38.0739 85.0346,85.0323 0,46.9685 -38.073,85.0419 -85.0414,85.0454 -46.9585,0 -85.0419,-38.0729 -85.0355,-85.0422 0,-46.9684 38.073,-85.0418 85.0423,-85.0355" /><path
     inkscape:connector-curvature="0"
     id="path1310"
     style="fill:#ffffff;fill-opacity:1;fill-rule:nonzero;stroke:none"
     d="m 10527.716,1638.6526 c 46.977,0 85.041,38.0731 85.035,85.0423 0,46.9594 -38.034,85.0284 -85.013,85.033 -46.978,0 -85.042,-38.0729 -85.035,-85.0424 0,-46.9592 38.034,-85.0284 85.013,-85.0329" /></g></svg>