<?xml version="1.0" standalone="no"?>
<!DOCTYPE svg PUBLIC "-//W3C//DTD SVG 1.1//EN" "http://www.w3.org/Graphics/SVG/1.1/DTD/svg11.dtd">
<svg width="100%" height="100%" viewBox="0 0 1063 324" version="1.1" xmlns="http://www.w3.org/2000/svg" xmlns:xlink="http://www.w3.org/1999/xlink" xml:space="preserve" style="fill-rule:evenodd;clip-rule:evenodd;stroke-linejoin:round;stroke-miterlimit:1.41421;">
    <g>
        <g transform="matrix(0.974468,-0.0852549,0.0852549,0.974468,-177.773,2.38348)">
            <path d="M396.21,132C399.88,90 365.21,79 330.39,76C312.04,74.39 280.68,77.6 267.51,92.3C292.07,91.14 310.16,103.3 307.81,130.18C305.23,159.71 284.11,167.13 258.52,164.89C230.29,162.42 213.17,139.1 215.52,112.23C215.932,107.416 216.796,102.652 218.1,98C170.316,140.186 157.166,209.977 186.32,266.66C203.11,148.25 388.26,223 396.21,132" style="fill:rgb(132,179,23);fill-rule:nonzero;"/>
        </g>
        <g transform="matrix(0.974468,-0.0852549,0.0852549,0.974468,-177.773,2.38348)">
            <path d="M265.32,278.84C262.73,308.49 274.83,324.47 303.79,327.01C351.79,331.21 382.16,292.62 386.12,247.45L390.12,201.56L312.36,228.91C291.08,236.28 268.21,245.67 265.31,278.84" style="fill:rgb(132,179,23);fill-rule:nonzero;"/>
        </g>
    </g>
    <g>
        <g transform="matrix(0.974468,-0.0852549,0.0852549,0.974468,-4.84399,61.5468)">
            <g transform="matrix(1,0,0,1,-170.84,-75.66)">
                <path d="M515.3,182.7C515.124,181.555 514.787,180.441 514.3,179.39C513.861,178.489 513.187,177.722 512.35,177.17C511.322,176.566 510.161,176.222 508.97,176.17L501.97,175.55C500.913,175.43 499.843,175.535 498.83,175.86C498.018,176.139 497.286,176.613 496.7,177.24C496.126,177.873 495.66,178.596 495.32,179.38C494.933,180.246 494.619,181.142 494.38,182.06L478.38,235.95L478.33,236.09L486.04,236.77L491.1,219.83L511.7,221.63L513.31,239.15L521.1,239.84L515.84,187C515.69,185.42 515.51,184 515.3,182.7ZM511.19,214L493.3,212.44L501.3,185.09C501.68,183.93 501.94,183.55 502.1,183.43C502.26,183.31 502.64,183.2 503.6,183.29L506.03,183.5C506.64,183.496 507.236,183.677 507.74,184.02C508.133,184.555 508.337,185.206 508.32,185.87L511.19,214Z" style="fill:rgb(132,179,23);fill-rule:nonzero;"/>
            </g>
            <g transform="matrix(1,0,0,1,-170.84,-75.66)">
                <path d="M522,240.65L512.68,239.84L511,222.32L491.64,220.62L486.58,237.56L477.35,236.75L477.65,235.75L493.65,181.86C493.912,180.909 494.246,179.98 494.65,179.08C495.027,178.223 495.54,177.433 496.17,176.74C496.842,176.027 497.676,175.485 498.6,175.16C499.716,174.8 500.896,174.684 502.06,174.82L509.06,175.43C510.374,175.495 511.652,175.883 512.78,176.56C513.734,177.182 514.498,178.053 514.99,179.08C515.506,180.198 515.863,181.383 516.05,182.6C516.26,183.88 516.44,185.34 516.6,186.94L522,240.65ZM514.06,238.45L520.33,239L515.14,187.07C514.99,185.5 514.81,184.07 514.61,182.82C514.451,181.747 514.138,180.703 513.68,179.72C513.306,178.939 512.725,178.275 512,177.8C511.085,177.268 510.057,176.963 509,176.91L502,176.29C501.056,176.174 500.097,176.263 499.19,176.55C498.489,176.791 497.857,177.199 497.35,177.74C496.831,178.311 496.408,178.963 496.1,179.67C495.735,180.506 495.434,181.369 495.2,182.25L479.43,235.42L485.62,235.96L490.57,219L512.4,220.91L514.06,238.45ZM512.06,214.82L492.35,213.09L500.65,184.86C501.13,183.4 501.46,183.01 501.73,182.86C502.34,182.528 503.05,182.425 503.73,182.57L506.15,182.78C506.924,182.782 507.677,183.031 508.3,183.49C508.855,184.14 509.148,184.975 509.12,185.83L512.06,214.82ZM494.3,211.76L510.39,213.17L507.64,185.93C507.54,184.8 507.31,184.57 507.31,184.57C506.925,184.338 506.48,184.223 506.03,184.24L503.61,184.03C503.28,183.967 502.94,183.967 502.61,184.03C502.411,184.437 502.244,184.858 502.11,185.29L494.3,211.76Z" style="fill:rgb(132,179,23);fill-rule:nonzero;"/>
            </g>
        </g>
        <g transform="matrix(0.974468,-0.0852549,0.0852549,0.974468,-4.84399,61.5468)">
            <path d="M381.54,104.29L374.01,103.63L368.58,165.76L409.04,169.31L409.7,161.78L376.76,158.89L381.54,104.29Z" style="fill:rgb(132,179,23);fill-rule:nonzero;"/>
            <g transform="matrix(1,0,0,1,-170.84,-75.66)">
                <path d="M580.56,245.78L538.56,242.11L544.13,178.48L553.13,179.27L548.35,233.87L581.29,236.76L580.56,245.78ZM540.22,240.78L579.22,244.18L579.75,238.18L546.82,235.3L551.59,180.7L545.59,180.17L540.22,240.78Z" style="fill:rgb(132,179,23);fill-rule:nonzero;"/>
            </g>
        </g>
        <g transform="matrix(0.974468,-0.0852549,0.0852549,0.974468,-4.84399,61.5468)">
            <path d="M429.5,171.09L437.03,171.75L441.81,117.15L458.54,118.62L459.2,111.09L418.21,107.5L417.55,115.03L434.28,116.49L429.5,171.09Z" style="fill:rgb(132,179,23);fill-rule:nonzero;"/>
            <g transform="matrix(1,0,0,1,-170.84,-75.66)">
                <path d="M608.55,248.23L599.55,247.44L604.32,192.84L587.6,191.37L588.39,182.37L630.86,186.09L630.07,195.09L613.35,193.63L608.55,248.23ZM601.15,246.08L607.15,246.6L612,192L628.73,193.47L629.26,187.47L589.73,184L589.2,190L605.93,191.46L601.15,246.08Z" style="fill:rgb(132,179,23);fill-rule:nonzero;"/>
            </g>
        </g>
        <g transform="matrix(0.974468,-0.0852549,0.0852549,0.974468,-4.84399,61.5468)">
            <path d="M481.92,147.82L503.41,149.7L504.07,142.17L482.58,140.29L484.28,120.87L515.65,123.61L516.31,116.08L477.41,112.68L471.97,174.81L512,178.31L512.66,170.78L480.16,167.94L481.92,147.82Z" style="fill:rgb(132,179,23);fill-rule:nonzero;"/>
            <g transform="matrix(1,0,0,1,-170.84,-75.66)">
                <path d="M683.52,254.79L642,251.15L647.57,187.53L687.97,191.06L687.18,200.06L655.8,197.31L654.24,215.24L675.73,217.12L674.94,226.12L653.45,224.24L651.82,242.86L684.32,245.7L683.52,254.79ZM643.62,249.79L682.15,253.16L682.68,247.16L650.18,244.31L652.07,222.7L673.57,224.58L674.09,218.58L652.6,216.7L654.43,195.78L685.8,198.52L686.33,192.52L648.92,189.24L643.62,249.79Z" style="fill:rgb(132,179,23);fill-rule:nonzero;"/>
            </g>
        </g>
        <g transform="matrix(0.974468,-0.0852549,0.0852549,0.974468,-4.84399,61.5468)">
            <g transform="matrix(1,0,0,1,-170.84,-75.66)">
                <path d="M739.59,230.42C742.154,229.613 744.409,228.038 746.05,225.91C747.84,223.474 748.883,220.569 749.05,217.55L749.52,212.09C749.734,209.985 749.534,207.858 748.93,205.83C748.378,203.998 747.459,202.297 746.23,200.83C745.006,199.421 743.5,198.283 741.81,197.49C739.991,196.649 738.037,196.138 736.04,195.98L709.83,193.68L704.4,255.81L711.93,256.47L714.3,229.35L731.91,230.89L738.12,258.68L738.12,258.77L746.01,259.46L739.59,230.42ZM716.73,201.92L735.39,203.55C737.353,203.612 739.216,204.438 740.58,205.85C741.818,207.427 742.34,209.451 742.02,211.43L741.55,216.89C741.516,218.897 740.646,220.801 739.15,222.14C737.566,223.296 735.59,223.784 733.65,223.5L715,221.87L716.73,201.92Z" style="fill:rgb(132,179,23);fill-rule:nonzero;"/>
            </g>
            <g transform="matrix(1,0,0,1,-170.84,-75.66)">
                <path d="M747,260.34L737.54,259.52L731.31,231.64L715,230.21L712.63,257.34L703.63,256.55L709.2,192.92L736.2,195.28C738.277,195.449 740.309,195.984 742.2,196.86C743.984,197.702 745.574,198.904 746.87,200.39C748.163,201.918 749.129,203.695 749.71,205.61C750.347,207.731 750.561,209.957 750.34,212.16L749.86,217.62C749.685,220.786 748.578,223.83 746.68,226.37C745.093,228.435 742.953,230.009 740.51,230.91L747,260.34ZM738.77,258.12L745.09,258.67L738.69,229.91L739.35,229.7C741.768,228.942 743.895,227.458 745.44,225.45C747.16,223.123 748.158,220.34 748.31,217.45L748.79,211.98C748.996,209.962 748.802,207.923 748.22,205.98C747.702,204.258 746.834,202.661 745.67,201.29C744.514,199.958 743.089,198.884 741.49,198.14C739.757,197.334 737.895,196.844 735.99,196.69L710.52,194.47L705.22,255.1L711.22,255.63L713.6,228.5L732.5,230.16L738.77,258.12ZM733.56,224.25L714.16,222.55L716.03,201.11L735.44,202.81C737.593,202.878 739.634,203.791 741.12,205.35C742.5,207.081 743.091,209.313 742.75,211.5L742.27,216.96C742.232,219.17 741.262,221.263 739.6,222.72C737.871,223.996 735.709,224.546 733.58,224.25L733.56,224.25ZM715.78,221.18L733.69,222.75C735.449,223.02 737.245,222.589 738.69,221.55C740.015,220.337 740.78,218.627 740.8,216.83L741.28,211.37C741.567,209.602 741.111,207.791 740.02,206.37C738.777,205.119 737.093,204.401 735.33,204.37L717.41,202.8L715.78,221.18Z" style="fill:rgb(132,179,23);fill-rule:nonzero;"/>
            </g>
        </g>
        <g transform="matrix(0.974468,-0.0852549,0.0852549,0.974468,-4.84399,61.5468)">
            <path d="M646.4,127.47L638.87,126.81L634.5,176.78L616.91,124.96L616.89,124.88L606.45,123.97L601.02,186.1L608.55,186.76L612.9,136.96L630.48,188.6L630.5,188.68L640.96,189.59L646.4,127.47Z" style="fill:rgb(132,179,23);fill-rule:nonzero;"/>
            <g transform="matrix(1,0,0,1,-170.84,-75.66)">
                <path d="M812.48,266.07L800.79,265.07L800.63,264.61L784.18,216.25L780.06,263.25L771.06,262.46L776.63,198.84L788.3,199.84L788.45,200.31L804.92,248.82L809,201.66L818,202.44L812.48,266.07ZM801.89,263.64L811.12,264.45L816.42,203.81L810.42,203.28L806.11,252.51L804.65,252.68L787.2,201.25L778,200.44L772.7,261.08L778.7,261.61L783,212.55L784.46,212.38L801.89,263.64Z" style="fill:rgb(132,179,23);fill-rule:nonzero;"/>
            </g>
        </g>
        <g transform="matrix(0.974468,-0.0852549,0.0852549,0.974468,-4.84399,61.5468)">
            <g transform="matrix(1,0,0,1,-170.84,-75.66)">
                <path d="M845.7,250.84L866.29,252.65L867.9,270.17L875.7,270.85L870.42,218C870.27,216.43 870.09,215 869.88,213.71C869.704,212.565 869.367,211.451 868.88,210.4C868.444,209.497 867.77,208.729 866.93,208.18C865.902,207.576 864.741,207.232 863.55,207.18L856.55,206.57C855.497,206.442 854.429,206.544 853.42,206.87C852.607,207.152 851.873,207.626 851.28,208.25C850.706,208.883 850.24,209.606 849.9,210.39C849.518,211.261 849.203,212.16 848.96,213.08L833,267L833,267.15L840.7,267.82L845.7,250.84ZM847.88,243.45L855.88,216.1C856.009,215.49 856.284,214.921 856.68,214.44C856.83,214.33 857.22,214.22 858.18,214.3L860.61,214.51C861.218,214.513 861.813,214.694 862.32,215.03C862.713,215.565 862.917,216.216 862.9,216.88L865.78,245L847.88,243.45Z" style="fill:rgb(132,179,23);fill-rule:nonzero;"/>
            </g>
            <g transform="matrix(1,0,0,1,-170.84,-75.66)">
                <path d="M876.53,271.67L867.21,270.86L865.6,253.34L846.24,251.64L841.18,268.58L831.94,267.77L832.25,266.77L848.25,212.89C848.509,211.941 848.843,211.015 849.25,210.12C849.624,209.259 850.138,208.465 850.77,207.77C851.442,207.059 852.276,206.521 853.2,206.2C854.314,205.831 855.495,205.712 856.66,205.85L863.66,206.46C864.972,206.535 866.248,206.922 867.38,207.59C868.334,208.215 869.099,209.09 869.59,210.12C870.112,211.232 870.469,212.415 870.65,213.63C870.86,214.91 871.04,216.37 871.2,217.97L876.53,271.67ZM868.59,269.47L874.86,270.02L869.68,218.09C869.52,216.52 869.34,215.09 869.14,213.84C868.98,212.768 868.667,211.724 868.21,210.74C867.839,209.957 867.257,209.292 866.53,208.82C865.615,208.288 864.587,207.983 863.53,207.93L856.53,207.31C855.582,207.196 854.62,207.289 853.71,207.58C853.013,207.818 852.384,208.223 851.88,208.76C851.358,209.335 850.933,209.99 850.62,210.7C850.255,211.533 849.954,212.392 849.72,213.27L833.96,266.44L840.14,266.98L845.15,250L867,252L868.59,269.47ZM866.59,245.84L846.88,244.12L855.18,215.89C855.66,214.42 855.99,214.03 856.26,213.89C856.873,213.565 857.58,213.462 858.26,213.6L860.69,213.82C861.459,213.821 862.209,214.066 862.83,214.52C863.385,215.175 863.68,216.012 863.66,216.87L866.59,245.84ZM848.84,242.78L864.92,244.19L862.19,217C862.09,215.86 861.86,215.63 861.86,215.63C861.475,215.398 861.03,215.283 860.58,215.3L858.16,215.09C857.83,215.025 857.49,215.025 857.16,215.09C856.954,215.494 856.783,215.916 856.65,216.35L848.84,242.78Z" style="fill:rgb(132,179,23);fill-rule:nonzero;"/>
            </g>
        </g>
        <g transform="matrix(0.974468,-0.0852549,0.0852549,0.974468,-4.84399,61.5468)">
            <path d="M763.49,137.71L722.5,134.12L721.84,141.65L738.57,143.12L733.79,197.72L741.32,198.38L746.1,143.77L762.83,145.24L763.49,137.71Z" style="fill:rgb(132,179,23);fill-rule:nonzero;"/>
            <g transform="matrix(1,0,0,1,-170.84,-75.66)">
                <path d="M912.84,274.85L903.84,274.06L908.61,219.46L891.87,218L892.66,209L935.13,212.72L934.34,221.72L917.62,220.26L912.84,274.85ZM905.44,272.7L911.44,273.23L916.21,218.62L933,220.09L933.53,214.09L894,210.6L893.47,216.6L910.2,218.07L905.44,272.7Z" style="fill:rgb(132,179,23);fill-rule:nonzero;"/>
            </g>
        </g>
        <g transform="matrix(0.974468,-0.0852549,0.0852549,0.974468,-4.84399,61.5468)">
            <path d="M781.56,146.88L794.21,147.98L790.09,195.06L777.44,193.95L776.78,201.48L809.62,204.35L810.27,196.82L797.62,195.71L801.74,148.64L814.39,149.75L815.05,142.22L782.22,139.35L781.56,146.88Z" style="fill:rgb(132,179,23);fill-rule:nonzero;"/>
            <g transform="matrix(1,0,0,1,-170.84,-75.66)">
                <path d="M981.13,280.83L946.8,277.83L947.59,268.83L960.25,269.94L964.25,224.36L951.6,223.25L952.39,214.25L986.72,217.25L985.93,226.25L973.28,225.15L969.28,270.72L981.93,271.83L981.13,280.83ZM948.43,276.46L979.77,279.2L980.3,273.2L967.64,272.09L971.89,223.52L984.55,224.63L985.08,218.63L953.73,215.89L953.21,221.89L965.86,222.99L961.61,271.56L949,270.42L948.43,276.46Z" style="fill:rgb(132,179,23);fill-rule:nonzero;"/>
            </g>
        </g>
        <g transform="matrix(0.974468,-0.0852549,0.0852549,0.974468,-4.84399,61.5468)">
            <g transform="matrix(1,0,0,1,-170.84,-75.66)">
                <path d="M1025.41,274.37C1025.1,275.52 1024.81,275.9 1024.62,276.01C1024.11,276.199 1023.56,276.247 1023.02,276.15L1019.29,275.82C1018.68,275.824 1018.09,275.647 1017.58,275.31C1017.19,274.775 1016.98,274.124 1017,273.46L1012.14,220.28L1012.14,220.18L1004.34,219.5L1009.27,272.3C1009.42,273.88 1009.6,275.3 1009.81,276.59C1009.98,277.736 1010.32,278.85 1010.81,279.9C1011.26,280.811 1011.95,281.58 1012.81,282.12C1013.84,282.724 1015,283.068 1016.19,283.12L1024.94,283.89C1026,284.016 1027.07,283.91 1028.08,283.58C1028.9,283.296 1029.64,282.828 1030.25,282.21C1030.86,281.58 1031.33,280.836 1031.65,280.02C1031.98,279.18 1032.28,278.29 1032.54,277.38L1047.65,223.38L1047.65,223.23L1039.94,222.56L1025.41,274.37Z" style="fill:rgb(132,179,23);fill-rule:nonzero;"/>
            </g>
            <g transform="matrix(1,0,0,1,-170.84,-75.66)">
                <path d="M1024.81,284.65L1016.06,283.88C1014.74,283.817 1013.46,283.428 1012.33,282.75C1011.38,282.128 1010.61,281.257 1010.12,280.23C1009.6,279.113 1009.24,277.928 1009.06,276.71C1008.85,275.43 1008.67,273.97 1008.51,272.37L1003.51,218.67L1012.83,219.49L1017.76,273.39C1017.86,274.52 1018.09,274.75 1018.09,274.75C1018.48,274.976 1018.92,275.09 1019.37,275.08L1023.09,275.4C1023.47,275.485 1023.87,275.485 1024.25,275.4C1024.47,275.037 1024.62,274.632 1024.69,274.21L1039.36,221.86L1048.58,222.66L1048.3,223.66L1033.19,277.66C1032.93,278.583 1032.63,279.491 1032.27,280.38C1031.92,281.289 1031.39,282.118 1030.72,282.82C1030.03,283.513 1029.19,284.043 1028.27,284.37C1027.15,284.709 1025.97,284.805 1024.81,284.65ZM1005.16,220.32L1010.01,272.23C1010.16,273.79 1010.34,275.23 1010.54,276.47C1010.7,277.542 1011.01,278.586 1011.47,279.57C1011.84,280.354 1012.43,281.022 1013.15,281.5C1014.07,282.023 1015.1,282.328 1016.15,282.39L1024.9,283.15C1025.84,283.266 1026.8,283.178 1027.71,282.89C1028.42,282.642 1029.08,282.235 1029.61,281.7C1030.14,281.138 1030.56,280.475 1030.84,279.75C1031.17,278.913 1031.46,278.058 1031.7,277.19L1046.65,224L1040.47,223.46L1026.13,274.62C1025.82,275.79 1025.47,276.43 1025,276.71C1024.37,276.978 1023.68,277.061 1023,276.95L1019.28,276.62C1018.51,276.618 1017.75,276.369 1017.13,275.91C1016.57,275.261 1016.28,274.425 1016.31,273.57L1011.49,220.92L1005.16,220.32Z" style="fill:rgb(132,179,23);fill-rule:nonzero;"/>
            </g>
        </g>
        <g transform="matrix(0.974468,-0.0852549,0.0852549,0.974468,-4.84399,61.5468)">
            <path d="M930.52,207.34L898.02,204.5L899.78,184.38L921.28,186.26L921.94,178.73L900.44,176.85L902.14,157.43L933.52,160.17L934.18,152.64L895.27,149.24L889.84,211.37L929.87,214.87L930.52,207.34Z" style="fill:rgb(132,179,23);fill-rule:nonzero;"/>
            <g transform="matrix(1,0,0,1,-170.84,-75.66)">
                <path d="M1101.38,291.35L1059.86,287.71L1065.43,224.09L1105.82,227.62L1105.03,236.62L1073.66,233.87L1072.09,251.8L1093.59,253.68L1092.8,262.68L1071.3,260.8L1069.67,279.42L1102.17,282.26L1101.38,291.35ZM1061.48,286.35L1100.02,289.72L1100.55,283.72L1068.05,280.87L1069.94,259.26L1091.43,261.14L1091.96,255.14L1070.47,253.26L1072.3,232.34L1103.67,235.08L1104.2,229.08L1066.79,225.8L1061.48,286.35Z" style="fill:rgb(132,179,23);fill-rule:nonzero;"/>
            </g>
        </g>
        <g transform="matrix(0.974468,-0.0852549,0.0852549,0.974468,-4.84399,61.5468)">
            <g transform="matrix(1,0,0,1,-170.84,-75.66)">
                <path d="M512.62,278.82C511.395,277.407 509.885,276.269 508.19,275.48C506.377,274.632 504.426,274.117 502.43,273.96L476.05,271.65L470.61,333.78L497,336.09C498.99,336.28 500.998,336.114 502.93,335.6C504.735,335.116 506.419,334.258 507.87,333.08C509.33,331.864 510.528,330.364 511.39,328.67C512.336,326.778 512.903,324.719 513.06,322.61L515.91,290C516.125,287.898 515.921,285.773 515.31,283.75C514.759,281.94 513.843,280.263 512.62,278.82ZM497.62,328.56L478.77,326.91L482.89,279.84L501.74,281.49C503.696,281.546 505.554,282.369 506.91,283.78C508.146,285.357 508.669,287.382 508.35,289.36L505.53,322C505.499,324.003 504.636,325.906 503.15,327.25C501.559,328.388 499.583,328.859 497.65,328.56L497.62,328.56Z" style="fill:rgb(132,179,23);fill-rule:nonzero;"/>
            </g>
            <g transform="matrix(1,0,0,1,-170.84,-75.66)">
                <path d="M496.93,336.84L469.8,334.46L475.37,270.84L502.5,273.21C504.578,273.381 506.61,273.919 508.5,274.8C510.29,275.635 511.885,276.838 513.18,278.33C514.469,279.857 515.435,281.629 516.02,283.54C516.652,285.662 516.866,287.887 516.65,290.09L513.8,322.68C513.632,324.888 513.034,327.041 512.04,329.02C511.133,330.801 509.874,332.379 508.34,333.66C506.807,334.905 505.028,335.811 503.12,336.32C501.104,336.858 499.008,337.034 496.93,336.84L496.93,336.84ZM471.42,333.1L497.06,335.34C498.966,335.527 500.89,335.368 502.74,334.87C504.442,334.414 506.029,333.607 507.4,332.5C508.778,331.345 509.907,329.923 510.72,328.32C511.623,326.519 512.163,324.559 512.31,322.55L515.16,290C515.368,287.983 515.178,285.944 514.6,284C514.073,282.281 513.206,280.686 512.05,279.31C510.894,277.978 509.469,276.904 507.87,276.16C506.137,275.358 504.274,274.87 502.37,274.72L476.73,272.47L471.42,333.1ZM497.59,329.31L478,327.59L482.24,279L501.84,280.71C503.99,280.785 506.027,281.701 507.51,283.26C508.883,284.99 509.471,287.218 509.13,289.4L506.28,322C506.237,324.208 505.268,326.3 503.61,327.76C501.886,329.048 499.722,329.606 497.59,329.31L497.59,329.31ZM479.59,326.23L497.7,327.81C499.459,328.091 501.26,327.659 502.7,326.61C504.025,325.398 504.787,323.686 504.8,321.89L507.65,289.3C507.94,287.533 507.487,285.723 506.4,284.3C505.164,283.051 503.487,282.333 501.73,282.3L483.62,280.71L479.59,326.23Z" style="fill:rgb(132,179,23);fill-rule:nonzero;"/>
            </g>
        </g>
        <g transform="matrix(0.974468,-0.0852549,0.0852549,0.974468,-4.84399,61.5468)">
            <path d="M364.01,208.72L376.66,209.83L372.54,256.9L359.89,255.79L359.23,263.32L392.06,266.19L392.72,258.67L380.07,257.56L384.19,210.49L396.84,211.59L397.5,204.06L364.67,201.19L364.01,208.72Z" style="fill:rgb(132,179,23);fill-rule:nonzero;"/>
            <g transform="matrix(1,0,0,1,-170.84,-75.66)">
                <path d="M563.58,342.67L529.25,339.67L530.04,330.67L542.7,331.78L546.7,286.2L534,285.06L534.79,276.06L569.12,279.06L568.33,288.06L555.71,287L551.71,332.58L564.36,333.69L563.58,342.67ZM530.88,338.3L562.22,341L562.75,335L550.09,333.89L554.34,285.33L567,286.43L567.52,280.43L536.18,277.69L535.65,283.69L548.31,284.8L544.06,333.36L531.41,332.26L530.88,338.3Z" style="fill:rgb(132,179,23);fill-rule:nonzero;"/>
            </g>
        </g>
        <g transform="matrix(0.974468,-0.0852549,0.0852549,0.974468,-4.84399,61.5468)">
            <path d="M419.96,240.78L441.46,242.66L442.12,235.13L420.62,233.25L422.32,213.82L453.7,216.57L454.36,209.04L415.45,205.63L410.02,267.76L450.05,271.27L450.7,263.74L418.2,260.89L419.96,240.78Z" style="fill:rgb(132,179,23);fill-rule:nonzero;"/>
            <g transform="matrix(1,0,0,1,-170.84,-75.66)">
                <path d="M621.56,347.74L580,344.11L585.57,280.48L626,284L625.21,293L593.84,290.26L592.27,308.19L613.76,310.07L612.98,319.07L591.48,317.19L589.85,335.81L622.35,338.66L621.56,347.74ZM581.66,342.74L620.2,346.11L620.73,340.11L588.23,337.27L590.12,315.66L611.61,317.54L612.14,311.54L590.65,309.66L592.48,288.74L623.85,291.49L624.38,285.49L587,282.11L581.66,342.74Z" style="fill:rgb(132,179,23);fill-rule:nonzero;"/>
            </g>
        </g>
        <g transform="matrix(0.974468,-0.0852549,0.0852549,0.974468,-4.84399,61.5468)">
            <g transform="matrix(1,0,0,1,-170.84,-75.66)">
                <path d="M716.89,295.72C714.94,293.56 711.95,292.29 708.01,291.95L696.65,290.95C694.686,290.766 692.704,290.935 690.8,291.45C688.985,291.93 687.284,292.77 685.8,293.92C684.311,295.102 683.096,296.593 682.24,298.29C681.283,300.207 680.712,302.293 680.56,304.43L677.74,337C677.511,339.118 677.712,341.261 678.33,343.3C678.897,345.109 679.833,346.781 681.08,348.21C682.318,349.622 683.837,350.759 685.54,351.55C687.328,352.389 689.252,352.9 691.22,353.06L702.66,354.06C704.653,354.255 706.666,354.089 708.6,353.57C710.402,353.092 712.083,352.236 713.53,351.06C714.99,349.85 716.185,348.352 717.04,346.66C717.988,344.789 718.559,342.751 718.72,340.66L720.39,321.61L700.81,319.89L700.15,327.42L712.2,328.48L711.2,339.97C710.99,342.4 710.2,344.18 708.81,345.25C707.213,346.384 705.238,346.858 703.3,346.57L691.82,345.57C689.901,345.491 688.086,344.669 686.76,343.28C685.498,341.715 684.96,339.685 685.28,337.7L688.13,305.11C688.165,303.1 689.048,301.195 690.56,299.87C692.107,298.734 694.038,298.242 695.94,298.5L707.51,299.5C709.138,299.509 710.707,300.114 711.92,301.2C713.008,302.584 713.754,304.204 714.1,305.93L715.45,310.93L722.54,309.06L722.66,309.06L721.37,304.37C720.548,301.186 719.016,298.229 716.89,295.72Z" style="fill:rgb(132,179,23);fill-rule:nonzero;"/>
            </g>
            <g transform="matrix(1,0,0,1,-170.84,-75.66)">
                <path d="M702.59,354.83L691.15,353.83C689.096,353.658 687.088,353.123 685.22,352.25C681.572,350.556 678.809,347.392 677.62,343.55C676.983,341.429 676.773,339.203 677,337L679.85,304.42C680.012,302.181 680.613,299.996 681.62,297.99C682.522,296.201 683.802,294.628 685.37,293.38C686.929,292.178 688.71,291.294 690.61,290.78C692.603,290.245 694.675,290.066 696.73,290.25L708.08,291.25C712.22,291.61 715.37,292.96 717.45,295.25C719.656,297.842 721.243,300.903 722.09,304.2L723.59,309.63L714.92,311.9L713.37,306.15C713.058,304.541 712.373,303.027 711.37,301.73C710.278,300.787 708.883,300.268 707.44,300.27L695.88,299.27C694.164,299.035 692.422,299.472 691.02,300.49C689.673,301.69 688.895,303.406 688.88,305.21L686,337.74C685.715,339.514 686.187,341.329 687.3,342.74C688.509,343.97 690.147,344.686 691.87,344.74L703.35,345.74C705.105,346.009 706.897,345.589 708.35,344.57C709.55,343.63 710.26,342.03 710.46,339.81L711.39,329.07L699.39,328.01L700.18,319.01L721.25,320.85L719.52,340.66C719.353,342.862 718.755,345.009 717.76,346.98C716.855,348.759 715.596,350.335 714.06,351.61C712.525,352.852 710.747,353.758 708.84,354.27C706.807,354.829 704.69,355.019 702.59,354.83L702.59,354.83ZM696.59,291.7C694.713,291.524 692.819,291.686 691,292.18C689.289,292.636 687.687,293.432 686.29,294.52C684.887,295.629 683.743,297.032 682.94,298.63C682.025,300.462 681.481,302.457 681.34,304.5L678.49,337.08C678.273,339.097 678.463,341.138 679.05,343.08C680.107,346.531 682.585,349.373 685.86,350.89C687.568,351.685 689.403,352.173 691.28,352.33L702.72,353.33C704.626,353.507 706.549,353.348 708.4,352.86C710.102,352.404 711.689,351.597 713.06,350.49C714.437,349.343 715.567,347.927 716.38,346.33C717.283,344.533 717.823,342.576 717.97,340.57L719.57,322.26L701.49,320.68L700.96,326.68L712.96,327.68L711.94,340C711.71,342.65 710.81,344.61 709.26,345.81C707.525,347.056 705.375,347.586 703.26,347.29L691.78,346.29C689.67,346.199 687.678,345.287 686.23,343.75C684.818,342.035 684.206,339.795 684.55,337.6L687.37,305C687.417,302.782 688.407,300.685 690.09,299.24C691.785,297.981 693.907,297.432 696,297.71L707.56,298.71C709.376,298.732 711.121,299.423 712.46,300.65C713.63,302.126 714.438,303.856 714.82,305.7L716,310L721.76,308.49L720.67,304.49C719.877,301.422 718.404,298.571 716.36,296.15C714.54,294.15 711.72,292.94 707.97,292.61L696.59,291.7Z" style="fill:rgb(132,179,23);fill-rule:nonzero;"/>
            </g>
        </g>
        <g transform="matrix(0.974468,-0.0852549,0.0852549,0.974468,-4.84399,61.5468)">
            <g transform="matrix(1,0,0,1,-170.84,-75.66)">
                <path d="M777.88,327.07C779.675,324.636 780.718,321.73 780.88,318.71L781.36,313.25C781.576,311.144 781.372,309.016 780.76,306.99C780.208,305.175 779.293,303.491 778.07,302.04C776.844,300.628 775.335,299.49 773.64,298.7C771.825,297.859 769.874,297.348 767.88,297.19L741.67,294.89L736.25,357L743.78,357.66L746.16,330.53L763.77,332.07L769.98,359.87L769.98,359.96L777.87,360.65L771.4,331.56C773.968,330.762 776.231,329.194 777.88,327.07ZM748.56,303.07L767.22,304.7C769.184,304.758 771.048,305.584 772.41,307C773.645,308.578 774.168,310.602 773.85,312.58L773.37,318.04C773.351,320.047 772.491,321.957 771,323.3C769.412,324.456 767.433,324.945 765.49,324.66L746.82,323L748.56,303.07Z" style="fill:rgb(132,179,23);fill-rule:nonzero;"/>
            </g>
            <g transform="matrix(1,0,0,1,-170.84,-75.66)">
                <path d="M778.84,361.5L769.39,360.67L763.15,332.79L746.84,331.37L744.47,358.49L735.47,357.7L741,294.08L768,296.44C770.077,296.609 772.109,297.144 774,298.02C775.784,298.862 777.374,300.064 778.67,301.55C779.961,303.079 780.928,304.855 781.51,306.77C782.142,308.889 782.356,311.11 782.14,313.31L781.66,318.78C781.476,321.944 780.37,324.986 778.48,327.53C776.89,329.592 774.751,331.165 772.31,332.07L778.84,361.5ZM770.61,359.28L776.94,359.83L770.54,331.07L771.19,330.86C773.61,330.1 775.739,328.616 777.29,326.61C779.01,324.283 780.008,321.5 780.16,318.61L780.63,313.15C780.839,311.133 780.649,309.094 780.07,307.15C779.548,305.429 778.68,303.833 777.52,302.46C776.364,301.128 774.939,300.054 773.34,299.31C771.607,298.504 769.745,298.014 767.84,297.86L742.37,295.63L737.07,356.27L743.07,356.8L745.45,329.67L764.35,331.33L770.61,359.28ZM765.41,325.4L746,323.71L747.88,302.27L767.28,303.97C769.436,304.035 771.482,304.948 772.97,306.51C774.35,308.241 774.941,310.473 774.6,312.66L774.12,318.12C774.077,320.328 773.108,322.42 771.45,323.88C769.717,325.163 767.544,325.71 765.41,325.4ZM747.63,322.34L765.54,323.91C767.299,324.184 769.097,323.753 770.54,322.71C771.872,321.501 772.641,319.789 772.66,317.99L773.13,312.53C773.42,310.763 772.967,308.953 771.88,307.53C770.642,306.259 768.954,305.523 767.18,305.48L749.27,303.91L747.63,322.34Z" style="fill:rgb(132,179,23);fill-rule:nonzero;"/>
            </g>
        </g>
        <g transform="matrix(0.974468,-0.0852549,0.0852549,0.974468,-4.84399,61.5468)">
            <g transform="matrix(1,0,0,1,-170.84,-75.66)">
                <path d="M829.08,294.93C829.506,295.466 830.102,295.84 830.77,295.99C831.792,296.25 832.837,296.414 833.89,296.48C834.939,296.596 835.997,296.616 837.05,296.54C837.731,296.506 838.38,296.242 838.89,295.79C839.353,295.313 839.66,294.706 839.77,294.05C839.948,293.148 840.071,292.237 840.14,291.32C840.237,290.357 840.264,289.387 840.22,288.42C840.199,287.731 839.992,287.06 839.62,286.48C839.214,285.915 838.623,285.508 837.95,285.33C836.972,285.046 835.966,284.869 834.95,284.8C833.927,284.684 832.893,284.684 831.87,284.8C831.177,284.864 830.525,285.16 830.02,285.64C829.556,286.153 829.238,286.782 829.1,287.46C828.88,288.4 828.736,289.357 828.67,290.32C828.575,291.237 828.539,292.159 828.56,293.08C828.544,293.735 828.725,294.38 829.08,294.93Z" style="fill:rgb(132,179,23);fill-rule:nonzero;"/>
            </g>
            <g transform="matrix(1,0,0,1,-170.84,-75.66)">
                <path d="M833.82,297.23C832.719,297.159 831.628,296.985 830.56,296.71C829.733,296.518 828.997,296.044 828.48,295.37C828.02,294.698 827.773,293.904 827.77,293.09C827.748,292.139 827.785,291.187 827.88,290.24C827.951,289.23 828.101,288.227 828.33,287.24C828.499,286.433 828.882,285.687 829.44,285.08C830.059,284.481 830.863,284.107 831.72,284.02C832.803,283.898 833.897,283.898 834.98,284.02C836.064,284.091 837.137,284.278 838.18,284.58C839.009,284.815 839.734,285.323 840.24,286.02C840.684,286.715 840.935,287.516 840.97,288.34C841.019,289.341 840.992,290.343 840.89,291.34C840.814,292.286 840.687,293.228 840.51,294.16C840.367,294.963 839.987,295.705 839.42,296.29C838.792,296.873 837.984,297.225 837.13,297.29C836.027,297.366 834.919,297.346 833.82,297.23L833.82,297.23ZM829.69,294.49C830.016,294.887 830.467,295.162 830.97,295.27C831.954,295.515 832.958,295.672 833.97,295.74C834.967,295.845 835.97,295.865 836.97,295.8C837.484,295.776 837.977,295.582 838.37,295.25C838.723,294.877 838.957,294.407 839.04,293.9C839.205,293.023 839.326,292.139 839.4,291.25C839.489,290.326 839.512,289.397 839.47,288.47C839.456,287.914 839.293,287.372 839,286.9C838.683,286.476 838.232,286.173 837.72,286.04C835.833,285.544 833.875,285.372 831.93,285.53C831.403,285.577 830.907,285.799 830.52,286.16C830.147,286.572 829.891,287.076 829.78,287.62C829.58,288.529 829.447,289.452 829.38,290.38C829.291,291.264 829.254,292.152 829.27,293.04C829.263,293.554 829.409,294.059 829.69,294.49Z" style="fill:rgb(132,179,23);fill-rule:nonzero;"/>
            </g>
        </g>
        <g transform="matrix(0.974468,-0.0852549,0.0852549,0.974468,-4.84399,61.5468)">
            <g transform="matrix(1,0,0,1,-170.84,-75.66)">
                <path d="M807,283.62C806.533,284.133 806.212,284.761 806.07,285.44C805.851,286.38 805.707,287.337 805.64,288.3C805.55,289.217 805.513,290.139 805.53,291.06C805.531,291.723 805.73,292.37 806.1,292.92C806.525,293.465 807.126,293.847 807.8,294C808.823,294.259 809.867,294.426 810.92,294.5C811.971,294.592 813.029,294.592 814.08,294.5C814.761,294.466 815.41,294.202 815.92,293.75C816.386,293.274 816.696,292.667 816.81,292.01C816.983,291.107 817.106,290.196 817.18,289.28C817.274,288.316 817.298,287.347 817.25,286.38C817.229,285.691 817.022,285.02 816.65,284.44C816.244,283.875 815.653,283.468 814.98,283.29C814.002,283.006 812.996,282.829 811.98,282.76C810.953,282.644 809.917,282.644 808.89,282.76C808.18,282.821 807.512,283.125 807,283.62L807,283.62Z" style="fill:rgb(132,179,23);fill-rule:nonzero;"/>
            </g>
            <g transform="matrix(1,0,0,1,-170.84,-75.66)">
                <path d="M810.86,295.22C809.756,295.15 808.661,294.976 807.59,294.7C806.764,294.505 806.029,294.032 805.51,293.36C805.047,292.69 804.799,291.894 804.8,291.08C804.783,290.132 804.82,289.184 804.91,288.24C804.988,287.231 805.138,286.228 805.36,285.24C805.532,284.432 805.919,283.686 806.48,283.08C807.097,282.477 807.901,282.103 808.76,282.02C809.84,281.898 810.93,281.898 812.01,282.02C813.093,282.096 814.166,282.283 815.21,282.58C816.039,282.815 816.764,283.323 817.27,284.02C817.718,284.713 817.97,285.515 818,286.34C818.049,287.341 818.022,288.343 817.92,289.34C817.853,290.29 817.727,291.236 817.54,292.17C817.395,292.969 817.015,293.707 816.45,294.29C815.823,294.875 815.015,295.227 814.16,295.29C813.06,295.363 811.956,295.34 810.86,295.22ZM811.86,283.53C810.893,283.429 809.917,283.429 808.95,283.53C808.42,283.575 807.919,283.797 807.53,284.16C807.161,284.578 806.906,285.084 806.79,285.63C806.591,286.536 806.457,287.455 806.39,288.38C806.301,289.264 806.264,290.152 806.28,291.04C806.273,291.554 806.419,292.059 806.7,292.49C807.03,292.883 807.479,293.157 807.98,293.27C808.963,293.519 809.968,293.676 810.98,293.74C811.976,293.845 812.98,293.865 813.98,293.8C814.491,293.774 814.979,293.58 815.37,293.25C815.723,292.877 815.957,292.407 816.04,291.9C816.215,291.025 816.335,290.14 816.4,289.25C816.492,288.326 816.519,287.397 816.48,286.47C816.457,285.914 816.292,285.373 816,284.9C815.685,284.475 815.233,284.171 814.72,284.04C813.793,283.773 812.842,283.602 811.88,283.53L811.86,283.53Z" style="fill:rgb(132,179,23);fill-rule:nonzero;"/>
            </g>
        </g>
        <g transform="matrix(0.974468,-0.0852549,0.0852549,0.974468,-4.84399,61.5468)">
            <g transform="matrix(1,0,0,1,-170.84,-75.66)">
                <path d="M830.19,350.36C829.97,352.79 829.19,354.57 827.79,355.64C826.196,356.773 824.224,357.246 822.29,356.96L810.81,355.96C808.877,355.893 807.045,355.07 805.71,353.67C804.468,352.096 803.941,350.07 804.26,348.09L808.4,300.73L800.88,300.07L796.73,347.43C796.509,349.549 796.713,351.691 797.33,353.73C798.451,357.378 801.075,360.381 804.54,361.98C806.322,362.825 808.244,363.336 810.21,363.49L821.65,364.49C823.663,364.687 825.694,364.524 827.65,364.01C831.313,363.037 834.379,360.522 836.05,357.12C836.978,355.205 837.534,353.132 837.69,351.01L841.83,303.66L834.3,303L830.19,350.36Z" style="fill:rgb(132,179,23);fill-rule:nonzero;"/>
            </g>
            <g transform="matrix(1,0,0,1,-170.84,-75.66)">
                <path d="M821.59,365.24L810.15,364.24C808.092,364.068 806.081,363.533 804.21,362.66C802.417,361.823 800.817,360.625 799.51,359.14C798.196,357.632 797.209,355.868 796.61,353.96C795.963,351.824 795.749,349.58 795.98,347.36L800.19,299.26L809.19,300.05L805,348.15C804.708,349.918 805.165,351.731 806.26,353.15C807.469,354.396 809.124,355.116 810.86,355.15L822.34,356.15C824.095,356.42 825.887,356 827.34,354.98C828.55,354.04 829.25,352.44 829.45,350.22L833.66,302.11L842.66,302.9L838.45,351.01C838.291,353.226 837.71,355.391 836.74,357.39C835.854,359.165 834.608,360.735 833.08,362C831.547,363.245 829.768,364.151 827.86,364.66C825.821,365.225 823.698,365.422 821.59,365.24ZM801.59,300.88L797.51,347.49C797.293,349.507 797.483,351.548 798.07,353.49C799.127,356.944 801.61,359.787 804.89,361.3C806.597,362.097 808.432,362.585 810.31,362.74L821.75,363.74C823.682,363.927 825.632,363.771 827.51,363.28C829.211,362.816 830.797,362.006 832.17,360.9C833.53,359.761 834.643,358.355 835.44,356.77C836.318,354.962 836.847,353.004 837,351L841.08,304.39L835.08,303.86L831,350.47C830.77,353.12 829.87,355.08 828.32,356.29C826.583,357.53 824.434,358.057 822.32,357.76L810.84,356.76C808.712,356.677 806.7,355.76 805.24,354.21C803.867,352.48 803.275,350.253 803.61,348.07L807.69,301.46L801.59,300.88Z" style="fill:rgb(132,179,23);fill-rule:nonzero;"/>
            </g>
        </g>
        <g transform="matrix(0.974468,-0.0852549,0.0852549,0.974468,-4.84399,61.5468)">
            <path d="M717.76,282.44L700.18,230.62L700.15,230.54L689.72,229.63L684.28,291.76L691.81,292.42L696.17,242.62L713.74,294.26L713.77,294.34L724.23,295.25L729.66,233.12L722.13,232.47L717.76,282.44Z" style="fill:rgb(132,179,23);fill-rule:nonzero;"/>
            <g transform="matrix(1,0,0,1,-170.84,-75.66)">
                <path d="M895.74,371.73L884.05,370.73L883.89,370.27L867.44,321.91L863.33,368.91L854.33,368.12L859.89,304.5L871.56,305.5L871.72,305.97L888.18,354.48L892.31,307.31L901.31,308.1L895.74,371.73ZM885.15,369.3L894.38,370.1L899.68,309.47L893.68,308.94L889.37,358.17L887.92,358.34L870.46,306.91L861.27,306.1L855.96,366.74L861.96,367.27L866.25,318.21L867.7,318.04L885.15,369.3Z" style="fill:rgb(132,179,23);fill-rule:nonzero;"/>
            </g>
        </g>
        <g transform="matrix(0.974468,-0.0852549,0.0852549,0.974468,-4.84399,61.5468)">
            <path d="M753.68,269.97L775.18,271.85L775.84,264.32L754.34,262.44L756.04,243.02L787.42,245.76L788.08,238.23L749.17,234.83L743.74,296.96L783.77,300.46L784.43,292.94L751.92,290.09L753.68,269.97Z" style="fill:rgb(132,179,23);fill-rule:nonzero;"/>
            <g transform="matrix(1,0,0,1,-170.84,-75.66)">
                <path d="M955.28,376.94L913.76,373.31L919.33,309.68L959.72,313.21L958.93,322.21L927.56,319.46L926,337.42L947.5,339.3L946.71,348.3L925.21,346.42L923.58,365.04L956.08,367.89L955.28,376.94ZM915.38,371.94L953.92,375.31L954.45,369.31L922,366.44L923.89,344.82L945.38,346.7L945.91,340.7L924.42,338.82L926.25,317.9L957.62,320.64L958.15,314.64L920.74,311.37L915.38,371.94Z" style="fill:rgb(132,179,23);fill-rule:nonzero;"/>
            </g>
        </g>
        <g transform="matrix(0.974468,-0.0852549,0.0852549,0.974468,-4.84399,61.5468)">
            <path d="M835.29,292.72L817.71,240.9L817.68,240.82L807.25,239.91L801.81,302.04L809.34,302.7L813.7,252.9L831.27,304.55L831.3,304.62L841.75,305.54L847.19,243.41L839.66,242.75L835.29,292.72Z" style="fill:rgb(132,179,23);fill-rule:nonzero;"/>
            <g transform="matrix(1,0,0,1,-170.84,-75.66)">
                <path d="M1013.27,382L1001.58,381L1001.42,380.54L985,332.17L980.89,379.17L971.89,378.38L977.45,314.75L989.12,315.75L989.28,316.22L1005.74,364.73L1009.87,317.57L1018.87,318.36L1013.27,382ZM1002.68,379.57L1011.91,380.38L1017.21,319.74L1011.21,319.21L1006.9,368.44L1005.45,368.61L988,317.19L978.81,316.39L973.46,377L979.46,377.53L983.75,328.48L985.2,328.3L1002.68,379.57Z" style="fill:rgb(132,179,23);fill-rule:nonzero;"/>
            </g>
        </g>
        <g transform="matrix(0.974468,-0.0852549,0.0852549,0.974468,-4.84399,61.5468)">
            <path d="M943.88,257.65L943.9,257.62L944.4,251.91L905.15,248.48L904.49,256.01L933.69,258.56L899.54,304.81L899.52,304.84L899.02,310.55L939.4,314.08L940.06,306.55L909.74,303.9L943.88,257.65Z" style="fill:rgb(132,179,23);fill-rule:nonzero;"/>
            <g transform="matrix(1,0,0,1,-170.84,-75.66)">
                <path d="M1110.92,390.55L1069.05,386.89L1069.63,380.23L1069.76,380.06L1103.13,334.85L1074.52,332.35L1075.31,323.35L1116.05,326.91L1115.47,333.58L1115.34,333.75L1114.72,333.33L1115.32,333.77L1082,378.93L1111.74,381.53L1110.92,390.55ZM1070.67,385.55L1109.56,388.95L1110.08,382.95L1079.17,380.25L1114,333L1114.42,328.25L1076.66,324.95L1076.13,330.95L1105.91,333.55L1071.08,380.74L1070.67,385.55Z" style="fill:rgb(132,179,23);fill-rule:nonzero;"/>
            </g>
        </g>
        <g transform="matrix(0.974468,-0.0852549,0.0852549,0.974468,-4.84399,61.5468)">
            <g transform="matrix(1,0,0,1,-170.84,-75.66)">
                <path d="M1161.46,379.34C1161.44,381.36 1160.57,383.282 1159.07,384.63C1157.47,385.754 1155.5,386.226 1153.56,385.95L1142.08,384.95C1140.14,384.89 1138.31,384.067 1136.98,382.66C1135.74,381.085 1135.22,379.059 1135.54,377.08L1139.68,329.72L1132.15,329.06L1128,376.41C1127.77,378.528 1127.97,380.671 1128.59,382.71C1129.71,386.359 1132.34,389.363 1135.8,390.97C1137.59,391.804 1139.51,392.316 1141.47,392.48L1152.92,393.48C1154.93,393.67 1156.96,393.504 1158.92,392.99C1160.73,392.506 1162.41,391.648 1163.86,390.47C1165.31,389.27 1166.48,387.782 1167.32,386.1C1168.27,384.195 1168.84,382.123 1169,380L1173.14,332.64L1165.61,331.98L1161.46,379.34Z" style="fill:rgb(132,179,23);fill-rule:nonzero;"/>
            </g>
            <g transform="matrix(1,0,0,1,-170.84,-75.66)">
                <path d="M1152.86,394.22L1141.42,393.22C1139.36,393.057 1137.35,392.522 1135.49,391.64C1133.69,390.807 1132.09,389.608 1130.78,388.12C1129.47,386.613 1128.48,384.849 1127.89,382.94C1127.24,380.807 1127.03,378.567 1127.26,376.35L1131.47,328.24L1140.47,329.03L1136.26,377.14C1135.97,378.908 1136.43,380.72 1137.52,382.14C1138.73,383.385 1140.39,384.104 1142.13,384.14L1153.61,385.14C1155.37,385.412 1157.16,384.992 1158.61,383.97C1159.82,383.04 1160.53,381.43 1160.72,379.21L1164.93,331.11L1173.93,331.9L1169.72,380C1169.56,382.217 1168.98,384.384 1168,386.38C1167.11,388.155 1165.87,389.725 1164.34,390.99C1162.81,392.237 1161.04,393.144 1159.13,393.65C1157.09,394.216 1154.97,394.409 1152.86,394.22ZM1132.86,329.87L1128.78,376.48C1128.57,378.497 1128.76,380.536 1129.34,382.48C1129.88,384.193 1130.76,385.776 1131.94,387.13C1133.11,388.465 1134.55,389.541 1136.16,390.29C1137.87,391.085 1139.7,391.573 1141.58,391.73L1153.02,392.73C1154.95,392.917 1156.9,392.761 1158.78,392.27C1160.49,391.819 1162.08,391.007 1163.44,389.89C1164.81,388.757 1165.93,387.35 1166.72,385.76C1167.6,383.933 1168.13,381.954 1168.27,379.93L1172.35,333.32L1166.35,332.79L1162.28,379.4C1162.04,382.06 1161.14,384.01 1159.6,385.22C1157.86,386.458 1155.71,386.984 1153.6,386.69L1142.13,385.69C1140,385.612 1137.99,384.699 1136.53,383.15C1135.15,381.424 1134.56,379.194 1134.9,377.01L1138.98,330.39L1132.86,329.87Z" style="fill:rgb(132,179,23);fill-rule:nonzero;"/>
            </g>
        </g>
        <g transform="matrix(0.974468,-0.0852549,0.0852549,0.974468,-4.84399,61.5468)">
            <g transform="matrix(1,0,0,1,-170.84,-75.66)">
                <path d="M1200.36,344.45C1201.91,343.314 1203.84,342.822 1205.74,343.08L1217.3,344.08C1218.93,344.086 1220.5,344.695 1221.71,345.79C1222.8,347.168 1223.55,348.786 1223.9,350.51L1225.21,355.43L1225.21,355.55L1232.3,353.68L1232.42,353.68L1231.13,348.99C1230.31,345.809 1228.78,342.855 1226.66,340.35C1224.66,338.18 1221.72,336.91 1217.77,336.57L1206.42,335.57C1204.46,335.396 1202.48,335.565 1200.57,336.07C1198.75,336.553 1197.05,337.396 1195.57,338.55C1194.08,339.728 1192.87,341.216 1192.01,342.91C1191.05,344.827 1190.48,346.913 1190.33,349.05L1187.48,381.64C1187.25,383.758 1187.45,385.901 1188.07,387.94C1189.19,391.589 1191.82,394.593 1195.28,396.2C1197.07,397.036 1198.99,397.544 1200.95,397.7L1212.4,398.7C1214.39,398.885 1216.4,398.719 1218.33,398.21C1220.13,397.726 1221.82,396.868 1223.27,395.69C1224.73,394.482 1225.92,392.988 1226.78,391.3C1227.73,389.414 1228.31,387.358 1228.46,385.25L1230.12,366.2L1210.55,364.49L1210,372L1222,373.06L1221,384.55C1220.98,386.569 1220.11,388.49 1218.61,389.84C1217.01,390.965 1215.04,391.434 1213.1,391.15L1201.62,390.15C1199.7,390.071 1197.89,389.249 1196.56,387.86C1195.3,386.295 1194.76,384.265 1195.08,382.28L1197.93,349.69C1197.96,347.678 1198.84,345.77 1200.36,344.45L1200.36,344.45Z" style="fill:rgb(132,179,23);fill-rule:nonzero;"/>
            </g>
            <g transform="matrix(1,0,0,1,-170.84,-75.66)">
                <path d="M1212.4,399.43L1200.96,398.43C1198.9,398.267 1196.89,397.732 1195.03,396.85C1193.23,396.017 1191.63,394.818 1190.32,393.33C1189.01,391.823 1188.02,390.059 1187.43,388.15C1186.78,386.017 1186.57,383.777 1186.8,381.56L1189.65,348.97C1189.81,346.732 1190.41,344.547 1191.41,342.54C1192.32,340.757 1193.6,339.188 1195.17,337.94C1196.73,336.732 1198.51,335.845 1200.41,335.33C1202.4,334.793 1204.48,334.617 1206.53,334.81L1217.88,335.81C1222.01,336.17 1225.17,337.53 1227.25,339.81C1229.46,342.402 1231.04,345.463 1231.89,348.76L1233.39,354.19L1224.71,356.47L1223.17,350.71C1222.86,349.103 1222.17,347.592 1221.17,346.3C1220.09,345.347 1218.69,344.823 1217.25,344.83L1205.68,343.83C1203.97,343.587 1202.23,344.022 1200.83,345.04C1199.48,346.241 1198.7,347.955 1198.68,349.76L1195.83,382.35C1195.54,384.125 1196.01,385.942 1197.13,387.35C1198.34,388.582 1199.98,389.3 1201.7,389.35L1213.18,390.35C1214.93,390.622 1216.73,390.202 1218.18,389.18C1219.39,388.25 1220.1,386.64 1220.29,384.42L1221.23,373.68L1209.23,372.63L1210.02,363.63L1231.09,365.48L1229.35,385.28C1229.19,387.482 1228.6,389.63 1227.6,391.6C1226.69,393.382 1225.43,394.958 1223.89,396.23C1222.36,397.474 1220.59,398.38 1218.68,398.89C1216.64,399.445 1214.51,399.628 1212.4,399.43L1212.4,399.43ZM1206.4,336.3C1204.52,336.124 1202.63,336.286 1200.81,336.78C1199.1,337.236 1197.5,338.032 1196.1,339.12C1194.7,340.231 1193.56,341.634 1192.75,343.23C1191.84,345.064 1191.29,347.057 1191.14,349.1L1188.29,381.69C1188.08,383.707 1188.27,385.746 1188.85,387.69C1189.91,391.14 1192.39,393.98 1195.67,395.5C1197.38,396.295 1199.21,396.783 1201.09,396.94L1212.53,397.94C1214.43,398.123 1216.35,397.964 1218.2,397.47C1219.9,397.022 1221.49,396.214 1222.86,395.1C1224.24,393.956 1225.38,392.54 1226.19,390.94C1227.09,389.143 1227.63,387.186 1227.78,385.18L1229.38,366.87L1211.3,365.29L1210.77,371.29L1222.77,372.35L1221.7,384.58C1221.46,387.24 1220.56,389.19 1219.02,390.4C1217.28,391.638 1215.13,392.164 1213.02,391.87L1201.55,390.87C1199.44,390.776 1197.45,389.869 1195.99,388.34C1194.58,386.618 1193.98,384.376 1194.32,382.18L1197.17,349.6C1197.21,347.378 1198.2,345.278 1199.89,343.83C1201.58,342.577 1203.7,342.028 1205.79,342.3L1217.36,343.3C1219.18,343.336 1220.93,344.049 1222.26,345.3C1223.43,346.758 1224.23,348.471 1224.61,350.3L1225.77,354.61L1231.53,353.09L1230.43,349.09C1229.64,346.021 1228.17,343.17 1226.13,340.75C1224.31,338.75 1221.48,337.54 1217.74,337.21L1206.4,336.3Z" style="fill:rgb(132,179,23);fill-rule:nonzero;"/>
            </g>
        </g>
    </g>
</svg>
