<?xml version="1.0" encoding="utf-8"?>
<!-- Generator: Adobe Illustrator 22.0.0, SVG Export Plug-In . SVG Version: 6.00 Build 0)  -->
<svg version="1.1" id="Ebene_1" xmlns="http://www.w3.org/2000/svg" xmlns:xlink="http://www.w3.org/1999/xlink" x="0px" y="0px"
	 viewBox="0 0 896.4 351.1" style="enable-background:new 0 0 896.4 351.1;" xml:space="preserve">
<g>
	<polygon fill="#82B624" points="334.4,-0.2 333.7,-0.4 334.4,-0.4 	"/>
	<path fill="#82B624" d="M335.9-0.4c0.2,0.5-0.7,0.2-1.2,0.2C334.9-0.2,335.4-0.6,335.9-0.4L335.9-0.4L335.9-0.4z"/>
	<path fill="#82B624" d="M338.7,0.3c1.2,0,2.9,0.2,4.1-0.2c0-0.5-0.7,0-1-0.2c1.2,0.2,3.6-0.5,4.3,0.7c0.5,0.2,1,0.2,1.2,0
		c0.5-0.7,1.4,0.7,1.7-0.5c-0.3-0.5-0.5-0.2-0.7-0.2c2.4-0.5,5,2.6,7.7,0.7V0.1c1.6,0.2,3.3,0,4.8,0.5l-3.6,0.2
		c0.5,0.9,1.4-0.2,2.4,0.7c1.2-0.7,2.6,0.5,3.6-1.2l-0.5,1.2c1.9-0.2,4.3,0.7,5.5-0.5H368c0.7,1.2,3.1-0.2,4.6,0.5l5.5,0.5
		c-0.2,0.2-0.2,0.9,0.5,0.9l1-0.2c-0.2-0.2-0.5-0.5-0.7-0.5c1-0.7,2.9,0.5,4.3,0.5c0.2,0.2-1.5,0.5-0.3,1.2l1.4-1.2l0.5,1.2
		c0.7,0,2.4-0.2,2.6-1.2c0.7,0-0.2,0.7,0,1c0.3,0.9,1.5-0.7,1.2,0.7c0.7,0,1.9-1,2.6,0c1.9-0.7,3.6,0.7,5.5,0
		c2.1,1.2,4.8,0.2,7.2,0.9c0,0.5-0.7,0.5-0.7,1l0.3,0.2c1.7-1.9,6.2-0.2,8.4,0.5c0.2-0.2,0-0.7,0.5-0.7c0.5,0.5,1,1.7,2.1,1.7
		l0.3-0.5c0-0.5-0.5-0.5-1-0.5h-0.2h-0.2c0.5-0.9,1.2,0,1.9,0c-0.3,0.2,0.3,0.7,0.7,1c0-0.5,0.5-0.8,0.2-1.2
		c2.4,0.9,5.5,0.7,7.2,1.9c0.7,0.2,1.4,0.7,2.4,0.5l-0.5-0.5c1.5,0,2.9,0.2,3.6,1.2c0.7-0.2,1.7-0.5,1.7,0.7
		c0.3-1.4,3.1-0.2,4.6-0.5c0.7,1.7,2.4,1.2,4.1,1.7c0.3-0.2,0-0.5,0-0.7l1.2,1.2c0.7-0.2,0.3-0.5,0-1c1.2-0.2,1.9,0.7,3.1,0.5
		c-0.9,0.5-1.9-0.7-2.6,0.2c-0.5,0.5,0.5,0.2,0.5,0.7c1.2-1.2,2.4,0.9,2.9-0.7c0.3,1,1,0.2,1.4,0.2c5,1.9,11.3,1.9,16.3,3.8
		l-0.5,0.5c1.4,0.7,3.6,0,3.6,1.7c1.2-0.3,1.4-2.2,3.1-0.7l1.2-0.2l-0.5,0.5c0.7,0.2,1.2,0.2,1.4-0.5l-0.2,0.2l1.2,0.5l-0.5,0.5h1.9
		l-1.2,0.7c0.5,3.4,4.6,1.9,6,2.9v0.2c0.9,0.3,1.7,0,2.9,0.5c-0.2-1-1.9-1.2-2.9-1.7h0.2l-0.5-0.7l-0.7,0.7l-4.1-0.7
		c0.7-0.2,1.7,0.2,2.2-0.5l-2.2-0.5c1,0,2.4-1.4,3.1,0c1.4-1.2,2.6,1.4,3.8,0.5c0.7,1.4,1.9,0.3,3.1,0.5c-0.7,1.2,0.7,1.7,1.7,1.7
		l-3.4,0.2c0.2,0.7,2.1,0,2.4,1.2h1c-1.7,0.5,0,2.1-0.7,2.9c0.7,1.7,1.5,0.3,2.6,1c1.7,1,3.6,1.2,5.5,1.7l-0.5-0.7
		c2.4,0,4.6,2.9,6.5,1.2c1.9-0.5,2.4,2.4,4.6,0.7c4.3,2.4,10.5,1.5,14.6,3.9l1.2-0.7c0.3,0.3,0.3,0.7,0.7,0.7
		c-0.5,0.2-1.2,0.5-1.7,1.2l0.9,0.7c-0.2,0.2-0.7-0.2-0.9,0.5c6.4,1.4,12.7,2.4,18.9,3.1v0.7c-12.7-1.7-25.4-4.3-37.8-5.8
		c-0.7,0.9-1.7-0.7-2.2,0.7c1.4,0.7,3.8-0.2,5.5,0.7l0.7,0.5c0.3-1.7,2.2-0.3,3.1,0.2c2.9,0,7.2,0.5,10.3,1.4c0.2,0.3,0,0.7,0.5,0.7
		l0.2-0.5c1.7,0.7,3.1,1.4,4.8,1.2l0.2-0.7c3.6,0.5,6.5,2.1,10,2.1c-1.7,0.7-4.5-0.7-6.7-0.7c-10.8-1.2-21.3-3.4-32.3-4.8
		c-1.2-1.2-3.4-0.2-5-0.9c-5-1-10.8-1.7-15.3-2.9c-2.4,0.7-5.3-1.2-8.1-1.5c-1.2-0.7-2.9,1.9-3.1-0.2c-0.7-0.2-2.2-1-2.9,0l-68.5-12
		c-37.6-6.2-81.5-5.5-119.6,1.9c-42.2,9.8-79.1,31.9-114,59.4c-5,4.8-10.8,9.8-16.8,13.7c-1.9,1.7-3.1,4.3-5.5,5.8h-0.5
		c9.3-15.8,27-29.2,40.5-41.7c4.3-3.6,9.8-6,13.2-10.1h-0.2c4.3-1.4,8.1-6.7,12.7-8.6c0.2,0.2,0.2,0.5,0.5,0.5
		c0.3-0.2,0.5-0.2,0.5-0.5l-0.2-0.3c2.6-1.9,6.5-3.4,9.3-5.3c4.1-3.4,8.9-3.6,12.7-7c3.1-1,5.5-3.1,9.1-3.3c0.5-1.2,1.9-1.7,3.1-1.9
		v0.2c7.4-3.4,15.8-6.5,23.7-9.1l0.7,0.5c1.7-2.4,4.8-0.7,7-2.9c1.4,1.2,4.1-0.3,5.8-0.7c-0.9-0.7-1.9,0.2-2.6,0.5
		c0.5-0.7,2.9-1.4,3.8-0.7c1.2-1.7,3.9-1,5.3-1.9c0.2-0.5,0,0.5,0.2,0.7c1.7-1.9,6-1.4,8.2-1.7l4.1-1c-0.5-0.7-2.6,0.5-4.1,0.5
		L296.7,3l0.5,0.5c0.5-1,3.1-1.2,4.3-1.2l-0.2,0.2c0.5,0.5,1.2,0.2,1.9,0.2L302,2c1.7,0.2,3.6-0.7,5,0.2l0.5-0.5l-1-0.5h1.9v0.5h1.4
		V1c2.4-1,2.4,0.9,5-0.5L314.3,1c0.7,0,1.9,0.5,2.4-0.2L315,0.6c0.5-0.5,1.4-0.2,2.1-0.2c-0.2,0.7,0.5,1,1,1
		c0.7-0.2,1.2-0.5,1.9-0.7c-0.3-1-0.7,0-1.2-0.2c1.4-1.9,1.2,2.2,2.4-0.5c0.3,0.5,0.3,1.2,1,1.2l0.2-0.5l-0.2-0.2h1.2
		c0,0-0.2,0.2,0,0.2c0,0.2,0,0.2,0.2,0.2l0.5-0.5l-0.2-0.2l3.8-0.7v1l3.8-0.2l-1.4-0.7h2.9l-0.5,0.7c1.7,0.7,3.1-0.5,5,0l-0.2-0.7
		h1.4V0.3L338.7,0.3L338.7,0.3z"/>
	<path fill="#82B624" d="M347.6-0.4c0.3,0.5-1.4,0.5-1.4,0H347.6L347.6-0.4L347.6-0.4z"/>
	<polygon fill="#82B624" points="355.5,0.3 354.1,-0.4 355.5,0.1 	"/>
	<path fill="#82B624" d="M366.3,0.6v0.2l-1-0.5C365.6,0.3,366,0.3,366.3,0.6L366.3,0.6L366.3,0.6z"/>
	<polygon fill="#82B624" points="311.6,1.3 311.6,1.3 310.9,1.8 310.9,1.5 	"/>
	<polygon fill="#82B624" points="407,6.1 407,5.8 408,6.1 407.7,6.3 	"/>
	<path fill="#82B624" d="M450.4,13.7c0,0.2-0.5,0.5-0.7,0.5C449.9,14,450.1,13.7,450.4,13.7L450.4,13.7L450.4,13.7z"/>
	<polygon fill="#82B624" points="470.3,20.2 470.3,20 471.2,20 471.2,20.2 	"/>
	<path fill="#82B624" d="M484.9,21.7l-0.2,0.5l0.2-1.2C484.9,20.9,485.4,21.4,484.9,21.7L484.9,21.7L484.9,21.7z"/>
	<polygon fill="#82B624" points="486.8,20.9 486.8,20.7 487.5,20.9 487.5,21.2 	"/>
	<path fill="#82B624" d="M488.7,21.2c0,0.2-0.5,0-0.9,0C488,21.2,488.5,20.7,488.7,21.2L488.7,21.2L488.7,21.2z"/>
	<path fill="#82B624" d="M489.7,21.7c-0.7,0.5,0,1,0.2,1.4c-0.7-0.2-0.9,0.5-0.7,1c-0.5-0.5-1.7-0.5-1.4,0c0.2-0.2,0.2-1,0-1.2
		c-0.5-0.5-1.2-0.2-1.7-0.2c0.7-0.7-0.7-0.3-0.5-1C487,22.6,488.2,21.9,489.7,21.7L489.7,21.7L489.7,21.7z"/>
	<polygon fill="#82B624" points="492.1,22.4 491.6,21.7 492.1,22.1 	"/>
	<path fill="#82B624" d="M494.5,23.6c-0.5,0.7-2.9-0.5-2.2,1.4c1.2,0.7,1.7-0.2,2.6-0.5l-0.2-0.5c1.5,0.2,1.2-1.4,2.4,0l-0.7,0.7
		c0.2,0,0,0.2,0,0.5c-0.2-0.7-1.4-0.3-1.9,0.2c1.7,1.7,2.4-1.2,4.1-0.7c0.5-1.7,1.7,0.5,2.2-0.5l-0.3,0.2c0.5,0.9,1.4-0.2,2.2-0.2
		c-1,0.5,0,1.4,0,1.9c-2.6,0.2-4.1-2.6-5.5-0.3c1.7,1.4,0.7-1,2.4-0.5l-1.3,0.9l6.2,1.7l0.2-0.5l12.2,2.9l1.4-1.2
		c-1.7,1.7,0.9,1.2,1.4,1.9c3.8-0.5,8.2,1.7,11.8,1.9c2.6,0.5,6.2,0.9,9.1,1.2c6.7,1.7,13.2,4.1,20.9,3.8c-1.7-0.5-4.6,1.2-6,0
		c-2.2,0-6-0.5-7.9-0.5c-1-1.7-3.4,0.2-5-0.9c0.2,0,0-0.7,0.2-0.7c1,0,1.9,0.5,2.6,0.2c-1.2-0.7-3.3-1.9-4.5-0.5
		c-2.2,1.4-4.3-1.4-6.3-0.2l-0.7-0.7c-0.2,0.2-0.2,0.7-0.7,0.7c-0.7-2.9-3.8-1.4-5.5-1.2l0.2-0.2c-1,0-2.2-0.9-2.6,0.2h-0.5
		c-0.2-0.5,0.5-0.5,0.5-1c-0.5-0.5-1,0-1.7-0.2l0.5,0.9c-0.7-0.5-0.7-0.9-1.9-0.2h-0.5c0.2-0.5,0.7-0.7,0.5-1.4
		c-0.3,0.2-1.4-0.2-1.4,0.7v0.2l-0.7-1c-0.3,1-0.7,0-1.5,0c-1.7-0.5-3.6,0.7-5-0.7c1-0.2,1.7,0.7,2.6,0.5c-0.2-1-2.6-1.2-3.6-1
		c-1,1.2-2.2-1-3.8-1l-0.7,1l-0.7-0.7l0.5-0.4l0.2,0.4c1.4-1.2,3.6,0.5,5,0c-3.3-1.9-7.9-0.7-10.8-0.4l-0.3-1l-0.5,0.2
		c-0.4-0.9-2.4-0.7-3.6,0c0.2-0.7-2.2-0.7-2.9-1.4l-1.2,0.3c1-1.4,2.9,0,4.3-0.5v0.5l3.8,0.5c-4.6-2.4-11.3-2.2-16.8-3.8
		c1.4-0.7,4.1,1.4,6-0.2l-1.7-0.5l1.9-0.2l-0.5-1.2C491.3,23.6,493.5,23.1,494.5,23.6L494.5,23.6L494.5,23.6z"/>
	<path fill="#82B624" d="M487.5,23.3c-0.5,0-1.4,0.7-1.4-0.2L487.5,23.3L487.5,23.3L487.5,23.3z"/>
	<path fill="#82B624" d="M504.3,25.5c1.7,0.7,3.6,0.2,4.6,1.2c2.4-2.4,2.4,1.7,5,0.7c1-1,1.4,0,2.6-0.7c0.5,0.5,0,0.9-0.2,0.9
		c0.5,0.7,2.2-0.9,1.9,1c-1-0.2-1.9-0.5-3.1-0.5l1,0.7h-1.9l0.7-0.2c-0.2-0.5-0.5-1-1.2-0.7c-0.5,0-1.7,1.2-2.6,0.5l0.9-0.5
		c-0.5-1.2-2.1-0.5-3.1-1.2v0.5l1.2,0.7c-1.7-0.5-5.8,0-7.2-2.4l1.4-0.9L504.3,25.5L504.3,25.5L504.3,25.5z"/>
	<polygon fill="#82B624" points="506.5,25.2 506,24.8 506.5,24.8 	"/>
	<path fill="#82B624" d="M487.8,26.4c0.5-0.2,1.2,0.3,1.4-0.5l4.8,0.9c-0.5,0.3-1.2,0.7-1.9,1v-1.2c-2.2,0.5-1.9-0.7-3.4,0.5
		c-1.4-0.9-4.8-0.3-4.5-2.2C485.6,25.2,487.8,25.2,487.8,26.4L487.8,26.4L487.8,26.4z"/>
	<polygon fill="#82B624" points="513.6,26.2 512.4,26 513.6,26 	"/>
	<path fill="#82B624" d="M527.3,30v0.2c-1,1-2.2-0.7-3.6,0c-0.9-1.2-3.1-0.7-4.8-1.4l1.4-0.2v-0.7C522.8,28.6,524.9,29.8,527.3,30
		L527.3,30L527.3,30z"/>
	<path fill="#82B624" d="M524.7,28.8h-1c0.2,0,0.5-0.7,1-0.5V28.8L524.7,28.8z"/>
	<path fill="#82B624" d="M495.2,28.8v0.5l-0.5-0.7C494.9,28.6,494.9,28.8,495.2,28.8L495.2,28.8L495.2,28.8z"/>
	<path fill="#82B624" d="M528.7,29.1c-0.7,1.2-2.4-0.5-2.9-0.5L528.7,29.1L528.7,29.1L528.7,29.1z"/>
	<path fill="#82B624" d="M500.9,28.8c0,0.5-0.5,0.7-0.7,0.5C500,29.1,500.7,28.8,500.9,28.8L500.9,28.8L500.9,28.8z"/>
	<path fill="#82B624" d="M530.4,30.8l-2.4-0.3V30C529,29.8,529.7,30.5,530.4,30.8L530.4,30.8L530.4,30.8z"/>
	<polygon fill="#82B624" points="510.5,31.2 509.8,31 510.5,31 	"/>
	<path fill="#82B624" d="M528,31.5h-1c0.2-0.5,0.5-0.5,1-0.5V31.5L528,31.5z"/>
	<path fill="#82B624" d="M532.3,31c-0.3,0.2-1.4,0.5-1,0H532.3L532.3,31L532.3,31z"/>
	<polygon fill="#82B624" points="539.3,31.2 539.5,31 541,31.7 	"/>
	<path fill="#82B624" d="M546.5,33.6c-0.5,0.7-1.4-0.7-1.9,0.5l0.7,0.5c-0.7,0.2-2.2-2.9-2.9-0.5l-0.7-0.2h0.2
		c-2.2-1.7-6.2-2.1-9.3-1.7c1.7-1.9,4.3-0.5,6.5,0C541.7,32.2,544.1,32.9,546.5,33.6L546.5,33.6L546.5,33.6z"/>
	<polygon fill="#82B624" points="535.9,32.9 535.2,32.7 535.9,32.7 	"/>
	<path fill="#82B624" d="M546.9,32.7c-0.3,0.2,0,0.2,0,0.2l-0.5-0.2H546.9L546.9,32.7L546.9,32.7z"/>
	<path fill="#82B624" d="M549.1,32.9c-0.3,0.2-0.5,0.5-0.3,0.9c0.3,0.7,0.7-0.5,0.7,0.2c-0.7,0.5-2.4-0.5-3.1,0.5
		C546.5,33.6,548.4,33.2,549.1,32.9L549.1,32.9L549.1,32.9z"/>
	<path fill="#82B624" d="M551.3,33.2c-0.3,0.5-1.2,0.5-1.4,0.2C550,32.7,550.8,32.9,551.3,33.2L551.3,33.2L551.3,33.2z"/>
	<path fill="#82B624" d="M551.7,34.3c-0.2,0.7-1,0-1.7,0.3l0.2-0.5C550.8,34.3,551.3,33.9,551.7,34.3L551.7,34.3L551.7,34.3z"/>
	<path fill="#82B624" d="M554.1,34.3c-0.7,0.5-0.9,0-1.7,0.3v-0.5C552.9,34.3,553.6,34.1,554.1,34.3L554.1,34.3L554.1,34.3z"/>
	<path fill="#82B624" d="M540.7,37.7l-19.6-1.9h1l-2.6-1.4l0.3-0.2C526.6,35.8,534,36.5,540.7,37.7L540.7,37.7L540.7,37.7z"/>
	<path fill="#82B624" d="M556,34.6l-1.2-0.3C555.1,34.1,555.8,33.9,556,34.6L556,34.6L556,34.6z"/>
	<polygon fill="#82B624" points="529.9,34.8 530.4,34.3 531.6,34.6 	"/>
	<polygon fill="#82B624" points="554.4,35.3 555.1,34.8 555.6,35.3 	"/>
	<path fill="#82B624" d="M560.8,35.3c-1,2.1-3.1-0.2-4.6,0C557.7,34.6,559.6,37,560.8,35.3L560.8,35.3L560.8,35.3z"/>
	<path fill="#82B624" d="M552,36.5c-0.5,0.2-0.2-0.7-0.2-1.2C552.5,35.5,552,36.3,552,36.5L552,36.5L552,36.5z"/>
	<polygon fill="#82B624" points="553.2,36.3 553.2,35.8 554.4,36 	"/>
	<path fill="#82B624" d="M563.2,36.5l-1.9-0.3C561.8,35.5,562.7,35.5,563.2,36.5L563.2,36.5L563.2,36.5z"/>
	<polygon fill="#82B624" points="555.6,36.5 556.3,36.3 557.5,36.3 	"/>
	<polygon fill="#82B624" points="521.8,37 521.8,36.5 523,36.5 	"/>
	<polygon fill="#82B624" points="526.8,37.2 526.8,36.8 528,37 	"/>
	<path fill="#82B624" d="M560.8,37.2c-0.3,0.5-1.2,0.2-1.5-0.3C559.9,37,560.6,36.8,560.8,37.2L560.8,37.2L560.8,37.2z"/>
	<polygon fill="#82B624" points="562.5,37.7 561.8,37.2 562.5,37.2 	"/>
	<path fill="#82B624" d="M532.3,38.4l-2.4-0.5C530.6,36.5,531.4,38.4,532.3,38.4L532.3,38.4L532.3,38.4z"/>
	<path fill="#82B624" d="M543.6,38c-0.3,0-1.2,1.2-1.4,0C542.6,37.5,543.1,38,543.6,38L543.6,38L543.6,38z"/>
	<path fill="#82B624" d="M537.8,39.2h-0.9l0.2-0.7C537.1,38.7,537.8,38.7,537.8,39.2L537.8,39.2L537.8,39.2z"/>
	<path fill="#82B624" d="M520.6,38.7c-0.7,0.5-1.5,0.5-2.2,0.2C519.1,38.4,519.9,38.7,520.6,38.7L520.6,38.7L520.6,38.7z"/>
	<path fill="#82B624" d="M563.5,39.4l-5.7-0.5c1.4-1.4,3.8,1,5.7,0V39.4L563.5,39.4z"/>
	<path fill="#82B624" d="M541,39.6h-1l0.2-0.3l-0.9-0.7C540,38.7,541,38.9,541,39.6L541,39.6L541,39.6z"/>
	<path fill="#82B624" d="M539.5,40.4c-0.2,0-1-0.5-1.2,0.2l5.8,1.7c-2.4,0-5.8-0.9-7.4-2.2L539.5,40.4L539.5,40.4L539.5,40.4z"/>
	<path fill="#82B624" d="M546.7,42.7h-1.9v-0.5C545.3,42.5,546.2,42.3,546.7,42.7L546.7,42.7L546.7,42.7z"/>
	<path fill="#82B624" d="M557.7,46.1l-5.3-0.4v-0.5C554.8,45.4,555.6,45.8,557.7,46.1L557.7,46.1L557.7,46.1z"/>
	<path fill="#82B624" d="M577.6,48c-0.7,3.1,3.1,5.7-0.5,8.4c-2.9,1.2-3.9,4.1-6.7,5c0,1.7-1.4,2.2-2.9,2.4l-5.8-1.4
		c-2.9,2.6-6,5-8.9,7.4l0.3,0.5l-1.4,0.2c1,1.2-1.5,1.9-1.9,2.9c-1.7-0.3-0.5,1.9-2.2,1.9c0.2,0.2,0.5,0.2,1,0.2
		c-0.7,0.3-1.4,1.4-1.9,0.5c-1.2,0.7-0.5,2.6-2.6,1.7v0.5c-0.5-0.5-1.4,0-1.2,0.7c-0.2,0.5,0.5,0.5,0.5,0.7c0.3-0.5,1.2-0.5,1.7-0.5
		l-2.9,3.3l-0.2-1c-0.7-0.5-1.7,0.7-1.4,1.2c0.5,0.2,0.9,0,1.4,0l-1.7,1.7c-0.2-0.7-0.9-0.2-1.2,0l0.5,0.7l-2.4,0.3
		c1.5,1.2-0.7,2.6-1.7,2.9c-0.5,0.2-0.7,0.7-1,0.9l0.5,0.5h-0.3v0.5c-1.2,0-2.6,0.2-3.6,1.7l1.2,0.2l-1.4,0.5l0.7,0.5
		c-0.5,0-0.7,0.5-0.7,1c-0.5,0-1.9,0.2-2.7,0.7c0,0.2,0.3,0.5,0.3,0.7l-0.5,0.5c-0.2-0.7-1-0.5-1.5-0.5l1,1.2
		c-1,2.6-3.3-0.7-4.5,1.4c0.5,1,2.2-0.5,1.9,1.2c-1,0.2-1.2,1.9-2.4,1.2c-0.7-1.2-2.8,1.9-4.1-0.5c-0.7,0-2.2,1.2-1,1.4
		c-0.5-1-1.7,0.5-2.4,0.7l0.5,0.9l-2.2,1.4c1.4,0.5,1.9-1,2.9-1.4v-1.2c0.5,1.4,1.4-0.3,1.9-0.5c1.9,0.5,4.1-0.7,6-0.5l-0.7,0.2
		l0.5,0.5c-1,1.2-3.1-0.5-4.1,0.7c0.3,0.2,0.5,0.5,0.5,0.7c-0.5,0-1.4-0.5-1.7-1.2l-1.7,1.4l0.9,0.2l-1.2,0.5c0.3,0.7,1.4,0,2.2,0
		v0.2l1.7,0.3c-2.2,0.9-3.4,2.4-5.8,2.9l0.2-1.7c-1.2-0.2-1.4,1.9-2.6,1.5c-0.9,0.7-2.9,2.4-4.3,1.4c0.5-0.3,1.4,0,1.2-0.8
		c-0.7-0.7-1.4,0.3-2.4,0.5v0.5c-1.2-1.7-2.2,1-3.1,1.4c0.9,0.5,1.9-0.7,3.1-0.5l-2.4,1.9c0.5-0.5-0.5-1.2-1.2-1.2
		c-1,0-1.7,0.5-2.1-0.3l-2.7,1.5c1,1.2,1.7-0.5,2.9,0l-0.7,0.5l0.2,0.7l-0.5,0.2l-0.2-0.5c-1,0.5-2.1,1-3.1,1.7l1,1
		c-2.2-0.7-4.3,1.7-6.2,2.6l-0.2-0.2c-1,2.6-3.8,1.7-5,4.1c-1.5-0.5-2.2,1.7-4.1,1.7c-3.1,3.6-8.4,2.6-11.3,6.5c0.2,0,0.2,0.5,0,0.5
		c-2.6-0.5-4.8,3.1-7.9,3.3c0.7-1.9,3.4-1.4,4.3-2.9c2.2-1.2,5.3-3.1,7.7-4.8c0.5,0,1-0.5,1.4-1c-0.2-1-1.4-0.2-1.9,0.3l0.5-1
		c8.4-5.3,16-13.4,24.2-18.7l1.2-1.4c-3.9,1-6.5,5-10.3,6c2.4-2.1,5.3-3.3,6.2-6.2l0.5,0.2l22.3-21.5l0.3,0.7l1.4-1.9l0.5,0.5
		c-0.2-1.7,1.4-0.9,2.2-2.4c4.3-5.5,10.1-10.3,14.1-15.6h0.5c0,0.3-0.2,0.3-0.5,0.5c2.4,0,3.6-4.3,6.2-3.8c2.6-2.4,5.3-4.8,8.2-6.2
		l-1-0.7c0.2-1.2,1.4-0.2,1.9-0.7l-0.3-1c7-0.2,12-6,19.4-4.8C574,45.4,575.9,47.8,577.6,48L577.6,48L577.6,48z"/>
	<path fill="#82B624" d="M516.5,105.3c-0.2,0-1,0.7-1,0H516.5L516.5,105.3L516.5,105.3z"/>
	<path fill="#82B624" d="M510,111.5l0.2,0.2l-2.9,1.4l-0.5-0.7c-1.2,1-2.6,0.7-3.8,1.7c0.3,0.4,0.7,0.2,1,0.2c-2.2,0.7-3.3,1.9-5.5,2.6
		l1.7,0.2l-3.1,0.5c0,1-2.1,0-1.2,1.4c1.2,0.3,2.6-0.7,3.8-0.7c-3.8,1-7.7,2.6-11.3,4.8l0.7,0.7c-0.9,0.7-1.4-0.3-2.6,0.2
		c0.5,1.2-1.5,0.5-1.9,1.4c-0.9,0.5-1.9,1.7-3.4,1c3.8-0.7,6-4.8,10.1-5.5l7-5l-0.2,0.5c1.9-0.3,3.6-2.4,5-3.6l0.3,0.5l4.3-3.6
		c1.7,0.9,2.6-0.5,4-0.7c0-1.4,1.4,0,1.9-0.9C514.6,110.1,511.2,109.8,510,111.5L510,111.5L510,111.5z"/>
	<polygon fill="#82B624" points="507.4,111.7 510,110.3 510.5,110.3 	"/>
	<path fill="#82B624" d="M503.1,111.3c0.5,1.4-1,0.5-1.4,1.4l-0.2-0.5C502.4,112.4,502.1,111.5,503.1,111.3L503.1,111.3L503.1,111.3z"
		/>
	<polygon fill="#82B624" points="508.8,111.7 508.8,111.5 509.3,111.5 509.3,111.7 	"/>
	<polygon fill="#82B624" points="501.9,113.7 501.2,113.2 501.9,113.2 	"/>
	<path fill="#82B624" d="M505,114.8c0,0.5-1.2,1.4-2.1,1.7C502.9,115.3,504.1,114.8,505,114.8L505,114.8L505,114.8z"/>
	<polygon fill="#82B624" points="495.2,116.8 494.7,116.5 495.2,116.5 	"/>
	<path fill="#82B624" d="M502.6,116.5c-0.5,0.7-1.2,1.2-1.9,1.2C500.7,117,501.9,116.8,502.6,116.5L502.6,116.5L502.6,116.5z"/>
	<path fill="#82B624" d="M496.9,120.8h-0.2c-0.5-0.5,0.7-0.5,0.9-1.2C497.8,120.1,497.3,120.6,496.9,120.8L496.9,120.8L496.9,120.8z"/>
	<path fill="#82B624" d="M496.2,121.3c-3.4,1.4-5.8,4.1-9.6,5.3C490.2,125.4,492.3,122,496.2,121.3L496.2,121.3L496.2,121.3z"/>
	<polygon fill="#82B624" points="485.6,127.3 485.4,127.1 485.6,127.1 	"/>
	<path fill="#82B624" d="M480.1,128.3l0.5,0.5c-0.7,0.7-2.4,0-2.9,1.2c-0.2-2.2,2.2-1.7,3.6-2.9L480.1,128.3L480.1,128.3z"/>
	<path fill="#82B624" d="M480.3,130.2l3.8-2.4C484.2,129.5,481.5,129.7,480.3,130.2L480.3,130.2L480.3,130.2z"/>
	<polygon fill="#82B624" points="473.6,129 474.1,128.3 474.6,128.3 	"/>
	<path fill="#82B624" d="M474.3,132.1c-2.1,0.2-3.6,3.3-5.5,2.4v-0.7h0.5l-0.2,0.3c0.5,0.2,1.7,0,1.4-0.7c0.7,0.5,1.9-1,2.4-1.2h-0.5
		c0.2-0.7,1.5-0.5,1.9-0.7l2.7-1.9C477.5,131.4,474.3,130,474.3,132.1L474.3,132.1L474.3,132.1z"/>
	<path fill="#82B624" d="M479.9,130.9L479.9,130.9l-0.5-0.5C479.6,130.4,479.9,130.7,479.9,130.9L479.9,130.9L479.9,130.9z"/>
	<path fill="#82B624" d="M479.1,131.4c0.2,0.5-0.5,0.2-1,0.2l0.7-0.7L479.1,131.4L479.1,131.4L479.1,131.4z"/>
	<path fill="#82B624" d="M477.7,132.1c0,0.2-0.2,0.5-0.2,0.5v-0.5H477.7L477.7,132.1L477.7,132.1z"/>
	<path fill="#82B624" d="M476.7,132.6l-0.2,0.5l-0.2-0.5C476.3,132.6,476.7,132.3,476.7,132.6L476.7,132.6L476.7,132.6z"/>
	<polygon fill="#82B624" points="462.4,135 462.6,134 463.3,134 	"/>
	<path fill="#82B624" d="M468.8,135.2v0.5c-1.4-0.7-3.1,1.5-4.3,1.7l1.2-1.4c0-0.3-0.5,0-0.2-0.3h1.4l-0.7-0.5h0.2
		C466.7,136.6,468.1,134.3,468.8,135.2L468.8,135.2L468.8,135.2z"/>
	<polygon fill="#82B624" points="464.5,136.4 464.7,136 465,136 	"/>
	<polygon fill="#82B624" points="461.9,138.6 464.1,137.6 461.9,139.1 	"/>
	<path fill="#82B624" d="M461.2,139.8c-0.5,0-0.9,0.2-1.4,0.2l1.2-1.2C461.2,139.1,461.2,139.5,461.2,139.8L461.2,139.8L461.2,139.8z"
		/>
	<path fill="#82B624" d="M459.2,139.8h-0.5l0.2-0.5C459.5,139.1,459.2,139.5,459.2,139.8L459.2,139.8L459.2,139.8z"/>
	<path fill="#82B624" d="M457.6,140.7h-0.5l0.3-0.7C457.6,140,457.6,140.5,457.6,140.7L457.6,140.7L457.6,140.7z"/>
	<polygon fill="#82B624" points="339.7,49.7 339.9,49.4 340.7,49.7 	"/>
	<path fill="#82B624" d="M322.9,52.6c-0.5,0.5-2.4-0.5-3.3-1.2l-0.3-0.7C320.5,50.6,322,51.4,322.9,52.6L322.9,52.6L322.9,52.6z"/>
	<polygon fill="#82B624" points="343,51.4 343.3,51.1 345.9,52.6 345.7,52.8 	"/>
	<path fill="#82B624" d="M485.8,56.9c0,0.5-1,0.2-1.2,0.2C484.2,56.6,485.4,56.4,485.8,56.9L485.8,56.9L485.8,56.9z"/>
	<path fill="#82B624" d="M476.7,57.8c0,0.2-0.2,0.2-0.5,0.5L476,58l0.2-0.7l1.7,0.5H476.7L476.7,57.8L476.7,57.8z"/>
	<path fill="#82B624" d="M474.6,57.8l-0.2,0.2l-0.5-0.5C474.3,57.4,474.3,57.6,474.6,57.8L474.6,57.8L474.6,57.8z"/>
	<polygon fill="#82B624" points="479.1,57.8 478.2,57.6 478.9,57.6 	"/>
	<polygon fill="#82B624" points="471.9,57.8 471.9,57.6 473.1,57.8 473.1,58.1 	"/>
	<path fill="#82B624" d="M469.6,58.1c0,0.7-1.2,0.7-1.9,0.7C468.1,58.1,468.8,57.8,469.6,58.1L469.6,58.1L469.6,58.1z"/>
	<path fill="#82B624" d="M467.1,58.6c-0.2,0.7-0.9,0-1.2-0.2C466.4,58.3,466.9,58.3,467.1,58.6L467.1,58.6L467.1,58.6z"/>
	<path fill="#82B624" d="M454.7,59.3H454c-0.2-0.5,0.2-0.5,0.7-0.5V59.3L454.7,59.3z"/>
	<path fill="#82B624" d="M462.6,59v0.2l-1-0.5C462.1,58.8,462.4,59.3,462.6,59L462.6,59L462.6,59z"/>
	<path fill="#82B624" d="M453.5,59.3l-2.6,0.7C451.3,59.5,452.6,58.6,453.5,59.3L453.5,59.3L453.5,59.3z"/>
	<path fill="#82B624" d="M459.2,59.3c0,0,0,0.3-0.2,0.3h-0.2v-0.5C459,59,459.2,59,459.2,59.3L459.2,59.3L459.2,59.3z"/>
	<polygon fill="#82B624" points="461.4,59.3 460.2,59 461.2,59 	"/>
	<path fill="#82B624" d="M448.9,60.2h-0.7c0-0.2,0.3-0.7,0.7-0.5V60.2L448.9,60.2z"/>
	<path fill="#82B624" d="M448.5,61.2c-0.3-1.4-1.9-0.2-3.1-0.7C445.6,60.2,448.7,59.5,448.5,61.2L448.5,61.2L448.5,61.2z"/>
	<path fill="#82B624" d="M455.4,60c-1.2,1.4-3.8,0.5-5.5,1C450.9,59.5,453.7,60.7,455.4,60L455.4,60L455.4,60z"/>
	<polygon fill="#82B624" points="437.2,61.4 442.7,60.5 444.6,60.5 	"/>
	<polygon fill="#82B624" points="436,61.9 436,61.2 436.7,61.2 	"/>
	<path fill="#82B624" d="M445.1,61.4c-0.2,0.2-1.7,1-2.4,0.2c-3.1,1.9-7.2,0.5-10.5,1.9C436,61.9,440.6,61.9,445.1,61.4L445.1,61.4
		L445.1,61.4z"/>
	<polygon fill="#82B624" points="430.5,62.4 432.9,61.9 434.3,61.9 	"/>
	<path fill="#82B624" d="M421.6,62.6c0,0.5-1.4,0.5-1.2,0H421.6L421.6,62.6L421.6,62.6z"/>
	<path fill="#82B624" d="M431.2,63.1c-0.5,0.5-1.4,0.5-1.9,0.7v-0.7C429.8,63.1,430.7,63.1,431.2,63.1L431.2,63.1L431.2,63.1z"/>
	<path fill="#82B624" d="M428.3,63.8l-4.1,1C425,64.5,426.7,63.1,428.3,63.8L428.3,63.8L428.3,63.8z"/>
	<path fill="#82B624" d="M446.1,64.8c0,0.4-0.2,0.4-0.5,0.7l-0.2-0.7H446.1L446.1,64.8L446.1,64.8z"/>
	<path fill="#82B624" d="M439.1,65.2c-0.5,0-1,0.5-1.7,0.3C437.7,64.8,438.7,65,439.1,65.2L439.1,65.2L439.1,65.2z"/>
	<path fill="#82B624" d="M442,65.5c0,0.2-1.2,0.5-1.9,0.5C440.6,65.5,441.3,65.2,442,65.5L442,65.5L442,65.5z"/>
	<path fill="#82B624" d="M443.4,65.5c0,0.2-0.5,0.2-0.9,0.2C442.5,65,443.2,65.5,443.4,65.5L443.4,65.5L443.4,65.5z"/>
	<path fill="#82B624" d="M446.1,66c-0.9,0-1.9,0.5-2.9,0.3C443.9,65.7,445.1,66,446.1,66L446.1,66L446.1,66z"/>
	<path fill="#82B624" d="M429.3,66.7c-0.5,0.5-1.7,0.5-2.4,0.7C427.1,66.5,428.6,67,429.3,66.7L429.3,66.7L429.3,66.7z"/>
	<path fill="#82B624" d="M399.6,67.9c-4.5,2.4-10.3,1.9-15.3,3.4C388.6,68.9,394.6,69.6,399.6,67.9L399.6,67.9L399.6,67.9z"/>
	<polygon fill="#82B624" points="408.9,68.9 407.7,68.4 408.7,68.9 	"/>
	<path fill="#82B624" d="M381.4,71.7c-0.5,0.7-1.2,0.5-1.7,0.5l1.2-1.2L381.4,71.7L381.4,71.7L381.4,71.7z"/>
	<path fill="#82B624" d="M372.3,73.4c1.4-1.2,4.5-1.2,6.5-1.4L372.3,73.4L372.3,73.4L372.3,73.4z"/>
	<path fill="#82B624" d="M370.4,73.4c0,0.7-1,0.5-1.4,0.5C369.2,73.4,369.9,73.4,370.4,73.4L370.4,73.4L370.4,73.4z"/>
	<polygon fill="#82B624" points="345.2,76.8 345.4,76.3 346.4,76.5 	"/>
	<polygon fill="#82B624" points="346.9,77.7 346.9,77.2 347.9,77.2 	"/>
	<polygon fill="#82B624" points="340.9,77.7 340.9,77.2 341.8,77.5 	"/>
	<path fill="#82B624" d="M346.4,77.7l-0.8,0.2l-0.2-0.5C345.9,77.5,346.1,77.2,346.4,77.7L346.4,77.7L346.4,77.7z"/>
	<path fill="#82B624" d="M345,77.9l-1.9,0.5C343.5,78.4,344,77.5,345,77.9L345,77.9L345,77.9z"/>
	<path fill="#82B624" d="M341.1,79.2h0.7c-0.5,0.5-1.2,1-2.1,0.7L341.1,79.2c-0.2-0.2-0.5,0-0.5,0c0.2-0.7,1.4-0.2,1.9-1L341.1,79.2
		L341.1,79.2z"/>
	<path fill="#82B624" d="M338.3,78.7c0.2,0.2,0.2,0.5,0.2,1l0.9,0.2c-1.4,1.7-2.4-1-3.4,1c0-0.7-0.2-1.7,0.7-1.9l-3.6,0.5
		c1.2-0.9,2.9-0.9,4.1-0.2C337.3,78.4,338,78.9,338.3,78.7L338.3,78.7L338.3,78.7z"/>
	<path fill="#82B624" d="M348.1,78.4c0.2,0.7-0.5,0.5-0.7,0.7v-0.7H348.1L348.1,78.4L348.1,78.4z"/>
	<path fill="#82B624" d="M210.8,79.2h-1.9v-0.5C209.6,78.4,210.1,78.9,210.8,79.2L210.8,79.2L210.8,79.2z"/>
	<path fill="#82B624" d="M342.3,80.4c0.7-0.7,2.9-1.4,4.5-1.2L342.3,80.4L342.3,80.4L342.3,80.4z"/>
	<polygon fill="#82B624" points="330.8,79.6 331.5,79.4 332.3,79.4 	"/>
	<path fill="#82B624" d="M333.9,80.6v1.2l4.6-1c-1.9,0.7-4.3,1.4-6.5,2.1l1.7-1.2c-0.2-0.3-0.5,0-0.7-0.3c0,0,0.7-0.5,0.7-0.7l-4.8,1.2
		C330.6,81.5,332.5,78.7,333.9,80.6L333.9,80.6L333.9,80.6z"/>
	<path fill="#82B624" d="M330.8,80.4c-0.2,0.7-2.2,0.5-3.1,1C328.4,79.4,330.1,81.3,330.8,80.4L330.8,80.4L330.8,80.4z"/>
	<polygon fill="#82B624" points="327.2,80.4 327.5,80.6 327,81.1 327,80.8 	"/>
	<path fill="#82B624" d="M336.6,83.5c2.9-1,6.5-2.2,9.8-2.2L336.6,83.5L336.6,83.5L336.6,83.5z"/>
	<polygon fill="#82B624" points="339.7,84 349.7,81.5 350.2,81.5 	"/>
	<polygon fill="#82B624" points="324.6,81.5 324.8,81.8 324.1,82 323.9,82 	"/>
	<path fill="#82B624" d="M320.5,82.3L321,82L320.5,82.3z"/>
	<path fill="#82B624" d="M316.2,83.7H316l1.2-0.9C317.4,83.5,316.7,83.7,316.2,83.7L316.2,83.7L316.2,83.7z"/>
	<path fill="#82B624" d="M226.8,84l-2.1-1C225.6,83,226.6,83.2,226.8,84L226.8,84L226.8,84z"/>
	<polygon fill="#82B624" points="350,84.2 352.4,83.5 351.4,84 	"/>
	<polygon fill="#82B624" points="228,84 227.3,83.5 228,83.5 	"/>
	<polygon fill="#82B624" points="330.8,84.6 331.1,84.6 330.3,85.1 330.1,85.1 	"/>
	<path fill="#82B624" d="M354.3,84.6c-0.7,0.5-1.2,1-2.2,0.8C352.6,85.1,353.6,84.6,354.3,84.6L354.3,84.6L354.3,84.6z"/>
	<polygon fill="#82B624" points="335.4,85.4 335.6,85.1 335.9,85.1 	"/>
	<path fill="#82B624" d="M351.7,85.1c-2.9,1.7-7.4,1.7-11,2.9v0.5c-2.9,0.5-7.2,1.4-8.9,1.7C338,88.5,345,86.1,351.7,85.1L351.7,85.1
		L351.7,85.1z"/>
	<path fill="#82B624" d="M318.8,86.8h-0.7C318.1,86.4,318.6,86.6,318.8,86.8L318.8,86.8L318.8,86.8z"/>
	<polygon fill="#82B624" points="327.7,89.5 334.2,87.1 334.9,87.5 	"/>
	<path fill="#82B624" d="M342.3,89c-1.2,0.2-0.7,1.4-2.4,1.2C340.4,89,341.4,89.5,342.3,89L342.3,89L342.3,89z"/>
	<path fill="#82B624" d="M333.9,92.1l0.2-0.7l-1-0.2c1.9-0.5,3.8-0.2,5.8-0.9L333.9,92.1L333.9,92.1z"/>
	<polygon fill="#82B624" points="251.5,90.9 250.6,90.4 251.3,90.4 	"/>
	<polygon fill="#82B624" points="296.6,91.6 296.8,91.6 296.8,91.4 296.6,91.4 	"/>
	<path fill="#82B624" d="M333.7,91.9c-0.2,0.2-0.9,0.2-1.4,0.5C332.5,91.9,333,91.6,333.7,91.9L333.7,91.9L333.7,91.9z"/>
	<polygon fill="#82B624" points="321.5,93.8 321.5,93.5 322.9,93.8 	"/>
	<path fill="#82B624" d="M317.2,95.5c0.5-0.9,1.9-0.3,2.4-1.4l0.5,0.5L317.2,95.5L317.2,95.5L317.2,95.5z"/>
	<path fill="#82B624" d="M247.2,103.1c5.5-1.9,8.9-3.8,14.4-5C257.5,100,252.2,101.9,247.2,103.1L247.2,103.1L247.2,103.1z"/>
	<path fill="#82B624" d="M223,109.8c-0.5,0.5-1.4,0.5-1.9,0.7C221.3,110.1,222.3,110.1,223,109.8L223,109.8L223,109.8z"/>
	<path fill="#82B624" d="M220.4,110.6c-0.5,0.2-1,0.9-1.4,0.7C218.9,111,219.9,110.3,220.4,110.6L220.4,110.6L220.4,110.6z"/>
	<path fill="#82B624" d="M262.3,113.7c-1-0.7-1,0.2-1.7,0c-1,0.9-2.6,1.7-4.8,1.7c-0.5,0-1.2-0.3-1-1c2.6-0.5,4.8-1.7,7.7-2.6
		C263.5,112,262.3,113.2,262.3,113.7L262.3,113.7L262.3,113.7z"/>
	<polygon fill="#82B624" points="234,112.7 234,112.9 233.5,113.2 233.3,112.9 	"/>
	<path fill="#82B624" d="M205.3,116h-0.2l0.7-0.9C205.8,115.3,206,116,205.3,116L205.3,116L205.3,116z"/>
	<polygon fill="#82B624" points="203.1,116.8 203.6,116.3 203.8,116.3 	"/>
	<path fill="#82B624" d="M202.6,116.5c0.2,0.5-0.5,0.5-0.7,0.7C201.9,116.8,202.1,116.5,202.6,116.5L202.6,116.5L202.6,116.5z"/>
	<path fill="#82B624" d="M200.2,117.7c0,0.2-1,0.2-0.7-0.2C199.8,117.5,200.2,117.2,200.2,117.7L200.2,117.7L200.2,117.7z"/>
	<path fill="#82B624" d="M198.1,118.5c0,0.5-0.5,0.3-1,0.3C197.1,118.2,197.9,118.5,198.1,118.5L198.1,118.5L198.1,118.5z"/>
	<polygon fill="#82B624" points="195.9,119.2 195.9,119.2 193.1,120.4 	"/>
	<path fill="#82B624" d="M243.8,119.7c-0.2,0-0.5,0.5-0.7,0.2v-0.5C243.4,119.4,243.6,119.2,243.8,119.7L243.8,119.7L243.8,119.7z"/>
	<polygon fill="#82B624" points="241.4,120.8 241.2,120.1 241.9,120.1 	"/>
	<path fill="#82B624" d="M191.1,120.8c0.5,0.5-0.5,0.2-1,0.5C189.9,120.8,190.9,120.8,191.1,120.8L191.1,120.8L191.1,120.8z"/>
	<path fill="#82B624" d="M189,121.8c0,0.2-0.2,0.2-0.5,0.2l0.5-0.7C189.2,121.3,189.2,121.8,189,121.8L189,121.8L189,121.8z"/>
	<path fill="#82B624" d="M187.8,122c0,0.5-1.4,0.7-1.2-0.2L187.8,122L187.8,122L187.8,122z"/>
	<polygon fill="#82B624" points="185.6,122.8 184.7,122.3 185.4,122.3 	"/>
	<polygon fill="#82B624" points="186.1,122.8 185.9,122.5 186.6,122.5 	"/>
	<path fill="#82B624" d="M181.3,124.2c0,0.5-0.7,0.7-1.4,0.5C180.1,124.5,180.8,124.5,181.3,124.2L181.3,124.2L181.3,124.2z"/>
	<path fill="#82B624" d="M177.2,125.9c0.5,0.2-0.2,0.2-0.2,0.5l-0.2-0.5H177.2L177.2,125.9L177.2,125.9z"/>
	<polygon fill="#82B624" points="173.6,127.1 173.6,126.6 174.9,126.9 	"/>
	<path fill="#82B624" d="M169.3,128.5c0.2,0.5-0.2,0.2-0.5,0.7C168.4,129,169.1,128.3,169.3,128.5L169.3,128.5L169.3,128.5z"/>
	<path fill="#82B624" d="M166.7,130.2h-0.5l0.3-0.5C166.7,130,166.7,130.2,166.7,130.2L166.7,130.2L166.7,130.2z"/>
	<polygon fill="#82B624" points="164.8,130.9 164.8,130.2 165.3,130.2 	"/>
	<polygon fill="#82B624" points="161.2,132.1 160.2,131.4 160.7,131.6 	"/>
	<path fill="#82B624" d="M158.3,133.3h-0.7l0.2-0.7C158.1,132.6,158.1,133.1,158.3,133.3L158.3,133.3L158.3,133.3z"/>
	<path fill="#82B624" d="M374.2,136.9V135C374.4,135.2,374.4,136.2,374.2,136.9L374.2,136.9L374.2,136.9z"/>
	<path fill="#82B624" d="M143.7,139.1h-0.5c0-0.3,0.3-0.5,0.5-0.3V139.1L143.7,139.1z"/>
	<path fill="#82B624" d="M330.8,150.1v0.5l-0.7-1C330.6,149.4,330.8,149.8,330.8,150.1L330.8,150.1L330.8,150.1z"/>
	<path fill="#82B624" d="M338.5,154.6v0.5c-0.2-0.2-1.2,0-0.7-0.7C338,154.4,338.3,154.4,338.5,154.6L338.5,154.6L338.5,154.6z"/>
	<path fill="#82B624" d="M253.2,156.8l-1.9-1.4C252,155.8,252.9,155.8,253.2,156.8L253.2,156.8L253.2,156.8z"/>
	<polygon fill="#82B624" points="339.2,156.1 338.7,155.4 339,155.4 	"/>
	<path fill="#82B624" d="M339.4,159.4l-0.7-1.2C339.4,158.2,339.2,158.9,339.4,159.4L339.4,159.4L339.4,159.4z"/>
	<polygon fill="#82B624" points="260.6,162.3 260.9,162.3 266.1,166.4 266.1,166.6 	"/>
	<path fill="#82B624" d="M198.8,164.5v0.5c-0.2-0.3-1.2-0.3-0.5-0.7C198.3,164.5,198.6,164.5,198.8,164.5L198.8,164.5L198.8,164.5z"/>
	<polygon fill="#82B624" points="180.4,164.7 179.2,164.5 180.1,164.7 	"/>
	<path fill="#82B624" d="M188.3,164.7c-0.5,0.7-1.7,0.3-2.1,0C186.1,164.5,187.5,164.2,188.3,164.7L188.3,164.7L188.3,164.7z"/>
	<polygon fill="#82B624" points="181.6,164.9 181.1,164.7 181.6,164.7 	"/>
	<path fill="#82B624" d="M184.9,164.7l-1.4,0.3v-0.3C183.9,164.5,184.4,164.9,184.9,164.7L184.9,164.7L184.9,164.7z"/>
	<path fill="#82B624" d="M175.6,164.7c-0.7,0.3-1.9,1-2.6,0.7C173.2,164.7,174.9,165.4,175.6,164.7L175.6,164.7L175.6,164.7z"/>
	<path fill="#82B624" d="M377.6,165.9h-0.3l-0.5-0.5C377.1,165.2,377.3,165.7,377.6,165.9L377.6,165.9L377.6,165.9z"/>
	<polygon fill="#82B624" points="383.8,165.9 382.8,165.7 383.5,165.7 	"/>
	<polygon fill="#82B624" points="268.8,168.3 266.6,166.6 268.8,167.8 	"/>
	<path fill="#82B624" d="M413.7,169.5l-0.7,0.7l0.2,0.2l0.5-0.2c2.6,1.7,7.4,3.1,8.6,7c0.5,1.7,1.7,3.3,3.1,4.5c-1.2,1,1.7,1,0.7,2.2
		l-2.2-0.7v0.5c-0.9-0.9-2.4-0.7-3.3-0.9c-1.2-1-2.4-3.1-3.8-2.4c1.2,0.5,0.2,1.4,1,2.4c-0.2-0.3-0.5,0-0.7-0.3l-0.2,0.3
		c0.2,0.2,0.7,0.7,0.5,1.2c-0.7,0-1.4-1-1.9-0.2c-1.5-1.4-1.2-4.3-2.6-5.3c-0.2-0.2,0.2-0.2,0.2-0.5c-0.7-0.2-1.2-0.7-1.4-1.4
		l0.5-0.5l-0.5-0.2l-0.3,0.2c-1.9-1.2-5-4.3-2.9-7.4V168C411.1,168.3,411.3,168.5,413.7,169.5L413.7,169.5L413.7,169.5z"/>
	<path fill="#82B624" d="M180.6,212.6l-1.4-0.7C179.6,212.1,180.6,211.7,180.6,212.6L180.6,212.6L180.6,212.6z"/>
	<polygon fill="#82B624" points="229,213.1 229,212.9 230.2,213.3 	"/>
	<path fill="#82B624" d="M233.1,213.6v0.5h-0.7v-0.7C232.6,213.3,232.8,213.8,233.1,213.6L233.1,213.6L233.1,213.6z"/>
	<path fill="#82B624" d="M187.8,215.5c-0.7,0.2-2.4-0.2-3.1-1C185.9,215,187.1,215,187.8,215.5L187.8,215.5L187.8,215.5z"/>
	<path fill="#82B624" d="M238.1,214.5c-0.2,0.3,0.5,0.5,0,0.7h-0.7C236.9,214.8,237.9,214.5,238.1,214.5L238.1,214.5L238.1,214.5z"/>
	<path fill="#82B624" d="M241.4,215.7v0.2l-0.7-0.5C241,215.5,241.4,215.3,241.4,215.7L241.4,215.7L241.4,215.7z"/>
	<path fill="#82B624" d="M243.4,215.7c0.3,0.7-1.2,0-1.4,0H243.4L243.4,215.7L243.4,215.7z"/>
	<polygon fill="#82B624" points="246.2,216.4 244.1,216.2 246,216.4 	"/>
	<path fill="#82B624" d="M203.6,221.5c-0.2,0.2-0.5,0.5-0.7,0.5h-0.2C202.6,221.5,203.4,221.3,203.6,221.5L203.6,221.5L203.6,221.5z"/>
	<path fill="#82B624" d="M309.3,270.8c-0.7,0.2-1.4,0.7-1.9,0.7C307.8,271.1,308.3,270.6,309.3,270.8L309.3,270.8L309.3,270.8z"/>
	<path fill="#82B624" d="M304.5,271.3c0,0.2-0.5,0.2-0.7,0.2C304,271.3,304.2,271.1,304.5,271.3L304.5,271.3L304.5,271.3z"/>
	<path fill="#82B624" d="M306.1,276.1l-0.2,0.5l-0.2-0.5C305.9,276.1,306.1,276.1,306.1,276.1L306.1,276.1L306.1,276.1z"/>
	<polygon fill="#82B624" points="300.9,277.5 300.6,277.1 301.4,277.1 	"/>
	<path fill="#82B624" d="M297.5,278.3c-0.2,0.5-1,0.2-1.4,0.5C296.3,278.3,296.8,278.3,297.5,278.3L297.5,278.3L297.5,278.3z"/>
	<path fill="#82B624" d="M293.2,279.2c-0.3,0.7-1.2,0.5-1.9,0.7C291.8,279.7,292.5,279.5,293.2,279.2L293.2,279.2L293.2,279.2z"/>
	<polygon fill="#82B624" points="299.9,280 299.4,279.7 300.2,279.7 	"/>
	<path fill="#82B624" d="M298.9,280c-0.5,0.7-1,0.2-1.7,0H298.9L298.9,280L298.9,280z"/>
	<path fill="#82B624" d="M296.8,280.4c-0.5,1-2.6,1.2-3.9,1.9C293.4,280.9,295.8,281.4,296.8,280.4L296.8,280.4L296.8,280.4z"/>
	<path fill="#82B624" d="M292.3,282.3h-0.5c-0.5-0.3,0.5-0.7,0.7-0.5L292.3,282.3L292.3,282.3z"/>
	<path fill="#82B624" d="M290.8,282.3c0,0.2-0.5,0.5-0.7,0.7C289.9,283.1,290.1,282.3,290.8,282.3L290.8,282.3L290.8,282.3z"/>
	<polygon fill="#82B624" points="195,286.6 194.5,286.2 195,286.2 	"/>
	<path fill="#82B624" d="M231.6,299.6c0,0.2-0.2,0.5-0.5,0.5h-0.2C230.9,299.8,231.2,299.6,231.6,299.6L231.6,299.6L231.6,299.6z"/>
	<path fill="#82B624" d="M228.5,300.3c-0.7,0.5-1.7,0.7-2.6,0.5C226.6,300.6,227.6,300.3,228.5,300.3L228.5,300.3L228.5,300.3z"/>
	<path fill="#82B624" d="M302.4,87.2l-5.6,1.3C299.9,88.8,301.5,88.3,302.4,87.2L302.4,87.2z M283.3,105.4c-0.5,0.1-1.1,0.2-1.8,0.4
		C282,105.6,283,105.6,283.3,105.4L283.3,105.4z M229.5,114.2L229.5,114.2h-0.2C229.3,114.2,229.4,114.2,229.5,114.2L229.5,114.2z
		 M228.5,114.3c-0.3,0-0.5,0.1-0.8,0.2c0.4,0,0.9-0.1,1.3-0.2C228.9,114.3,228.7,114.3,228.5,114.3L228.5,114.3z M229.6,114.1
		c-0.1,0-0.1,0.1-0.2,0.1c0.4,0,0.8-0.1,1.2,0C230.3,114,230,114,229.6,114.1L229.6,114.1z M319.3,83.5v0.1c0.5-0.2,1.1-0.3,1.6-0.5
		L319.3,83.5L319.3,83.5z M325.8,89.5l-1.2,0.4v0.4L325.8,89.5L325.8,89.5z M320.9,83.1l6.8-1.6C324.9,82,322.8,82.5,320.9,83.1
		L320.9,83.1z M282.9,274.4L282.9,274.4c0.1,0,0.2,0,0.2,0H282.9L282.9,274.4z M258.2,106.7L258.2,106.7L258.2,106.7L258.2,106.7z
		 M442.2,107.7c0.3,0.2,0.3-0.2,0.7-0.2c-0.7-4.6-0.7-9.8-1.9-14.6c-4.1-8.6-10.5-16.5-16.5-24.2l18.2-2.4
		c-5.7-0.5-12.5,1.2-19.2,2.4c-1-0.5-0.2-1.4-0.5-1.2h-0.5c-0.5-0.7-1.4-1.5-1.9-2.2c0.5-0.2,1.9,0.5,1.9-0.7
		c-0.5-0.2-1,0.2-1.4,0.2c-0.7,0.3-1.9,0-1.7-0.7l10.1-1.7l-3.3,0.5c-2.6,0.3-6,1.7-7.9,0.3c-1.2-0.5-3.1-2.6-4.6-0.7
		c1,3.8-4.8,2.4-7,3.8c2.2-0.3,4.8-1.2,6.5-0.7L401,68c4.3,0.5,8.1-1.4,11.7-1.2l-1.9,2.2l-0.3-0.7l-2.2,2.2l-39,7.4l-2.9-4.1
		c13.2-3.1,26.4-4.8,39.5-7.2c-12.7,1.4-26.6,3.8-39.5,6.9c-4.1-5.7-8.9-10.8-14.1-15.6l0.5-0.2c-1.4-0.2-2.2-1-1.9-2.6
		c-1.2,2.4-2.9-1.2-4.1-1l2.6,2.2c-1.2,0.9-2.4-0.2-3.6-0.2c-9.1-7.2-18.4-14.4-29.9-16.3c0.5-1.9,1.2-3.6,0.7-6
		c-4.3-0.3-6,4.1-7.4,7.2c-1.2,0-3.3-0.5-3.8,1c0.5,1,0.2,2.6,1.7,2.6c-3.1,9.1-5.5,18.2-5.3,27.6c-2,4.1,3,12,0.5,15.2l0.4-0.1
		l0.5,0.7l-7,1.9v-0.7l-0.2,0.7l-6.2,1.9c-1.7,1-4.6,0.3-5.3,1.2l-0.7-0.7l10.3-3.1l-11,3.1c-1.9-1.2-5.3-1.4-6.5-2.9
		c-3.8-0.7-7.6-3.1-11.7-4.1l-0.5-0.7l-0.5,0.2c-1.7-1.4-3.8-0.7-5.2-2.1c-4.8-1.7-10.1-3.1-15.1-4.1c-12.2-3.1-26.1-4.8-38.1-4.1
		c-1.4-2.4,3.1-4.5-1-5.7c-2.1-0.2-3.8,2.2-4.8,3.6c-1,15.3,2.9,29.7,7.6,43.6l-2.4,1.2l1.7-0.5c-0.2,0.7-1.7,0.9-2.4,1.4
		c-1.9-1.2-4.8,1-6.7,1.4c0.9,0.2,2.2-1,3.1-0.3c-1.2,0.3-2.9,1-3.8,0.3c-1,0.5-3.3,1.2-3.1,1.9c-5.5,0.5-10,3.3-15.1,4.8h1.2
		l-0.5,0.5c-0.7,1.2-2.1,1.4-2.9,0.5l-11,4.1v0.5c-0.5,0.7-1.7,0-1.4-0.2l-9.8,3.8l0.5-1c-0.5,0.5-1.4,0.7-1.2,1.4l-29.7,11.8
		l-2.6,0.5l0.2,0.2l-1,0.5c-4.1,0.7-6.5,3.4-9.8,4.1l0.2,0.3l-3.6,0.9c-35.7,15.4-71.7,31.4-105.4,52c-0.5,1.7,1.4,2.2,2.4,2.9
		l-3.8,4.3c2.2-1,4.1,1.2,6.2,0.7l13.9-6.5c35.5-15.3,70.7-30.9,107.1-43.6c2.6,7.6,6.9,14.4,13.9,19.9c1.7,2.6,5,4.1,7.4,6.5
		c5.2,6.5,12,11.5,19.2,14.9l-0.5,0.5c1.9,1.4,3.6,0.5,5,2.9c4.3,0.5,7.4,3.8,11.5,5c1.2,0,2.4-0.3,2.9,0.7h-0.2l2.4,1l-0.7,0.7
		c1.2-0.9,2.4,0.7,3.8,0.5l0.5-1c0.3,0,0.3,0.2,0.5,0.5h-0.2l1.9,0.5l-2.2,0.5c0.8,0,1.2,0.2,1.7,1c-0.9,1-1.9-1.4-3.6-0.5
		c3.8,1.4,7.6,2.9,11.7,2.9c-0.2,0.5-0.9,0-0.7,0.5c0.5,0.5,1,0,1.2-0.5l0.2,1l0.5-0.7c0.7-0.5,1.9,0.3,1.9,1l-1.9,0.2
		c1,0.2,2.4,0,3.6,0c0.5,0.5,1.2,0.9,1.2,1.4c-44.3,7.9-86.5,21.6-125.5,42.2l-0.5-0.2c0,0.2,0,0.5-0.2,0.5
		c-7.4-1.7-8.1,8.4-14.4,9.3l1.9-0.2c-0.7,1.7-2.9,2.6-2.6,4.3c-1.9,0.2,1.2,2.9-1.4,3.1c1,0.2,1,1.4,1.4,2.4
		c-2.2,1.2,1.2,3.1,1.7,4.3h-1.9c9.8,7,21.1,10.8,33.1,12.9c14.9,2.1,30.9,5,46,5c27.5,1.2,53.4,0.3,78.6-5.5l1.4-1
		c3.3-0.2,7.2-1.7,10.3-1.7l-0.2,0.2l2.6-0.7l-0.2-0.5c6.5-1.4,13.2-2.1,19.2-4.8l0.3,0.7c2.4-1.4,5-1.7,7.7-2.4
		c1.4-2.2,4.3,0,5.7-1.9c6-1.7,12.2-4.1,18-5.8c-0.5-0.2-1.2,0-1.9-0.2c-1.4,1.9-4.1,0.5-6.2,1.7c-1.2,1.7-2.6,0-3.4,1.5l-8.8,1.9
		c11.3-4.3,24.2-6.7,35.9-11.2l-10.1,2.6c-1.2,0.7-3.1,1.4-4.3,0.9v-0.5c-1,0.7-2.4,0-2.1,1.4c-2.2-0.5-6.2,1.7-8.4,1
		c9.6-4.8,20.4-6.2,29.7-10.8c-2.1,0.5-4.3,1.7-6.7,1.5l0.7-0.5c-2.4,0.2-4.5,1.7-6.5,1.2c3.6-4.6,10.3-3.4,14.9-6.2
		c-0.7-0.7-2.6,1.2-3.6,0.2c-7.7,3.1-16.1,3.3-24,6.2l-0.5,1l-1.1-0.4c-5.2,0.5-11.6,3.6-17.6,3.8c8.9-3.3,18.9-4.3,27.8-7.9
		c-7.9,1.7-15.6,4.1-23.5,6c-16.5,4.3-34.3,7.7-50.6,9.1c-6,0-12.7,2.2-17.7,1l-0.2,0.7c-2.7-0.7-5.3,0-7.9,0.2
		c-2.4-1.2-5.8,0-7.9-0.7c-2.4,2.2-4.3-1.4-6.7,0.5l-19.6-1.7c-1.2-0.2-2.4,1.4-3.1,0c-23-3.6-48.2-4.3-68.3-17.5l0.5-0.5l0.2,0.2
		v-0.7c2.6-0.5,5.7-1.4,8.1-3.1c8.2-3.6,17.3-6.7,25.6-11c27.3-7.7,54.1-19.4,82.9-23l-0.5-0.5l2.6-0.4c-0.4,0-0.8-0.2-0.7-0.6
		l18.7-2.6l2.1,0.7v-0.7h0.3c0.2,0.2,0.9,0.5,0.2,0.7c0.9-0.7,1.7,1.4,2.1,0c0,0.5,1.7,0.5,1.9,0.7l-1.4-0.9h0.2c0,0.2,0.2,0,0.5,0
		c0.7,0,1.7,0,1.7,0.7h-0.7c1.4,3.1,6,0.7,8.6,2.4c0.7-0.9,2.2,1.4,2.4-0.5l2.1,1.2l0.5-1c0.2,0.2,1,0.2,0.5,0.5
		c1.9,1.7,3.1-1,5.3,0.5l-0.2,0.2c1.7,0.7,4.1-0.7,5.7,0.5l-2.6,0.7c2.4,0.7,6.5,0.2,9.1,1v-0.7c0.2-0.2,0.5,0,0.7,0.2
		c-0.2,0.2-0.2,0.5-0.2,0.5l1.4-0.7c2.6,1,6.2,0.7,9.1,0.7c-3.1-0.5-8.1-0.7-10.8-2.4c6,0.2,12.2,1,18,0.7c0,0.2-0.2,0.2-0.2,0.5
		c0.5,0,0.7-0.2,1-0.5c2.1,0.2,4.5-0.5,6.9,0c0.7-1.4,2.6,0,3.8,0.2c4.1-1,8.6-0.5,12.7-0.5c-3.8-2.2-7.7-3.1-12.2-3.1
		c-0.7-1.2,1-1.2,1.2-2.2c-0.5-0.5-1.2-1-1.9-1.4c-10.3-3.9-21.8-4.1-33-4.6c-45.8-6.5-92.3-16.3-123.4-53.4
		c4.8-0.5,10.5-0.7,15.6-1.2c3.1,0.7,6.5,0.7,9.1-0.2v0.2c0-0.2,0.9-0.9,1.4,0c5.7,0.5,12.7-1.2,18.4-0.5c3.6,0.7,7.2-1.2,9.3,0.5
		c-0.5,0-1-0.2-1.7-0.2c1.2,0.9,3.3,0.5,4.6,0.2l-2.1-0.5l2.4-0.7c8.1,0.5,19.6,1.2,27.5,1.2c0.2,0.5,0.7,0.5,0.7,1
		c5.3,0,10.8,2.1,16.1,1.4v1.2c6.5,0.5,12.7,1.2,18.4,3.8l-1.2-1.2c3.1,0.7,7,3.1,9.8,1.7l14.6,8.1l0.5-0.5c0.7,0.5,0.5,1.2,0.5,1.4
		c1.5-1,2.9,1.2,4.1,0.2c-1.9-0.9-2.6-2.8-4.8-3.6c0.5-1.4,1.4,0,2.2-0.7c-3.8-1-6.5-4.3-10.3-5.5l0.2-0.5c-1.7-0.5-3.4-1.9-4.5-2.9
		l0.2-0.5l-2.7-1.7l-0.7,0.5c-0.2-0.2-0.5-0.7-0.9-0.7c0-0.5,0.5-0.5,0.5-1c-1.5-0.7-3.1-1.4-4.1-3.1l0.7-0.2
		c-2.4-1.9-4.8-3.9-7.2-4.8l1,0.7c-2.4,0-1.7-1.2-3.8-2.2l0.5-0.4c-2.2-1.9-3.6-4.6-6.5-5.5l1.9,1.7c-2.2,1.4-1.7-1.9-2.9-2.2h0.5
		c-1.4-2.4-2.6-3.8-5.3-5c-3.6-5.7-11-11.2-14.4-17.7l8.4-3.4l-0.5-0.5c0.2,0,0.5-0.2,0.7-0.2c0.5,0.2,0,0.7,0.2,0.9l4.3-1.9
		l2.4-0.7c0.2-2.1,3.8-1.7,5.7-2.9l0.5,0.7c1.9-1.2,4.1-1.2,5.8-2.7l-0.5-0.2c4.3-3.1,12-4.5,17.9-6.7l-2.6,1.5l0.7,0.2
		c5.3-2.4,10.3-4.6,16.1-5.7c0.1,0.2,0,0.3-0.1,0.3c0.2,0,0.4-0.1,0.6-0.1c2.9,2.2,7.2,4.8,10.1,7.4c2.2,0.5,2.6,1.7,4.1,2.6
		c2.9,3.1,7.2,4.5,9.1,8.1c4.1,3.6,7.4,7.9,11.3,12.5c1,3.8,4.3,7.4,6.5,10.8c1.2,0.2,2.2,0.2,2.9-0.7c1.2-0.7,1.2,1.2,1.7,2.2
		c0-0.5,0.7-0.2,1,0c-0.2,0-0.2,0.2-0.7,0.2c0.5,0.5,0.9,0.5,1.4,0.7c-0.7,0.7,1.5,1.4,0,1.9c3.4,1.6,3.1,6.9,7.2,7.4l-1.9-3.1
		l0.8,0.1c-0.4-0.2-0.8-0.7-1.1-0.1c0.5-1.5-1.7-3.1-0.9-3.6l-0.7,0.5l-1-1.2l1.2-0.5l-0.7-0.7l-0.3,0.7c-0.5-1.9-2.1-3.8-2.6-5.5
		c0.2,0,0.5-0.2,0.5,0l-0.2-1.2h0.7c-0.5-0.5-1-1-1.2-1.7l-0.5,0.2c-0.7-0.9-1.4-1.7-1.2-2.9c0.7-1.7-2.9-3.6-0.9-5l-1.2-1.2
		c0.2-0.2,0.5-0.5,0.7-0.5c-2.2-5-4.8-10.5-6.9-15.6l0.5-0.7c-3.1-6-4.8-13.2-6.5-19.4l0.5,0.3l-0.5-0.5l17-4.8
		c-0.3-0.5-2.2-0.5-2.9,0.3l0.2,0.5c-1.9,0-3.1,0.7-4.8,0.5c-0.5,0.3-1.4,0.3-1,1l-8.2,2.2l-0.2-0.5l1.7-0.5c-1-0.5-1.7,1-2.4,0
		c5.5-2.6,10.8-3.4,17-4.8l-0.5-0.5l0.5-0.5c-5,1-10.1,2.2-14.6,3.8c-1,0.2-2.9,1-2.9-0.5c2.9-1,6.7-1.7,9.6-2.9l1.2-0.4v-0.1
		c2.4-1,4.1-3.1,6.7-3.3c0,0.5-0.5,0.5-0.5,0.7c1.2-1,3.1-0.7,3.8-1.7c-1.2-0.5-2.6-0.3-3.6-0.3l4.6-1.7c-3.6,0.2-6,2.6-9.1,4.1
		l-0.5-0.5c-1.2,0.7-2.6,0-4.1,0.7c-0.3,0-0.6-0.2-0.8-0.4c-1.5,0.4-4.7-0.3-5.4,1.6c-1-1-1.7-1.5-2.9-1.2c1.9-1.2,6.5-1.5,8.5-2.5
		v1.6h1.6c1.4-1.2,2.2,0,3.6-1c-0.7-2.6,3.1-1.2,4.1-2.4l-0.5-0.5l1.2-0.5c-2.6,1.2-5.7,1.9-8.6,2.6l-0.3-0.7
		c1.2-0.5,3.1-0.5,3.8-1.7c-1.2,0.2-4.8,0.9-7.2,2.1l0.2-1.3c-2.2,0.7-4.3,1.6-7.4,2.7l-0.5-1.5l3.3-0.9c-1.2-0.3-2.1,0.2-3.1,0.7
		c-0.7-2.1-0.9-4.1-1.7-6.2c0.7-10.3,0-20.4,3.3-30.2c1.9-0.7,3.1,1.9,5,1.4l-0.2,0.7l0.7,0.2c0-0.5-0.2-0.5-0.5-0.7
		c0.5-0.5,1-0.7,1.7-0.5c0.5,2.1,3.3,0.5,4.5,2.1c0.5,1.4-1.7,2.2-2.2,2.6c0,0.7,0.7,1,1.2,0.7c0.7,3.8,4.3,4.6,7.2,6.2
		c2.6,2.2,4.8,4.1,7.7,5.5c2.9,4.3,7.9,7.7,10.8,11.8l-0.2,0.2c2.1-0.7,2.1,2.6,3.6,2.9c-4.1,1.4-10.3,2.2-14.4,3.9
		c-2.2,0.5-0.5,0.5-1.9,1.7l13-2.4c0-1.7,2.6-1.2,4.1-1.7c1.4,3.4,4.6,3.6,5.3,6.7l-0.2,0.3c6.5,10.8,13.6,21.5,15.8,33.8l-0.9,0.9
		h0.9c0,0.5-0.2,0.7-0.2,1c1.4,4.1,0.2,7.9,1.7,12.2c-1.4,3.1,0.5,7.2,0.3,10.8c-1.4,1.4,0.9,1.7,0.5,3.1c-25.6,5-49.3,22-55.3,48.6
		c0,4.8,1,10.3,2.6,14.6c1.7,1,2.1,3.4,3.8,4.6c-0.7,3.1,4.3,5.8,2.1,7.2l0.9-0.5c10.8,13.2,29.5,15.6,44.8,10.5
		c0.7,1,1.9,0.7,2.9,0.3l-0.2-0.5l6.9-2.2c1.2-0.9,3.9,0.5,4.3-1.2c7-1.7,13.4-4.6,19.4-8.4c0.2-0.3,1-1.5,1.7-0.7
		c6.4-6.9,15.1-12,17.5-21.1c-3.4,1.7,1.2-3.1-1.9-2.6l0.5-1.2c-1.4,0-2.4-1.9-1.7-3.1l-0.7,0.5c-0.7-0.7,0.5-1.7,0-2.4
		c-0.9,0-2.1,0-2.1-1.2c-0.5,0.5-0.7,1-1.2,1.2c-2.9-2.1-0.7-5.7-2.9-8.4l-0.2,1.7c-1.9,0-2.4-1.7-4.1-1.9c-0.5-3.1-2.6-5.3-4.1-8.1
		h-0.5l-0.2,1.2c2.2,2.2,3.8,5.3,4.1,8.1h-0.7c0.2,2.9-1.9,5.3-3.6,7.4c-0.5,0-0.5-0.5-0.7-0.7c-2.4,0.7-1-3.1-2.4-3.4
		c-0.5,2.4-0.5,5-1.4,7.2c-3.1-1-2.4-4.6-5.3-5.5c0-0.2,0-0.2,0.2-0.5c-0.7,0.5-2.1,0.7-2.6-0.2c-1.2,1.2-3.4,0.2-5,0.9v-0.3
		c-2.2,0.7-4.3,0-6.5,0l1-1.2c-1-1.7,1.2-1.9,1.7-3.6l-1.2-0.5c-0.2-1.4,3.1-1.7,1.2-2.6h0.7l-1-2.2c-1-1.4,1.4-1.4,1.9-2.1l-0.5-1
		c1.9-0.2,0-2.2,0.7-2.9c-0.2-0.5-0.7-1-1.2-0.7c-0.2-0.7-1.2-1.9,0-2.1c-0.5-1.9-2.2,1-2.7-1l0.3-0.5l0.2,0.2l1-1.9
		c-1-1-1.2-3.6-2.6-2.6l0.2,0.2l-0.7,0.2c-1.2-0.5-3.1,0-2.9-2.1h-0.5c-1.2-0.3-1.2,0.9-1.9,1.7c-2.4-0.3-6,0.7-6.7-2.4l1.4-0.3
		l-0.2-0.2c-1,0.7-3.1-0.9-3.1,0.9c-1.7,0-1.9,1.7-3.4,1.9l0.5,0.5l-1.5,1l-0.5-0.7l-0.5,0.5l-0.3-0.5c-1,1.4-2.9,1-4.1,1.7
		c-0.2-0.5-0.9-0.5-1.2,0c-4.1,0.3-8.4,1.9-10.5,5.5c-1-0.5-2.4,2.2-3.1,0c10.3-11.2,26.4-21.3,41.9-14.8c-0.7-0.5-1.2-1.4-2.2-1.9
		c2.9,0,5.5,2.4,7.9,4.6l0.5-0.7l5.3,3.1l-1.7-1.9l0.5-0.5c-3.1-3.3-6-5.7-9.5-8.6l0.7-0.2l-2.4-1l0.5,0.5c-2.2-0.5-5.5,0-6.9-1.2
		c1.7-1.4,1.4-4.1,1.2-6.2c2.1-4.6,0.7-10.3,2.6-14.6c0.5,0.2,1.2,1.4,1.7,0.7c1,2.9-0.2,7.7,3.9,8.1c0.7-1-0.2-2.2-0.7-2.9
		l1.7-13.4l0.7-0.5c1.7-10.1,7.9-18.2,12.5-27.3l-0.5-1.7c1.9-4.3,4.1-8.6,5.8-13.2c1.9-1.2,1.2-4.8,3.4-5l-0.5-0.5l1.2-1.2
		c0.2-0.5,0-0.7-0.5-1.2l0.5-0.5c5,4.8,12,10.3,14.6,17c-3.8-4.6-7.7-9.8-12.9-12.7l-0.5,1.4c1.9,2.2,4.8,4.1,5.5,6
		c-2.4-1-3.1-3.6-5.5-4.5l3.1,3.8l-3.8-2.9l-0.5,1c2.9,4.1,8.2,7.7,9.8,12.5c-3.3-2.1-4.5-5.7-7.9-7.2c-1-1.2-3.1-4.3-4.8-2.4
		c0.2,0.2,0.5,0.2,0.7,0.5l-0.5,0.2l3.8,4.1l-0.2,0.3l7.7,8.1l-0.9-0.2c4.8,4.8,7.9,10.5,10,16.8c4.3,11.5-1.9,23.9-4.1,35.4
		c1.7,1-0.2,3.4,1,4.3c1.2-0.5,1-1.6,1.4-2.4c7.4-11.5,12.2-23.3,13.7-36.9C441.7,112.7,443.4,109.8,442.2,107.7L442.2,107.7z
		 M267.8,288.6h0.7C268.3,288.8,267.6,289.3,267.8,288.6L267.8,288.6z M261.8,279.2l-10.3,2.4C254.9,280.7,258.5,280.2,261.8,279.2
		L261.8,279.2z M248.9,281.9h1.2l-3.4,0.2L248.9,281.9L248.9,281.9z M249.1,291l-3.6,0.7C246,291.2,247.9,291,249.1,291L249.1,291z
		 M235.7,293.4l0.2,0.4l-3.1,0.5L235.7,293.4L235.7,293.4z M222.1,297.7c7.2-0.7,14.8-2.1,22-4.1c0,0.2,0.1,0.3,0.3,0.4
		c0.6-0.2,1.3-0.4,1.9-0.6c0.9-0.4,1.8-0.8,2.8-0.8c-0.9,0.3-1.9,0.5-2.8,0.8c-0.6,0.3-1.2,0.5-1.8,0.6c-0.1,0-0.1,0-0.2-0.1
		c-8.2,2.2-16.4,3.3-25,5.1l-0.5-0.5c-3.8,1.4-8.9,1.7-13.4,2.4l-0.5-0.5C210.5,299.6,216.5,298.2,222.1,297.7L222.1,297.7z
		 M139.6,303.4l12.9,1.2c-4.1,0-9.1-1-13.2-0.7L139.6,303.4L139.6,303.4z M257.5,230.8l1.7,0.2h0.5v0.2l-2.1-0.2L257.5,230.8
		L257.5,230.8z M198.3,218.4c-0.9,0.7-1.7-0.3-2.4-0.5C196.2,217.6,197.6,217.6,198.3,218.4L198.3,218.4z M277.1,102.4
		c-5.5,1.2-11,4.5-17,5c3.8-1.9,6.2-1.2,9.6-3.4c0.2-0.5-0.5-0.7-0.5-0.5c-2.1-0.2-3.3,2.4-5.3,1.5l-5.7,1.7c0.1,0,0.2,0,0.2,0
		s0,0-0.1,0.1c0.2,0,0.4-0.1,0.5-0.1c-0.2,0.3-0.5,0.3-0.9,0.3c0.2,0,0.2,0,0.4-0.2c-0.1,0-0.1,0-0.2-0.1c-0.7,0-1.7,0.7-1.9,0
		c6-1.7,11.7-2.6,17.7-5.3L277.1,102.4L277.1,102.4z M260.1,108.6h-1l0.7-0.3L260.1,108.6L260.1,108.6z M257.5,105l0.5-0.3h0.2
		l-0.5,0.5L257.5,105L257.5,105z M260.6,103.1l0.2,0.5C260.6,103.3,259.9,103.6,260.6,103.1L260.6,103.1z M273.6,101l-4.8,1
		C270,100.2,271.9,100.5,273.6,101L273.6,101z M269.2,100.5c-0.2,0-0.5,0.5-0.7,0.7h0.7c-0.5,0.2-0.5,0.2-0.9,0L269.2,100.5
		L269.2,100.5z M266.6,103.1l-1.9,0.5l1.9-0.7V103.1L266.6,103.1z M264,102.4v-0.2h0.7v0.2H264L264,102.4z M264.9,102.9l0.7-0.5h0.7
		L264.9,102.9L264.9,102.9z M231.4,83.7h0.2V84h-0.2V83.7L231.4,83.7z M163.4,132.3c0,0.5-0.7,0.7-1,0.2
		C162.6,132.6,162.9,132.1,163.4,132.3L163.4,132.3z M242.7,156.1v0.7c1.4,0,1.2,2.2,3.4,1.7c-0.7,1.7,1.9,1.4,2.9,2.4
		c-29.7-4.6-61.8-8.4-93.9-3.6c-1.9,1.2-4.6,0.7-6.7,1.2l-14.1,3.4l-0.2-0.5c18.2-7.2,37.1-14.4,55.6-21.4l-0.5-0.5h1.9
		c7.6-3.1,15.3-6.7,23.2-9.4c2.2,0,3.1,2.9,4.5,3.1c-0.2,0.5,0.5,0.9,1,1.4l0.2-0.7C227.6,141.5,234.5,151.1,242.7,156.1
		L242.7,156.1z M222.8,111.2l1.9-0.7l-0.5-0.5l-6.2,2.4c0,0.2,0.3,0.2,0.5,0.2c-0.7,0.2-1.9,0.2-1.9,1.2l-0.5-0.2
		c-0.2-0.3,1.7-0.5,1.2-1.4l-1.7,0.7c-6-11.7-9.6-23.7-10.1-36.9c1.2,1.7,3.6,1.4,5.3,2.6l0.5,1c4.8,1.7,9.6,1.4,14.8,2.2
		c-0.2,0.9,0.7,1.2,1.2,1.2c1-0.2,1.2,0.5,1.7,1c5.5,1.4,10.3,3.1,16.1,3.8c6.2,3.1,13.4,4.3,19.2,7.9l-0.2,0.3l0.9,0.5
		c-0.7,1-2.6,1.4-3.1,1.4c-0.2,1.7,1.9-0.2,3.1,0.2l-0.5,0.5l0.2,0.2c-1.4,0-3.4,1.2-5.3,1.4v1.9c1.2-1,2.6-1,3.8-1.4
		c-0.7,0.7-2.4,0.9-2.2,1.4c1.4,0.2,2.9-1.2,4.3-1.7l1.2,0.2c-1.7,0.1-3.4,2.4-5.5,1.8l-1.2,0.7l0.5-0.7l-1.9-0.2
		c0.7,0,1.2-1,0.5-1.5c-3.6,0-7.4,1.9-11.3,2.9c-2.6,0-6,0.7-8.6,1.9c-3.3,0.5-7.2,1.2-10.1,3.3c4.8-1.2,9.8-3.1,14.9-3.8
		c0,0,0.2,1.4,1.4,0.7l-1.9,1.2l1.2,0.5H244l0.5,0.5h-0.2c0,0.3,0,0.4,0,0.5l0,0l0,0l0,0c-1.2,0-3.6,0-4,1.4l-0.7-0.2l0.7-0.9
		c-2.7,0.4-4.6,1.4-7.4,1.9c3.6-2.2,6.2-1,9.3-3.1c-1.4-1.2-4.3,0.5-6,0.5c0.7-0.5,1.9,0,1.9-0.9c-4.1-0.5-7.9,2.6-11.5,2.9
		c0-0.2-0.3-0.2-0.3-0.5C226,110.8,224.3,110.9,222.8,111.2L222.8,111.2z M250.3,104.6c0-0.3-0.2-0.3-0.4-0.3c1.2,0,2.2-1,3.6-1
		c-1.7,1-3.1,2.4-5.5,2.2L250.3,104.6L250.3,104.6z M247.2,105.7l-0.2-0.2l0.7-0.5h0.2L247.2,105.7L247.2,105.7z M255.6,105
		c-1.2,1.2-4.3,1.4-6,1.9C251.8,106.5,253.4,105,255.6,105L255.6,105z M256.1,108.6c-0.5,0.7-2.6,2.9-3.8,1.2
		C253.2,108.8,254.9,110.1,256.1,108.6L256.1,108.6z M238.8,109.4l-0.7,0.9l-0.5-0.2L238.8,109.4L238.8,109.4z M236.7,110.3
		l-0.5,0.7H236L236.7,110.3L236.7,110.3z M235.7,111.3c0.2,0.7-1.9,0-1.7,0.7C233.3,111.7,235.2,111,235.7,111.3L235.7,111.3z
		 M232.1,109.3l0.7,0.2C232.6,109.8,231.2,110.1,232.1,109.3L232.1,109.3z M229,116.5c1-1.9,2.9-2.2,4.3-2.9c0-0.3-0.2-0.3-0.5-0.3
		l0.5-0.5c-0.7,0.5-2.1,0.2-2.6,1.2c0,0-0.7,0-1.5,0.1c-1,0.4-1.9,1.3-2.9,0.8c-1.2,0.3-0.1-0.2,1.4-0.6c-0.5,0-1,0.1-1.4,0.1
		c0-0.1,1.1-0.2,2.2-0.3c0.3-0.1,0.5-0.1,0.8-0.1c0.1,0,0.2-0.1,0.3-0.1c0.3-0.1,0.6-0.2,0.8-0.4h-2.6c1.4-0.7,4.3-1,5.5-1.9v0.7
		c1.2,0,1.7,1,3.1,0c-0.5,1.4-2.2,1.2-3.1,2.2l1,0.2C232.6,115.3,230.9,116.3,229,116.5L229,116.5z M236.4,114.6l0.5-0.2h1
		L236.4,114.6L236.4,114.6z M239.5,112.9c-1.2-0.5-2.4,1-3.8,1.2c0.2-2.9,5-1.7,7.4-3.2c3.6-1.4,7.4-2.6,11.3-3.4
		C249.9,110.1,244.3,110.8,239.5,112.9L239.5,112.9z M240.3,113.7l3.3-1.2h0.2L240.3,113.7L240.3,113.7z M242.7,118
		c1.7-0.5,2.6-2.4,4.3-2.2C246,116.8,243.6,117.5,242.7,118L242.7,118z M247.7,110.8c0.7,1,1.7-0.5,2.4,0c-0.2,0-0.2,0.2-0.2,0.2
		c0.4,0.5,1.7,0.3,2.4,0l-2.4,1.2l-0.5-1l-1.7,0.7C247.9,111.3,247.9,111.3,247.7,110.8L247.7,110.8z M248.2,115.3
		c5-2.4,10.6-4.6,16-6L248.2,115.3L248.2,115.3z M264,107.7c4.8-1.7,9.8-3.6,14.6-4.5C273.6,105.3,268.8,106.2,264,107.7L264,107.7z
		 M304.7,93.8l0.2,0.5l-0.5,0.2L304.7,93.8L304.7,93.8z M305.2,96.4l-2.2,0.7l1.9-0.7H305.2L305.2,96.4z M290.6,92.1h-1
		C289.9,92.1,290.1,91.9,290.6,92.1L290.6,92.1z M288.9,95.5l1.3-0.4c0.3-0.4,0.8-0.4,1.3-0.4l-1.3,0.4c0,0.1-0.1,0.1-0.1,0.1
		c2.9-0.2,6-1.2,7.9-2.9c-1.4-0.5-4.1,1.4-5,0.2c-1.4,1.4-4,1-4.8,2.4c-0.3-0.9-1.2,0-1.7-0.5c4.8-1.7,9.6-4.1,14.6-4.3l-3.1,1.2
		c1.2,0.2,3.8-0.5,5.3-1.4l0.5,0.7l-1.4,0.7l0.5,0.5l-1.7,0.2c-0.1,0.2,0,0.3,0,0.3c-0.6,0-1.2,0.1-2.4,0.4c0.2,0.7,1.4,0,2.4,0.2
		c-3.1,1-7.9,1.5-11,2.6C289.6,96.2,289.1,95.7,288.9,95.5L288.9,95.5z M293.2,93.8c0.7,0,0.9-0.5,1.7-0.2
		C294.4,93.8,293.9,93.8,293.2,93.8L293.2,93.8z M302.6,94.7c0.2,0.7-1,0.7-1.4,0.9l-0.3-0.2C301.4,95.2,301.8,94.5,302.6,94.7
		L302.6,94.7z M296.8,95l-0.5,0.2l0.2-0.2H296.8L296.8,95z M295.6,95.5l-0.5,0.2h-0.7L295.6,95.5L295.6,95.5z M292.5,96.9l-0.9,0.2
		c0-0.2,1.4-0.7,2.1-0.9l-1,0.9L292.5,96.9L292.5,96.9z M293.7,98.1c2.2-1,4.3-1.9,6.7-2.4l-0.5,0.5c1.4,0,3.6-0.7,5-0.3
		C301.1,96.6,297.5,98.8,293.7,98.1L293.7,98.1z M308.1,107.4l-0.5,1.2c-3.4-0.5-4.8-4.1-7.7-5.3v-0.2l-1.9-1.9l7.4-1.9
		c1.2,2.6,2.6,5.8,3.1,8.6L308.1,107.4L308.1,107.4z M324.6,88.7h0.2l-1.2,0.3L324.6,88.7L324.6,88.7z M322,88.3h0.2
		c-1,0.2,0,0.7-0.7,0.4L322,88.3L322,88.3z M314.5,92.1c1.5-0.9,3.1-1.2,4.6-1.9C318.1,91.6,316,91.1,314.5,92.1L314.5,92.1z
		 M319.7,89l1-1.3c0.5-0.3,0.1,2,0.1,1.3C320.5,88.9,320.1,89,319.7,89l-0.4,0.5l-4.9,1.5C314.6,90.2,317.7,89.2,319.7,89L319.7,89z
		 M313.6,91.4h0.5l-1,0.5L313.6,91.4L313.6,91.4z M318.4,84.4c0.2,0.5-0.5,0.2-0.5,0.5C317.9,84.6,318.1,84.4,318.4,84.4L318.4,84.4
		z M401,72.2c-1.7,0.7-3.1,0.5-5,0.9C397.2,72.4,399.4,72.7,401,72.2L401,72.2z M395.1,73.4h0.4l-20.1,3.8L395.1,73.4L395.1,73.4z
		 M403.2,76l0.7,0.5c-0.3,0.3-0.3,0.5-0.3,0.7c-1.2-0.5-1.7,0.9-2.2,1.9c0,1.2-2.4,2.7-3.1,4.8c-5.5,10.1-11,20.6-11.5,32.6
		l-0.7,0.7c-2.6-13.9-7.9-27-15.6-38.6l35.9-6.5C406.1,73.4,404.6,75.3,403.2,76L403.2,76z M416.6,75.3c-1.2-1.2-3.4-1.9-3.4-4.3
		l5,4.8C417.8,76,417.1,74.8,416.6,75.3L416.6,75.3z M428.3,89.5l2.6,4.1C429.8,92.8,428.6,91.1,428.3,89.5L428.3,89.5z"/>
	<polygon fill="#82B624" points="227.1,214.7 227.1,350.7 673.1,350.7 673.1,214.7 	"/>
	<g>
		<path fill="#FFFFFF" d="M302.3,328H266l-23.2-90.6h30.5l9.1,48.1c1,5.2,1.5,10.4,1.5,13.2h1.5c0-2.8,0.4-8,1.4-13.2l9.1-48.1h29.7
			L302.3,328z"/>
		<path fill="#FFFFFF" d="M334.4,328v-90.6h61.2v24.7h-31.5v8.2h29v24.6h-29v8.4h32.5l1.2,24.7L334.4,328L334.4,328z"/>
		<path fill="#FFFFFF" d="M482,328c-3,0.4-7.3,0.7-9.8,0.7c-12.2,0-17.3-4.1-22-14.5l-7.7-16.9h-3.2V328h-28.8v-90.6h38.9
			c18.8,0,31.9,7.4,31.9,27.6c0,11.5-4.6,19.7-12,24.7l5.9,10.8c1,1.9,1.5,2.3,3.7,2.3c1,0,2.1-0.1,3-0.2L482,328L482,328z
			 M446.9,259.9h-7.5v16.3h7.2c4,0,5.6-2,5.6-8.5C452.1,261.6,450.5,259.9,446.9,259.9z"/>
		<path fill="#FFFFFF" d="M532.1,328h-36.8v-90.6h36.5c24.2,0,41,12.4,41,43.5C572.7,311.1,558.4,328,532.1,328z M531.6,261h-6.9v43
			h6.8c9.9,0,10.4-3,10.4-22.6C541.8,262.9,539.4,261,531.6,261z"/>
		<path fill="#FFFFFF" d="M629.3,328l-2.8-17.1h-19l-3.2,17.1H575l22.9-90.6h40l21.6,90.6H629.3z M619.3,274
			c-0.9-5.2-1.1-11.1-1.1-14.2h-1.5c0,3.1-0.5,9-1.5,14.3l-2.6,14.6h9L619.3,274z"/>
	</g>
</g>
</svg>
