<svg xmlns="http://www.w3.org/2000/svg" width="124" height="124" viewBox="0 0 124 124">
    <g fill="none" fill-rule="evenodd" transform="rotate(90 137.137 46.738)">
    <rect width="295.716" height="46" x="-27.043" y="97.815" fill="#84B415" transform="rotate(-45 120.815 120.815)"/>
        <path fill="#FFF"
              d="M114.653111,108.322435 C114.653111,114.612435 110.583111,116.277435 104.367111,116.277435 L93.3781111,116.277435 L93.3781111,89.1564349 L104.330111,89.1564349 C110.583111,89.1564349 114.061111,90.8584349 114.061111,96.1124349 C114.061111,99.4424349 112.433111,101.218435 109.917111,101.958435 L109.917111,102.365435 C113.136111,103.068435 114.653111,105.103435 114.653111,108.322435 Z M105.625111,107.545435 C105.625111,106.028435 105.255111,105.510435 104.367111,105.510435 L101.962111,105.510435 L101.962111,109.654435 L104.256111,109.654435 C105.329111,109.654435 105.625111,109.025435 105.625111,107.545435 Z M105.403111,97.6664349 C105.403111,96.2234349 104.959111,95.7794349 104.182111,95.7794349 L101.962111,95.7794349 L101.962111,99.8124349 L104.145111,99.8124349 C104.922111,99.8124349 105.403111,99.2574349 105.403111,97.6664349 Z M136.964111,116.277435 L117.983111,116.277435 L117.983111,89.1564349 L136.298111,89.1564349 L136.298111,96.5564349 L126.863111,96.5564349 L126.863111,98.9984349 L135.558111,98.9984349 L135.558111,106.361435 L126.863111,106.361435 L126.863111,108.877435 L136.594111,108.877435 L136.964111,116.277435 Z M158.720111,96.5564349 L153.170111,96.5564349 L153.170111,116.277435 L144.253111,116.277435 L144.253111,96.5564349 L138.777111,96.5564349 L138.777111,89.1564349 L158.720111,89.1564349 L158.720111,96.5564349 Z M182.992111,116.277435 L173.964111,116.277435 L173.113111,111.171435 L167.415111,111.171435 L166.453111,116.277435 L157.684111,116.277435 L164.529111,89.1564349 L176.517111,89.1564349 L182.992111,116.277435 Z M171.670111,104.511435 L170.967111,100.108435 C170.708111,98.5544349 170.634111,96.7784349 170.634111,95.8534349 L170.190111,95.8534349 C170.190111,96.7784349 170.042111,98.5544349 169.746111,100.145435 L168.969111,104.511435 L171.670111,104.511435 Z"
              transform="rotate(-45 138.185 102.717)"/>
  </g>
</svg>
